;TYPE=PLATED
;Layer: PTH_Through
;EasyEDA Pro v3.2.149.88089769, 2026-09-19 14:29:32
;Gerber Generator version 0.3
M48
METRIC,LZ,0000.00000
;Hole size 1 = 0.30500 METRIC
T01C0.30500
;Hole size 2 = 0.61000 METRIC
T02C0.61000
;Hole size 3 = 0.80000 METRIC
T03C0.80000
;Hole size 4 = 0.91440 METRIC
T04C0.91440
;Hole size 5 = 1.00000 METRIC
T05C1.00000
;Hole size 6 = 1.02001 METRIC
T06C1.02001
;Hole size 7 = 1.30002 METRIC
T07C1.30002
;Hole size 8 = 1.80000 METRIC
T08C1.80000
;Hole size 9 = 2.50002 METRIC
T09C2.50002
;Hole size 10 = 3.20040 METRIC
T10C3.20040
%
G05
G90
T01
X25.418Y-29.755
X7.655Y-34.90702
X9.436Y-34.92202
X7.604Y-40.078
X9.43Y-40.164
X14.249Y-35.00902
X15.966Y-34.98102
X14.209Y-40.009
X16.038Y-40.067
X4.525Y-22.154
X4.525Y-24.75494
X4.525Y-27.20281
X7.126Y-22.132
X7.126Y-24.64566
X7.126Y-27.22467
X9.92339Y-27.22467
X9.902Y-24.821
X9.902Y-22.19778
X4.56866Y-29.754
X7.14767Y-29.754
X9.923Y-29.716
X12.24012Y-29.716
X12.24Y-27.268
X12.24Y-24.84236
X12.24Y-22.11036
X4.49216Y-19.594
X7.13674Y-19.594
X9.912Y-19.641
X12.29476Y-19.641
X27.59Y-37.91064
X26.656Y-41.61963
X29.631Y-35.279
X29.482Y-31.811
X20.307Y-45.838
X34.482Y-34.61302
X36.166Y-34.66102
X34.486Y-33.20898
X36.128Y-33.273
X51.29Y-11.90998
X49.51Y-11.84998
X49.51Y-13.25002
X51.29Y-13.31002
X45.76047Y-11.4105
X45.735Y-9.833
X47.164Y-9.857
X42.804Y-10.924
X39.507Y-13.46798
X41.285Y-13.518
X39.507Y-14.86802
X23.863Y-16.457
X23.863Y-17.80702
X23.863Y-20.18398
X23.863Y-21.58402
X30.21Y-20.06811
X30.369Y-22.287
X31.7029Y-25.216
X34.638Y-25.27599
X39.87Y-23.554
X39.87Y-24.90402
X39.92Y-20.00398
X39.92Y-21.40402
X37.95998Y-18.605
X39.36Y-18.631
X33.553Y-15.946
X32.841Y-18.016
X26.48002Y-12.86
X25.10998Y-12.89
X31.95202Y-11.882
X32.014Y-10.41998
X33.393Y-20.39753
X33.393Y-21.35595
X43.753Y-27.5
X45.256Y-27.514
X45.288Y-28.497
X43.76Y-28.528
X42.11Y-32.224
X45.158Y-35.563
X43.60198Y-36.819
X32.36488Y-29.05763
X34.29972Y-29.09582
X32.513Y-30.907
X21.693Y-48.764
X18.54236Y-42.703
X52.93002Y-21.71
X50.57002Y-15.73
X49.16998Y-15.73
X46.018Y-50.69891
X25.438Y-54.261
X33.22353Y-43.16093
X30.1342Y-39.60434
X44.946Y-45.523
X47.26336Y-39.233
X47.30638Y-40.80499
X22.712Y-38.705
X22.626Y-33.56497
X51.52998Y-21.71
X17.559Y-24.039
X18.97069Y-24.039
X18.971Y-25.143
X17.5588Y-25.09422
X22.842Y-54.01
X24.12414Y-54.01
X6.24198Y-51.437
X7.63436Y-47.779
X7.55196Y-49.49883
X21.699Y-50.179
X37.82513Y-43.05787
X37.626Y-46.289
X37.036Y-43.003
X36.406Y-43.593
X38.63313Y-43.071
X36.129Y-26.164
X36.8105Y-26.56013
X37.41723Y-26.08923
X38.01361Y-26.898
X48.559Y-42.864
X49.118Y-42.017
X42.125Y-38.935
X42.111Y-37.888
X45.777Y-34.97
X46.464Y-34.381
X47.835Y-32.98
X48.492Y-32.369
X47.142Y-33.703
X48.189Y-10.5072
X40.786Y-43.102
X39.83002Y-43.102
X29.40198Y-44.888
X32.26901Y-47.28301
X29.52Y-50.71004
X33.032Y-45.593
X36.381Y-41.82
X30.34356Y-32.27097
X31.19259Y-32.22697
X30.42163Y-33.6514
X31.291Y-33.639
X34.292Y-30.958
X28.133Y-57.798
X30.351Y-57.889
X29.283Y-57.902
X31.429Y-57.869
X32.642Y-57.751
X33.812Y-56.902
X34.66Y-55.918
X34.533Y-35.72
X30.64Y-35.21
X36.353Y-18.619
X48.306Y-35.493
X16.227Y-4.076
X16.265Y-5.247
X16.265Y-6.537
X16.28Y-7.593
X16.285Y-8.577
X14.554Y-9.346
X13.316Y-9.363
X12.169Y-9.375
X10.997Y-9.465
X9.92Y-9.83
X8.78Y-9.346
X7.799Y-9.335
X3.925Y-9.296
X5.293Y-9.304
X6.552Y-9.315
X3.94Y-10.544
X3.965Y-11.969
X3.978Y-13.299
X5.326Y-13.335
X6.621Y-13.304
X7.727Y-13.279
X8.868Y-13.27
X9.893Y-13.233
X10.92Y-13.173
X11.901Y-13.138
X12.896Y-13.203
X14.064Y-13.19
X15.168Y-13.235
X15.691Y-9.34
X16.084Y-13.82
X16.079Y-14.912
X16.113Y-15.929
X16.164Y-16.93
X16.689Y-17.563
X20.003Y-14.572
X19.969Y-13.623
X17.402Y-4.035
X18.762Y-4.056
X20.003Y-3.975
X20.018Y-5.222
X20.018Y-6.528
X20.035Y-7.783
X20.086Y-9.168
X20.064Y-10.707
X19.996Y-12.115
X19.8858Y-17.579
X18.981Y-17.614
X17.784Y-17.671
X43.52498Y-45.535
X25.948Y-37.97098
X16.758Y-50.726
X16.766Y-48.82849
X15.133Y-46.893
X15.144Y-45.746
X15.144Y-44.62277
X15.144Y-43.44695
X15.619Y-42.747
X15.644Y-41.874
X16.529Y-41.472
X17.498Y-41.411
X18.616Y-41.446
X19.533Y-41.42
X21.23Y-43.126
X21.257Y-44.23363
X21.231Y-45.28605
X21.256Y-46.25049
X21.205Y-47.22518
X17.10021Y-53.40891
X18.355Y-53.463
X28.474Y-40.372
X27.21455Y-40.568
X26.16644Y-40.568
X25.646Y-41.166
X25.646Y-42.3593
X25.664Y-43.50264
X26.017Y-44.414
X27.13748Y-44.397
X27.864Y-45.547
X28.678Y-46.356
X29.76106Y-46.356
X31.05578Y-46.356
X31.71635Y-46.356
X31.71635Y-43.04416
X31.693Y-45.057
X32.19Y-39.127
X33.883Y-39.127
X31.776Y-42.048
X30.752Y-44.888
X62.747Y-28.863
X62.747Y-33.278
X62.747Y-37.5916
X62.747Y-40.80198
X62.747Y-44.313
X62.747Y-47.4234
X62.747Y-50.93476
X62.747Y-54.847
X66.866Y-28.964
X66.866Y-32.876
X66.866Y-37.39095
X66.866Y-40.702
X70.60298Y-28.863
X70.60298Y-33.278
X70.60298Y-37.5916
X70.60298Y-40.80198
X70.60298Y-44.313
X70.60298Y-47.4234
X70.60298Y-50.93476
X70.60298Y-54.847
X75.393Y-28.863
X75.393Y-33.278
X75.393Y-37.5916
X75.393Y-40.80198
X75.393Y-44.313
X75.393Y-47.4234
X75.393Y-50.93476
X75.393Y-54.847
X80.73576Y-28.662
X80.73576Y-33.077
X80.73576Y-37.3906
X80.73576Y-40.60098
X80.73576Y-44.112
X80.73576Y-47.2224
X80.73576Y-50.73376
X80.73576Y-54.646
X87.031Y-20.887
X87.031Y-25.302
X87.031Y-29.6156
X87.031Y-32.82598
X87.031Y-36.337
X87.031Y-39.4474
X87.031Y-42.95876
X86.931Y-46.871
X58.664Y-24.524
X62.747Y-24.524
X66.866Y-24.524
X70.60298Y-24.524
X75.393Y-24.524
X80.73576Y-24.524
X41.706Y-10.899
X40.581Y-10.9
X40.519Y-9.836
X41.655Y-9.821
X42.772Y-9.821
X23.104Y-24.835
X24.383Y-24.835
X25.81883Y-24.835
X25.806Y-26.442
X24.435Y-26.441
X23.104Y-26.442
X23.10399Y-27.94336
X24.40239Y-27.94336
X25.85818Y-27.94336
X38.999Y-52.802
X38.992Y-55.924
X39.044Y-57.925
X40.494Y-52.783
X40.552Y-57.918
X40.532Y-55.894
X42.237Y-55.926
X42.218Y-57.931
X44.238Y-57.968
X44.211Y-55.945
X44.245Y-54.29
X46.034Y-54.285
X46.113Y-55.992
X46.159Y-58.014
X47.956Y-57.995
X47.982Y-56.0
X47.963Y-54.317
X9.266Y-52.012
X26.65975Y-57.70778
X34.542Y-36.847
X28.045Y-11.88205
X28.998Y-13.038
X48.189Y-7.937
X20.27205Y-44.47693
X33.857Y-37.32
X20.78Y-34.98002
X22.626Y-34.96502
X20.864Y-40.18702
X22.681Y-40.11002
X35.188Y-49.391
X33.646Y-49.425
X36.528Y-49.362
X37.74Y-49.336
X38.421Y-48.501
X39.33888Y-47.55643
X40.398Y-46.694
X42.57363Y-46.694
X41.737Y-47.595
X40.861Y-48.548
X40.088Y-49.372
X36.527Y-47.601
X35.23243Y-47.601
X20.30304Y-47.43482
X19.742Y-47.892
X19.133Y-48.425
X19.133Y-49.46522
X19.133Y-50.35352
X33.872Y-41.548
X13.635Y-52.171
T02
X41.674Y-33.69
T03
X12.04189Y-54.61882
X12.04189Y-52.11883
X12.04189Y-50.11883
X12.04189Y-47.61884
X10.54187Y-47.11884
X10.54187Y-49.11883
X10.54187Y-51.11883
X10.54187Y-53.11883
X10.54187Y-55.11882
T04
X18.258Y-11.661
X23.338Y-11.661
T05
X50.25999Y-5.819
X18.26001Y-5.819
X122.09205Y-21.5441
X122.09205Y-24.0841
X122.09205Y-26.62408
X122.09205Y-29.16408
X122.09205Y-19.0041
X122.09205Y-16.4641
X122.09205Y-13.9241
X122.09205Y-11.38413
X54.34Y-31.718
X54.34Y-34.258
X54.34Y-36.798
X54.34Y-39.338
X54.34Y-41.878
X54.34Y-44.418
X54.34Y-46.958
X54.34Y-49.498
T06
X50.863Y-36.464
X50.863Y-33.924
X50.863Y-31.384
X50.863Y-28.844
X50.863Y-26.304
T07
X5.96603Y-11.585
X2.106Y-33.384
X2.106Y-38.464
X2.106Y-22.134
X2.106Y-27.214
T08
X1.96603Y-7.58501
X1.96603Y-15.58499
X9.96602Y-15.58499
X9.96602Y-7.58501
T09
X12.04187Y-57.68882
X12.04187Y-44.54884
T10
X90.00046Y-4.99994
X5.00046Y-54.99995
X65.00046Y-4.99994
X90.00046Y-54.99994
M30