G04 Layer: BottomSolderMaskLayer*
G04 EasyEDA Pro v3.2.149.88089769, 2026-09-19 14:29:32*
G04 Gerber Generator version 0.3*
G04 Scale: 100 percent, Rotated: No, Reflected: No*
G04 Dimensions in millimeters*
G04 Leading zeros omitted, absolute positions, 4 integers and 5 decimals*
G04 Generated by one-click*
G04 Object Configs: Pad,Via,Track,Text,Image,Dimension,BoardOutline,BoardCutout,CopperFilled,SolidRegion,FPCStiffener,Line,PlaneZone,ComponentProperty,ComponentSilkscreen,TearDrop*
G04 Layer Configs: 1,15,16,2,3,4,5,6,7,8,9,10,11,13,14,56*
G04 Copper Areas: 0*
%FSLAX45Y45*%
%MOMM*%
%AMRoundRect*1,1,$1,$2,$3*1,1,$1,$4,$5*1,1,$1,0-$2,0-$3*1,1,$1,0-$4,0-$5*20,1,$1,$2,$3,$4,$5,0*20,1,$1,$4,$5,0-$2,0-$3,0*20,1,$1,0-$2,0-$3,0-$4,0-$5,0*20,1,$1,0-$4,0-$5,$2,$3,0*4,1,4,$2,$3,$4,$5,0-$2,0-$3,0-$4,0-$5,$2,$3,0*%
%ADD10C,2.10002*%
%ADD11C,1.62403*%
%ADD12C,2.89999*%
%ADD13C,2.4*%
%ADD14C,1.7016*%
%ADD15RoundRect,0.1072X-0.8X-0.8X-0.8X0.8*%
%ADD16RoundRect,0.1016X-0.8X-0.8X-0.8X0.8*%
%ADD17C,1.4016*%
%ADD18C,3.60159*%
%ADD19C,2.1016*%
%ADD20C,3.4036*%
%ADD21RoundRect,0.1016X-0.8X-0.7X-0.8X0.7*%
G75*


G04 Pad Start*
G54D10*
G01X5025997Y-581900D03*
G01X1826003Y-581900D03*
G54D11*
G01X1825800Y-1166100D03*
G01X2333800Y-1166100D03*
G54D12*
G01X196601Y-758501D03*
G01X196601Y-1558499D03*
G01X996599Y-1558499D03*
G01X996599Y-758501D03*
G54D13*
G01X596600Y-1158500D03*
G54D14*
G01X5086303Y-3646395D03*
G01X5086303Y-3392395D03*
G01X5086303Y-3138395D03*
G01X5086303Y-2884395D03*
G54D16*
G01X5086303Y-2630395D03*
G54D17*
G01X1204187Y-5461870D03*
G01X1204187Y-5211883D03*
G01X1204187Y-5011883D03*
G01X1204187Y-4761871D03*
G01X1054200Y-4711884D03*
G01X1054200Y-4911883D03*
G01X1054200Y-5111883D03*
G01X1054200Y-5311883D03*
G01X1054200Y-5511882D03*
G54D18*
G01X1204187Y-5768879D03*
G01X1204187Y-4454887D03*
G54D14*
G01X12209200Y-2154400D03*
G01X12209200Y-2408400D03*
G01X12209200Y-2662398D03*
G01X12209200Y-2916398D03*
G01X12209200Y-1900400D03*
G01X12209200Y-1646400D03*
G01X12209200Y-1392400D03*
G01X12209200Y-1138403D03*
G54D19*
G01X210600Y-3338400D03*
G01X210600Y-3846400D03*
G01X210600Y-2213400D03*
G01X210600Y-2721400D03*
G54D20*
G01X9000046Y-499994D03*
G01X500046Y-5499995D03*
G01X6500046Y-499994D03*
G01X9000046Y-5499994D03*
G54D14*
G01X5434000Y-3171800D03*
G01X5434000Y-3425800D03*
G01X5434000Y-3679800D03*
G01X5434000Y-3933800D03*
G01X5434000Y-4187800D03*
G01X5434000Y-4441800D03*
G01X5434000Y-4695800D03*
G54D21*
G01X5434000Y-4949800D03*
G04 Pad End*

M02*

