G04 Layer: InnerLayer2*
G04 EasyEDA Pro v3.2.149.88089769, 2026-09-19 14:29:32*
G04 Gerber Generator version 0.3*
G04 Scale: 100 percent, Rotated: No, Reflected: No*
G04 Dimensions in millimeters*
G04 Leading zeros omitted, absolute positions, 4 integers and 5 decimals*
G04 Generated by one-click*
G04 Object Configs: Pad,Via,Track,Text,Image,Dimension,BoardOutline,BoardCutout,CopperFilled,SolidRegion,FPCStiffener,Line,PlaneZone,ComponentProperty,ComponentSilkscreen,TearDrop*
G04 Layer Configs: 1,15,16,2,3,4,5,6,7,8,9,10,11,13,14,56*
G04 Copper Areas: 2*
%FSLAX45Y45*%
%MOMM*%
%ADD10C,0.2032*%
%ADD11C,2.0*%
%ADD12C,1.524*%
%ADD13C,2.79999*%
%ADD14C,2.3*%
%ADD15C,1.6*%
%ADD16R,1.6X1.6*%
%ADD17C,1.3069*%
%ADD18C,1.3*%
%ADD19C,3.49999*%
%ADD20C,3.2004*%
%ADD21R,1.6X1.4*%
%ADD22C,0.61*%
%ADD23C,0.8*%
%ADD24C,0.508*%
G75*


G04 Copper Start*
G36*
G01X4586702Y-5860940D02*
G01X4440640Y-5860940D01*
G01X4455428Y-5855086D01*
G01X4468395Y-5845879D01*
G01X4478798Y-5833850D01*
G01X4486038Y-5819690D01*
G01X4489698Y-5804213D01*
G01X4489568Y-5788310D01*
G01X4485655Y-5772895D01*
G01X4478185Y-5758855D01*
G01X4467587Y-5746997D01*
G01X4454470Y-5738004D01*
G01X4439589Y-5732393D01*
G01X4423800Y-5730486D01*
G01X4408011Y-5732393D01*
G01X4393130Y-5738004D01*
G01X4380013Y-5746997D01*
G01X4369415Y-5758855D01*
G01X4361944Y-5772895D01*
G01X4358032Y-5788310D01*
G01X4357901Y-5804213D01*
G01X4361562Y-5819690D01*
G01X4368801Y-5833850D01*
G01X4379204Y-5845879D01*
G01X4392172Y-5855086D01*
G01X4406959Y-5860940D01*
G01X1497660Y-5860940D01*
G01X1497660Y-5773827D01*
G01X2747255Y-5773827D01*
G01X2747717Y-5789621D01*
G01X2751902Y-5804858D01*
G01X2759574Y-5818672D01*
G01X2770295Y-5830279D01*
G01X2783458Y-5839020D01*
G01X2798315Y-5844399D01*
G01X2814023Y-5846110D01*
G01X2829690Y-5844057D01*
G01X2844427Y-5838355D01*
G01X2857396Y-5829329D01*
G01X2867862Y-5817490D01*
G01X2875787Y-5830697D01*
G01X2886546Y-5841718D01*
G01X2899556Y-5849961D01*
G01X2914118Y-5854980D01*
G01X2929444Y-5856504D01*
G01X2944709Y-5854452D01*
G01X2959088Y-5848934D01*
G01X2971807Y-5840247D01*
G01X2982179Y-5828861D01*
G01X2993013Y-5840147D01*
G01X3006190Y-5848581D01*
G01X3020976Y-5853693D01*
G01X3036549Y-5855198D01*
G01X3052040Y-5853014D01*
G01X3066589Y-5847261D01*
G01X3079385Y-5838260D01*
G01X3089716Y-5826511D01*
G01X3100844Y-5838172D01*
G01X3114455Y-5846804D01*
G01X3129747Y-5851897D01*
G01X3145816Y-5853150D01*
G01X3161713Y-5850490D01*
G01X3176499Y-5844073D01*
G01X3189299Y-5834278D01*
G01X3199359Y-5821685D01*
G01X3206083Y-5807037D01*
G01X3214806Y-5819347D01*
G01X3226086Y-5829366D01*
G01X3239338Y-5836577D01*
G01X3253878Y-5840606D01*
G01X3268952Y-5841244D01*
G01X3283780Y-5838458D01*
G01X3297594Y-5832392D01*
G01X3309680Y-5823361D01*
G01X3319412Y-5811832D01*
G01X3326285Y-5798401D01*
G01X3327761Y-5792500D01*
G01X3838086Y-5792500D01*
G01X3840013Y-5808370D01*
G01X3845682Y-5823318D01*
G01X3854763Y-5836474D01*
G01X3866729Y-5847075D01*
G01X3880885Y-5854505D01*
G01X3896407Y-5858331D01*
G01X3912393Y-5858331D01*
G01X3927915Y-5854505D01*
G01X3942071Y-5847075D01*
G01X3954037Y-5836474D01*
G01X3963118Y-5823318D01*
G01X3968787Y-5808370D01*
G01X3970714Y-5792500D01*
G01X3970629Y-5791800D01*
G01X3988886Y-5791800D01*
G01X3990813Y-5807670D01*
G01X3996482Y-5822618D01*
G01X4005563Y-5835774D01*
G01X4017529Y-5846375D01*
G01X4031685Y-5853805D01*
G01X4047207Y-5857631D01*
G01X4063193Y-5857631D01*
G01X4078715Y-5853805D01*
G01X4092871Y-5846375D01*
G01X4104837Y-5835774D01*
G01X4113918Y-5822618D01*
G01X4119587Y-5807670D01*
G01X4121356Y-5793100D01*
G01X4155486Y-5793100D01*
G01X4157413Y-5808970D01*
G01X4163082Y-5823918D01*
G01X4172163Y-5837074D01*
G01X4184129Y-5847675D01*
G01X4198285Y-5855105D01*
G01X4213807Y-5858930D01*
G01X4229793Y-5858930D01*
G01X4245315Y-5855105D01*
G01X4259471Y-5847675D01*
G01X4271437Y-5837074D01*
G01X4280518Y-5823918D01*
G01X4286187Y-5808970D01*
G01X4288114Y-5793100D01*
G01X4286187Y-5777230D01*
G01X4280518Y-5762282D01*
G01X4271437Y-5749126D01*
G01X4259471Y-5738525D01*
G01X4245315Y-5731095D01*
G01X4229793Y-5727269D01*
G01X4213807Y-5727269D01*
G01X4198285Y-5731095D01*
G01X4184129Y-5738525D01*
G01X4172163Y-5749126D01*
G01X4163082Y-5762282D01*
G01X4157413Y-5777230D01*
G01X4155486Y-5793100D01*
G01X4155486Y-5793100D01*
G01X4121356Y-5793100D01*
G01X4121514Y-5791800D01*
G01X4119587Y-5775930D01*
G01X4113918Y-5760982D01*
G01X4104837Y-5747826D01*
G01X4092871Y-5737225D01*
G01X4078715Y-5729795D01*
G01X4063193Y-5725969D01*
G01X4047207Y-5725969D01*
G01X4031685Y-5729795D01*
G01X4017529Y-5737225D01*
G01X4005563Y-5747826D01*
G01X3996482Y-5760982D01*
G01X3990813Y-5775930D01*
G01X3988886Y-5791800D01*
G01X3988886Y-5791800D01*
G01X3970629Y-5791800D01*
G01X3968787Y-5776630D01*
G01X3963118Y-5761682D01*
G01X3954037Y-5748526D01*
G01X3942071Y-5737925D01*
G01X3927915Y-5730495D01*
G01X3912393Y-5726669D01*
G01X3896407Y-5726669D01*
G01X3880885Y-5730495D01*
G01X3866729Y-5737925D01*
G01X3854763Y-5748526D01*
G01X3845682Y-5761682D01*
G01X3840013Y-5776630D01*
G01X3838086Y-5792500D01*
G01X3838086Y-5792500D01*
G01X3327761Y-5792500D01*
G01X3329946Y-5783764D01*
G01X3330202Y-5768679D01*
G01X3327043Y-5753926D01*
G01X3320630Y-5740270D01*
G01X3311297Y-5728416D01*
G01X3299526Y-5718978D01*
G01X3285926Y-5712446D01*
G01X3271201Y-5709157D01*
G01X3256114Y-5709281D01*
G01X3241446Y-5712812D01*
G01X3227956Y-5719567D01*
G01X3216341Y-5729197D01*
G01X3207204Y-5741203D01*
G01X3201017Y-5754963D01*
G01X3192373Y-5742741D01*
G01X3181207Y-5732770D01*
G01X3168090Y-5725556D01*
G01X3153688Y-5721469D01*
G01X3138737Y-5720717D01*
G01X3123998Y-5723337D01*
G01X3110222Y-5729196D01*
G01X3098112Y-5737996D01*
G01X3088284Y-5749289D01*
G01X3077605Y-5737999D01*
G01X3064592Y-5729505D01*
G01X3049960Y-5724272D01*
G01X3034511Y-5722589D01*
G01X3019095Y-5724546D01*
G01X3004558Y-5730038D01*
G01X2991698Y-5738762D01*
G01X2981222Y-5750239D01*
G01X2970396Y-5738961D01*
G01X2957232Y-5730530D01*
G01X2942459Y-5725415D01*
G01X2926900Y-5723901D01*
G01X2911418Y-5726071D01*
G01X2896875Y-5731805D01*
G01X2884078Y-5740784D01*
G01X2873738Y-5752510D01*
G01X2873738Y-5752510D01*
G01X2865566Y-5738986D01*
G01X2854427Y-5727779D01*
G01X2840952Y-5719526D01*
G01X2825908Y-5714695D01*
G01X2810148Y-5713561D01*
G01X2794567Y-5716187D01*
G01X2780049Y-5722425D01*
G01X2767419Y-5731920D01*
G01X2757394Y-5744134D01*
G01X2750543Y-5758372D01*
G01X2747255Y-5773827D01*
G01X1497660Y-5773827D01*
G01X1497660Y-5682264D01*
G01X3315362Y-5682264D01*
G01X3315403Y-5698462D01*
G01X3319368Y-5714166D01*
G01X3327022Y-5728441D01*
G01X3337909Y-5740434D01*
G01X3337909Y-5740434D01*
G01X3351378Y-5749430D01*
G01X3366626Y-5754893D01*
G01X3382744Y-5756496D01*
G01X3398770Y-5754144D01*
G01X3413747Y-5747977D01*
G01X3426783Y-5738364D01*
G01X3437099Y-5725877D01*
G01X3444081Y-5711261D01*
G01X3447311Y-5695389D01*
G01X3446597Y-5679208D01*
G01X3441981Y-5663682D01*
G01X3433739Y-5649738D01*
G01X3448747Y-5655831D01*
G01X3464784Y-5658103D01*
G01X3480894Y-5656420D01*
G01X3496115Y-5650882D01*
G01X3509539Y-5641819D01*
G01X3520366Y-5629772D01*
G01X3527950Y-5615459D01*
G01X3531837Y-5599736D01*
G01X3531819Y-5592400D01*
G01X3832886Y-5592400D01*
G01X3834813Y-5608270D01*
G01X3840482Y-5623218D01*
G01X3849563Y-5636374D01*
G01X3861529Y-5646975D01*
G01X3875685Y-5654405D01*
G01X3891207Y-5658231D01*
G01X3907193Y-5658231D01*
G01X3922715Y-5654405D01*
G01X3936871Y-5646975D01*
G01X3948837Y-5636374D01*
G01X3957918Y-5623218D01*
G01X3963587Y-5608270D01*
G01X3965514Y-5592400D01*
G01X3965150Y-5589400D01*
G01X3986886Y-5589400D01*
G01X3988813Y-5605270D01*
G01X3994482Y-5620218D01*
G01X4003563Y-5633374D01*
G01X4015529Y-5643975D01*
G01X4029685Y-5651405D01*
G01X4045207Y-5655231D01*
G01X4061193Y-5655231D01*
G01X4076715Y-5651405D01*
G01X4090871Y-5643975D01*
G01X4102837Y-5633374D01*
G01X4111918Y-5620218D01*
G01X4117587Y-5605270D01*
G01X4119125Y-5592600D01*
G01X4157386Y-5592600D01*
G01X4159313Y-5608470D01*
G01X4164982Y-5623418D01*
G01X4174063Y-5636574D01*
G01X4186029Y-5647175D01*
G01X4200185Y-5654605D01*
G01X4215707Y-5658431D01*
G01X4231693Y-5658431D01*
G01X4247215Y-5654605D01*
G01X4261371Y-5647175D01*
G01X4273337Y-5636574D01*
G01X4282418Y-5623418D01*
G01X4288087Y-5608470D01*
G01X4289783Y-5594500D01*
G01X4354786Y-5594500D01*
G01X4356713Y-5610370D01*
G01X4362382Y-5625318D01*
G01X4371463Y-5638474D01*
G01X4383429Y-5649076D01*
G01X4397585Y-5656505D01*
G01X4413107Y-5660331D01*
G01X4429093Y-5660331D01*
G01X4444615Y-5656505D01*
G01X4458771Y-5649076D01*
G01X4470737Y-5638474D01*
G01X4479818Y-5625318D01*
G01X4485487Y-5610370D01*
G01X4486844Y-5599200D01*
G01X4544986Y-5599200D01*
G01X4546913Y-5615070D01*
G01X4552582Y-5630018D01*
G01X4561663Y-5643174D01*
G01X4573629Y-5653775D01*
G01X4587785Y-5661205D01*
G01X4603307Y-5665030D01*
G01X4619293Y-5665030D01*
G01X4634815Y-5661205D01*
G01X4648971Y-5653775D01*
G01X4660937Y-5643174D01*
G01X4670018Y-5630018D01*
G01X4675687Y-5615070D01*
G01X4677517Y-5600000D01*
G01X4731886Y-5600000D01*
G01X4733813Y-5615870D01*
G01X4739482Y-5630818D01*
G01X4748563Y-5643974D01*
G01X4760529Y-5654575D01*
G01X4774685Y-5662005D01*
G01X4790207Y-5665831D01*
G01X4806193Y-5665831D01*
G01X4821715Y-5662005D01*
G01X4835871Y-5654575D01*
G01X4847837Y-5643974D01*
G01X4856918Y-5630818D01*
G01X4862587Y-5615870D01*
G01X4864514Y-5600000D01*
G01X4862587Y-5584130D01*
G01X4856918Y-5569182D01*
G01X4847837Y-5556026D01*
G01X4835871Y-5545425D01*
G01X4821715Y-5537995D01*
G01X4806193Y-5534169D01*
G01X4790207Y-5534169D01*
G01X4774685Y-5537995D01*
G01X4760529Y-5545425D01*
G01X4748563Y-5556026D01*
G01X4739482Y-5569182D01*
G01X4733813Y-5584130D01*
G01X4731886Y-5600000D01*
G01X4731886Y-5600000D01*
G01X4677517Y-5600000D01*
G01X4677614Y-5599200D01*
G01X4675687Y-5583330D01*
G01X4670018Y-5568382D01*
G01X4660937Y-5555226D01*
G01X4648971Y-5544624D01*
G01X4634815Y-5537195D01*
G01X4619293Y-5533369D01*
G01X4603307Y-5533369D01*
G01X4587785Y-5537195D01*
G01X4573629Y-5544624D01*
G01X4561663Y-5555226D01*
G01X4552582Y-5568382D01*
G01X4546913Y-5583330D01*
G01X4544986Y-5599200D01*
G01X4544986Y-5599200D01*
G01X4486844Y-5599200D01*
G01X4487414Y-5594500D01*
G01X4485487Y-5578630D01*
G01X4479818Y-5563682D01*
G01X4470737Y-5550526D01*
G01X4458771Y-5539925D01*
G01X4444615Y-5532495D01*
G01X4429093Y-5528670D01*
G01X4413107Y-5528670D01*
G01X4397585Y-5532495D01*
G01X4383429Y-5539925D01*
G01X4371463Y-5550526D01*
G01X4362382Y-5563682D01*
G01X4356713Y-5578630D01*
G01X4354786Y-5594500D01*
G01X4354786Y-5594500D01*
G01X4289783Y-5594500D01*
G01X4290014Y-5592600D01*
G01X4288087Y-5576730D01*
G01X4282418Y-5561782D01*
G01X4273337Y-5548626D01*
G01X4261371Y-5538025D01*
G01X4247215Y-5530595D01*
G01X4231693Y-5526769D01*
G01X4215707Y-5526769D01*
G01X4200185Y-5530595D01*
G01X4186029Y-5538025D01*
G01X4174063Y-5548626D01*
G01X4164982Y-5561782D01*
G01X4159313Y-5576730D01*
G01X4157386Y-5592600D01*
G01X4157386Y-5592600D01*
G01X4119125Y-5592600D01*
G01X4119514Y-5589400D01*
G01X4117587Y-5573530D01*
G01X4111918Y-5558582D01*
G01X4102837Y-5545426D01*
G01X4090871Y-5534825D01*
G01X4076715Y-5527395D01*
G01X4061193Y-5523569D01*
G01X4045207Y-5523569D01*
G01X4029685Y-5527395D01*
G01X4015529Y-5534825D01*
G01X4003563Y-5545426D01*
G01X3994482Y-5558582D01*
G01X3988813Y-5573530D01*
G01X3986886Y-5589400D01*
G01X3986886Y-5589400D01*
G01X3965150Y-5589400D01*
G01X3963587Y-5576530D01*
G01X3957918Y-5561582D01*
G01X3948837Y-5548426D01*
G01X3936871Y-5537825D01*
G01X3922715Y-5530395D01*
G01X3907193Y-5526569D01*
G01X3891207Y-5526569D01*
G01X3875685Y-5530395D01*
G01X3861529Y-5537825D01*
G01X3849563Y-5548426D01*
G01X3840482Y-5561582D01*
G01X3834813Y-5576530D01*
G01X3832886Y-5592400D01*
G01X3832886Y-5592400D01*
G01X3531819Y-5592400D01*
G01X3531797Y-5583538D01*
G01X3527832Y-5567834D01*
G01X3520177Y-5553559D01*
G01X3509291Y-5541566D01*
G01X3495822Y-5532570D01*
G01X3480573Y-5527107D01*
G01X3464456Y-5525504D01*
G01X3448430Y-5527856D01*
G01X3433453Y-5534023D01*
G01X3420417Y-5543636D01*
G01X3410101Y-5556123D01*
G01X3403119Y-5570739D01*
G01X3399889Y-5586611D01*
G01X3400603Y-5602792D01*
G01X3405219Y-5618318D01*
G01X3413460Y-5632262D01*
G01X3398453Y-5626169D01*
G01X3382416Y-5623897D01*
G01X3366306Y-5625580D01*
G01X3351085Y-5631118D01*
G01X3337660Y-5640181D01*
G01X3326834Y-5652228D01*
G01X3319250Y-5666541D01*
G01X3315362Y-5682264D01*
G01X1497660Y-5682264D01*
G01X1497660Y-5338034D01*
G01X1643769Y-5338034D01*
G01X1644919Y-5353509D01*
G01X1649634Y-5368293D01*
G01X1657656Y-5381577D01*
G01X1668545Y-5392632D01*
G01X1681705Y-5400855D01*
G01X1696415Y-5405794D01*
G01X1711871Y-5407179D01*
G01X1727226Y-5404934D01*
G01X1741638Y-5399183D01*
G01X1754319Y-5390239D01*
G01X1764575Y-5378593D01*
G01X1771843Y-5364883D01*
G01X1777905Y-5379168D01*
G01X1787120Y-5391653D01*
G01X1798984Y-5401655D01*
G01X1812848Y-5408625D01*
G01X1827952Y-5412183D01*
G01X1843470Y-5412133D01*
G01X1858551Y-5408479D01*
G01X1872370Y-5401419D01*
G01X1872861Y-5401000D01*
G01X2217886Y-5401000D01*
G01X2219790Y-5416779D01*
G01X2225394Y-5431651D01*
G01X2234376Y-5444762D01*
G01X2246219Y-5455360D01*
G01X2260244Y-5462836D01*
G01X2275645Y-5466760D01*
G01X2291538Y-5466907D01*
G01X2307008Y-5463268D01*
G01X2321169Y-5456053D01*
G01X2333206Y-5445676D01*
G01X2342429Y-5432732D01*
G01X2348307Y-5417966D01*
G01X2354185Y-5432732D01*
G01X2363407Y-5445676D01*
G01X2375445Y-5456053D01*
G01X2389605Y-5463268D01*
G01X2405076Y-5466907D01*
G01X2420968Y-5466760D01*
G01X2436369Y-5462836D01*
G01X2450394Y-5455360D01*
G01X2462238Y-5444762D01*
G01X2471219Y-5431651D01*
G01X2473311Y-5426100D01*
G01X2477486Y-5426100D01*
G01X2479413Y-5441970D01*
G01X2485082Y-5456918D01*
G01X2494163Y-5470074D01*
G01X2506129Y-5480675D01*
G01X2520285Y-5488105D01*
G01X2535807Y-5491930D01*
G01X2551793Y-5491930D01*
G01X2567315Y-5488105D01*
G01X2581471Y-5480675D01*
G01X2593437Y-5470074D01*
G01X2602518Y-5456918D01*
G01X2608187Y-5441970D01*
G01X2609762Y-5429000D01*
G01X4358186Y-5429000D01*
G01X4360113Y-5444870D01*
G01X4365782Y-5459818D01*
G01X4374863Y-5472974D01*
G01X4386829Y-5483575D01*
G01X4400985Y-5491005D01*
G01X4416507Y-5494831D01*
G01X4432493Y-5494831D01*
G01X4448015Y-5491005D01*
G01X4462171Y-5483575D01*
G01X4474137Y-5472974D01*
G01X4483218Y-5459818D01*
G01X4488887Y-5444870D01*
G01X4490814Y-5429000D01*
G01X4490753Y-5428500D01*
G01X4537086Y-5428500D01*
G01X4539013Y-5444370D01*
G01X4544682Y-5459318D01*
G01X4553763Y-5472474D01*
G01X4565729Y-5483075D01*
G01X4579885Y-5490505D01*
G01X4595407Y-5494330D01*
G01X4611393Y-5494330D01*
G01X4626915Y-5490505D01*
G01X4641071Y-5483075D01*
G01X4653037Y-5472474D01*
G01X4662118Y-5459318D01*
G01X4667787Y-5444370D01*
G01X4669325Y-5431700D01*
G01X4729986Y-5431700D01*
G01X4731913Y-5447570D01*
G01X4737582Y-5462518D01*
G01X4746663Y-5475674D01*
G01X4758629Y-5486275D01*
G01X4772785Y-5493705D01*
G01X4788307Y-5497531D01*
G01X4804293Y-5497531D01*
G01X4819815Y-5493705D01*
G01X4833971Y-5486275D01*
G01X4845937Y-5475674D01*
G01X4855018Y-5462518D01*
G01X4860687Y-5447570D01*
G01X4862614Y-5431700D01*
G01X4860687Y-5415830D01*
G01X4855018Y-5400882D01*
G01X4845937Y-5387726D01*
G01X4833971Y-5377125D01*
G01X4819815Y-5369695D01*
G01X4804293Y-5365870D01*
G01X4788307Y-5365870D01*
G01X4772785Y-5369695D01*
G01X4758629Y-5377125D01*
G01X4746663Y-5387726D01*
G01X4737582Y-5400882D01*
G01X4731913Y-5415830D01*
G01X4729986Y-5431700D01*
G01X4729986Y-5431700D01*
G01X4669325Y-5431700D01*
G01X4669714Y-5428500D01*
G01X4667787Y-5412630D01*
G01X4662118Y-5397682D01*
G01X4653037Y-5384526D01*
G01X4641071Y-5373925D01*
G01X4626915Y-5366495D01*
G01X4611393Y-5362669D01*
G01X4595407Y-5362669D01*
G01X4579885Y-5366495D01*
G01X4565729Y-5373925D01*
G01X4553763Y-5384526D01*
G01X4544682Y-5397682D01*
G01X4539013Y-5412630D01*
G01X4537086Y-5428500D01*
G01X4537086Y-5428500D01*
G01X4490753Y-5428500D01*
G01X4488887Y-5413130D01*
G01X4483218Y-5398182D01*
G01X4474137Y-5385026D01*
G01X4462171Y-5374425D01*
G01X4448015Y-5366995D01*
G01X4432493Y-5363170D01*
G01X4416507Y-5363170D01*
G01X4400985Y-5366995D01*
G01X4386829Y-5374425D01*
G01X4374863Y-5385026D01*
G01X4365782Y-5398182D01*
G01X4360113Y-5413130D01*
G01X4358186Y-5429000D01*
G01X4358186Y-5429000D01*
G01X2609762Y-5429000D01*
G01X2610114Y-5426100D01*
G01X2608187Y-5410230D01*
G01X2602518Y-5395282D01*
G01X2593437Y-5382126D01*
G01X2581471Y-5371524D01*
G01X2567315Y-5364095D01*
G01X2551793Y-5360269D01*
G01X2535807Y-5360269D01*
G01X2520285Y-5364095D01*
G01X2506129Y-5371524D01*
G01X2494163Y-5382126D01*
G01X2485082Y-5395282D01*
G01X2479413Y-5410230D01*
G01X2477486Y-5426100D01*
G01X2477486Y-5426100D01*
G01X2473311Y-5426100D01*
G01X2476823Y-5416779D01*
G01X2478728Y-5401000D01*
G01X2476823Y-5385222D01*
G01X2471219Y-5370350D01*
G01X2462238Y-5357238D01*
G01X2450394Y-5346640D01*
G01X2436369Y-5339164D01*
G01X2420968Y-5335240D01*
G01X2405076Y-5335093D01*
G01X2389605Y-5338732D01*
G01X2375445Y-5345947D01*
G01X2363407Y-5356324D01*
G01X2354185Y-5369268D01*
G01X2348307Y-5384034D01*
G01X2342429Y-5369268D01*
G01X2333206Y-5356324D01*
G01X2321169Y-5345947D01*
G01X2307008Y-5338732D01*
G01X2291538Y-5335093D01*
G01X2275645Y-5335240D01*
G01X2260244Y-5339164D01*
G01X2246219Y-5346640D01*
G01X2234376Y-5357238D01*
G01X2225394Y-5370350D01*
G01X2219790Y-5385222D01*
G01X2217886Y-5401000D01*
G01X2217886Y-5401000D01*
G01X1872861Y-5401000D01*
G01X1884170Y-5391342D01*
G01X1893305Y-5378798D01*
G01X1899275Y-5364475D01*
G01X1901753Y-5349156D01*
G01X1900602Y-5333681D01*
G01X1895887Y-5318897D01*
G01X1887866Y-5305614D01*
G01X1876977Y-5294558D01*
G01X1863817Y-5286336D01*
G01X1849106Y-5281397D01*
G01X1835752Y-5280200D01*
G01X3833586Y-5280200D01*
G01X3835513Y-5296070D01*
G01X3841182Y-5311018D01*
G01X3850263Y-5324174D01*
G01X3862229Y-5334775D01*
G01X3876385Y-5342205D01*
G01X3891907Y-5346031D01*
G01X3907893Y-5346031D01*
G01X3923415Y-5342205D01*
G01X3937571Y-5334775D01*
G01X3949537Y-5324174D01*
G01X3958618Y-5311018D01*
G01X3964287Y-5296070D01*
G01X3966214Y-5280200D01*
G01X3965983Y-5278300D01*
G01X3983086Y-5278300D01*
G01X3985013Y-5294170D01*
G01X3990682Y-5309118D01*
G01X3999763Y-5322274D01*
G01X4011729Y-5332875D01*
G01X4025885Y-5340305D01*
G01X4041407Y-5344131D01*
G01X4057393Y-5344131D01*
G01X4072915Y-5340305D01*
G01X4087071Y-5332875D01*
G01X4099037Y-5322274D01*
G01X4108118Y-5309118D01*
G01X4113787Y-5294170D01*
G01X4115714Y-5278300D01*
G01X4113787Y-5262430D01*
G01X4108118Y-5247482D01*
G01X4099037Y-5234326D01*
G01X4087071Y-5223725D01*
G01X4072915Y-5216295D01*
G01X4057393Y-5212470D01*
G01X4041407Y-5212470D01*
G01X4025885Y-5216295D01*
G01X4011729Y-5223725D01*
G01X3999763Y-5234326D01*
G01X3990682Y-5247482D01*
G01X3985013Y-5262430D01*
G01X3983086Y-5278300D01*
G01X3983086Y-5278300D01*
G01X3965983Y-5278300D01*
G01X3964287Y-5264330D01*
G01X3958618Y-5249382D01*
G01X3949537Y-5236226D01*
G01X3937571Y-5225625D01*
G01X3923415Y-5218195D01*
G01X3907893Y-5214369D01*
G01X3891907Y-5214369D01*
G01X3876385Y-5218195D01*
G01X3862229Y-5225625D01*
G01X3850263Y-5236226D01*
G01X3841182Y-5249382D01*
G01X3835513Y-5264330D01*
G01X3833586Y-5280200D01*
G01X3833586Y-5280200D01*
G01X1835752Y-5280200D01*
G01X1833650Y-5280012D01*
G01X1818296Y-5282256D01*
G01X1803884Y-5288008D01*
G01X1791202Y-5296951D01*
G01X1780947Y-5308597D01*
G01X1773678Y-5322307D01*
G01X1767617Y-5308022D01*
G01X1758402Y-5295537D01*
G01X1746537Y-5285536D01*
G01X1732673Y-5278565D01*
G01X1717569Y-5275007D01*
G01X1702052Y-5275057D01*
G01X1686970Y-5278712D01*
G01X1673151Y-5285771D01*
G01X1661351Y-5295849D01*
G01X1652216Y-5308392D01*
G01X1646247Y-5322716D01*
G01X1643769Y-5338034D01*
G01X1643769Y-5338034D01*
G01X1497660Y-5338034D01*
G01X1497660Y-5072600D01*
G01X1609486Y-5072600D01*
G01X1611413Y-5088470D01*
G01X1617082Y-5103418D01*
G01X1626163Y-5116574D01*
G01X1638129Y-5127175D01*
G01X1652285Y-5134605D01*
G01X1667807Y-5138431D01*
G01X1683793Y-5138431D01*
G01X1699315Y-5134605D01*
G01X1713471Y-5127175D01*
G01X1725437Y-5116574D01*
G01X1734518Y-5103418D01*
G01X1740187Y-5088470D01*
G01X1742114Y-5072600D01*
G01X1740187Y-5056730D01*
G01X1734518Y-5041782D01*
G01X1725437Y-5028626D01*
G01X1713471Y-5018025D01*
G01X1699315Y-5010595D01*
G01X1683793Y-5006769D01*
G01X1667807Y-5006769D01*
G01X1652285Y-5010595D01*
G01X1638129Y-5018025D01*
G01X1626163Y-5028626D01*
G01X1617082Y-5041782D01*
G01X1611413Y-5056730D01*
G01X1609486Y-5072600D01*
G01X1609486Y-5072600D01*
G01X1497660Y-5072600D01*
G01X1497660Y-4882849D01*
G01X1610286Y-4882849D01*
G01X1612213Y-4898719D01*
G01X1617882Y-4913667D01*
G01X1626963Y-4926823D01*
G01X1638929Y-4937424D01*
G01X1653085Y-4944854D01*
G01X1668607Y-4948680D01*
G01X1684593Y-4948680D01*
G01X1700115Y-4944854D01*
G01X1714271Y-4937424D01*
G01X1726237Y-4926823D01*
G01X1735318Y-4913667D01*
G01X1740987Y-4898719D01*
G01X1742914Y-4882849D01*
G01X1740987Y-4866979D01*
G01X1735318Y-4852031D01*
G01X1726237Y-4838875D01*
G01X1714271Y-4828274D01*
G01X1700115Y-4820844D01*
G01X1684593Y-4817018D01*
G01X1668607Y-4817018D01*
G01X1653085Y-4820844D01*
G01X1638929Y-4828274D01*
G01X1626963Y-4838875D01*
G01X1617882Y-4852031D01*
G01X1612213Y-4866979D01*
G01X1610286Y-4882849D01*
G01X1610286Y-4882849D01*
G01X1497660Y-4882849D01*
G01X1497660Y-4880791D01*
G01X2057247Y-4321204D01*
G01X2060727Y-4335394D01*
G01X2067230Y-4348478D01*
G01X2076440Y-4359820D01*
G01X2087911Y-4368870D01*
G01X2076390Y-4379023D01*
G01X2067513Y-4391554D01*
G01X2061757Y-4405790D01*
G01X2059429Y-4420969D01*
G01X2060655Y-4436277D01*
G01X2065370Y-4450891D01*
G01X2073319Y-4464030D01*
G01X2084077Y-4474988D01*
G01X2073580Y-4484499D01*
G01X2065342Y-4496023D01*
G01X2059740Y-4509033D01*
G01X2057029Y-4522937D01*
G01X2042841Y-4518607D01*
G01X2028046Y-4517539D01*
G01X2013383Y-4519787D01*
G01X1999587Y-4525238D01*
G01X1987348Y-4533619D01*
G01X1977278Y-4544511D01*
G01X1969881Y-4557369D01*
G01X1965527Y-4571549D01*
G01X1964435Y-4586342D01*
G01X1966658Y-4601009D01*
G01X1972085Y-4614814D01*
G01X1980445Y-4627067D01*
G01X1991320Y-4637155D01*
G01X2004166Y-4644574D01*
G01X2018339Y-4648952D01*
G01X2033130Y-4650070D01*
G01X2047800Y-4647871D01*
G01X2061614Y-4642467D01*
G01X2065474Y-4653020D01*
G01X2071060Y-4662770D01*
G01X2078211Y-4671437D01*
G01X2070838Y-4678571D01*
G01X2064654Y-4686758D01*
G01X2051090Y-4680510D01*
G01X2036471Y-4677455D01*
G01X2021540Y-4677749D01*
G01X2007053Y-4681377D01*
G01X1993746Y-4688155D01*
G01X1982292Y-4697739D01*
G01X1973274Y-4709642D01*
G01X1967148Y-4723262D01*
G01X1953466Y-4726211D01*
G01X1940707Y-4731966D01*
G01X1929441Y-4740270D01*
G01X1920168Y-4750754D01*
G01X1913303Y-4762950D01*
G01X1909150Y-4776316D01*
G01X1893475Y-4779219D01*
G01X1878945Y-4785779D01*
G01X1866402Y-4795616D01*
G01X1856568Y-4808163D01*
G01X1850013Y-4822695D01*
G01X1847115Y-4838370D01*
G01X1848041Y-4854285D01*
G01X1852739Y-4869518D01*
G01X1860937Y-4883190D01*
G01X1872161Y-4894511D01*
G01X1861237Y-4905449D01*
G01X1853142Y-4918618D01*
G01X1848317Y-4933304D01*
G01X1847022Y-4948708D01*
G01X1849329Y-4963994D01*
G01X1855112Y-4978329D01*
G01X1864057Y-4990937D01*
G01X1855213Y-5003360D01*
G01X1849441Y-5017475D01*
G01X1847046Y-5032535D01*
G01X1848154Y-5047744D01*
G01X1852708Y-5062298D01*
G01X1860465Y-5075427D01*
G01X1871017Y-5086437D01*
G01X1883804Y-5094745D01*
G01X1898152Y-5099913D01*
G01X1913300Y-5101666D01*
G01X1928448Y-5099913D01*
G01X1942796Y-5094745D01*
G01X1955583Y-5086437D01*
G01X1966135Y-5075427D01*
G01X1969406Y-5069891D01*
G01X4535486Y-5069891D01*
G01X4537413Y-5085761D01*
G01X4543082Y-5100708D01*
G01X4552163Y-5113865D01*
G01X4564129Y-5124466D01*
G01X4578285Y-5131896D01*
G01X4593807Y-5135721D01*
G01X4609793Y-5135721D01*
G01X4625315Y-5131896D01*
G01X4639471Y-5124466D01*
G01X4651437Y-5113865D01*
G01X4660518Y-5100708D01*
G01X4666187Y-5085761D01*
G01X4668114Y-5069891D01*
G01X4666187Y-5054021D01*
G01X4660518Y-5039073D01*
G01X4651437Y-5025916D01*
G01X4639471Y-5015315D01*
G01X4625315Y-5007886D01*
G01X4609793Y-5004060D01*
G01X4593807Y-5004060D01*
G01X4578285Y-5007886D01*
G01X4564129Y-5015315D01*
G01X4552163Y-5025916D01*
G01X4543082Y-5039073D01*
G01X4537413Y-5054021D01*
G01X4535486Y-5069891D01*
G01X4535486Y-5069891D01*
G01X1969406Y-5069891D01*
G01X1973892Y-5062298D01*
G01X1978446Y-5047744D01*
G01X1979554Y-5032535D01*
G01X1977159Y-5017475D01*
G01X1971387Y-5003360D01*
G01X1962543Y-4990937D01*
G01X1971488Y-4978329D01*
G01X1977271Y-4963994D01*
G01X1979578Y-4948708D01*
G01X1979056Y-4942500D01*
G01X3298286Y-4942500D01*
G01X3300213Y-4958370D01*
G01X3305882Y-4973318D01*
G01X3314963Y-4986474D01*
G01X3326929Y-4997075D01*
G01X3341085Y-5004505D01*
G01X3356607Y-5008330D01*
G01X3372593Y-5008330D01*
G01X3388115Y-5004505D01*
G01X3402271Y-4997075D01*
G01X3414237Y-4986474D01*
G01X3423318Y-4973318D01*
G01X3428987Y-4958370D01*
G01X3430914Y-4942500D01*
G01X3430501Y-4939100D01*
G01X3452486Y-4939100D01*
G01X3454413Y-4954970D01*
G01X3460082Y-4969918D01*
G01X3469163Y-4983074D01*
G01X3481129Y-4993676D01*
G01X3495285Y-5001105D01*
G01X3510807Y-5004931D01*
G01X3526793Y-5004931D01*
G01X3542315Y-5001105D01*
G01X3556471Y-4993676D01*
G01X3568437Y-4983074D01*
G01X3577518Y-4969918D01*
G01X3583187Y-4954970D01*
G01X3585114Y-4939100D01*
G01X3584935Y-4937622D01*
G01X3586501Y-4937622D01*
G01X3588872Y-4953829D01*
G01X3595143Y-4968961D01*
G01X3604932Y-4982093D01*
G01X3617641Y-4992426D01*
G01X3632495Y-4999329D01*
G01X3648588Y-5002380D01*
G01X3664938Y-5001394D01*
G01X3680547Y-4996430D01*
G01X3694463Y-4987792D01*
G01X3705838Y-4976006D01*
G01X3713977Y-4961792D01*
G01X3722700Y-4975623D01*
G01X3734543Y-4986898D01*
G01X3748785Y-4994933D01*
G01X3764561Y-4999239D01*
G01X3780910Y-4999553D01*
G01X3796839Y-4995857D01*
G01X3811380Y-4988375D01*
G01X3823647Y-4977563D01*
G01X3832896Y-4964077D01*
G01X3838563Y-4948739D01*
G01X3839013Y-4944537D01*
G01X3942893Y-4944537D01*
G01X3946424Y-4959711D01*
G01X3953397Y-4973643D01*
G01X3963429Y-4985564D01*
G01X3975966Y-4994815D01*
G01X3990314Y-5000885D01*
G01X4005683Y-5003441D01*
G01X4021224Y-5002340D01*
G01X4036080Y-4997643D01*
G01X4049429Y-4989610D01*
G01X4060536Y-4978684D01*
G01X4068787Y-4965469D01*
G01X4073727Y-4950692D01*
G01X4075083Y-4935172D01*
G01X4072780Y-4919763D01*
G01X4088478Y-4921071D01*
G01X4104041Y-4918641D01*
G01X4118592Y-4912609D01*
G01X4131309Y-4903315D01*
G01X4141476Y-4891283D01*
G01X4147216Y-4879800D01*
G01X5318186Y-4879800D01*
G01X5318186Y-5019800D01*
G01X5319939Y-5030867D01*
G01X5325026Y-5040851D01*
G01X5332949Y-5048774D01*
G01X5342933Y-5053861D01*
G01X5354000Y-5055614D01*
G01X5514000Y-5055614D01*
G01X5525067Y-5053861D01*
G01X5535051Y-5048774D01*
G01X5542974Y-5040851D01*
G01X5548061Y-5030867D01*
G01X5549814Y-5019800D01*
G01X5549814Y-4879800D01*
G01X5549814Y-4879800D01*
G01X5548061Y-4868733D01*
G01X5542974Y-4858749D01*
G01X5535051Y-4850826D01*
G01X5525067Y-4845739D01*
G01X5514000Y-4843986D01*
G01X5354000Y-4843986D01*
G01X5342933Y-4845739D01*
G01X5332949Y-4850826D01*
G01X5325026Y-4858749D01*
G01X5319939Y-4868733D01*
G01X5318186Y-4879800D01*
G01X4147216Y-4879800D01*
G01X4148519Y-4877193D01*
G01X4152039Y-4861840D01*
G01X4151840Y-4846090D01*
G01X4147931Y-4830831D01*
G01X4140533Y-4816924D01*
G01X4140533Y-4816924D01*
G01X4154513Y-4822978D01*
G01X4169506Y-4825681D01*
G01X4184720Y-4824892D01*
G01X4199353Y-4820651D01*
G01X4212631Y-4813183D01*
G01X4223855Y-4802882D01*
G01X4232432Y-4790291D01*
G01X4237909Y-4776075D01*
G01X4239998Y-4760984D01*
G01X4238587Y-4745815D01*
G01X4233751Y-4731368D01*
G01X4248486Y-4735117D01*
G01X4263686Y-4735412D01*
G01X4278555Y-4732237D01*
G01X4292309Y-4725759D01*
G01X4304227Y-4716318D01*
G01X4313681Y-4704412D01*
G01X4320175Y-4690665D01*
G01X4323367Y-4675800D01*
G01X4323090Y-4660599D01*
G01X4319358Y-4645860D01*
G01X4312367Y-4632359D01*
G01X4302486Y-4620805D01*
G01X4290232Y-4611805D01*
G01X4276251Y-4605833D01*
G01X4261276Y-4603202D01*
G01X4246096Y-4604050D01*
G01X4231509Y-4608334D01*
G01X4218280Y-4615827D01*
G01X4207105Y-4626136D01*
G01X4198573Y-4638719D01*
G01X4193130Y-4652916D01*
G01X4191064Y-4667978D01*
G01X4192482Y-4683115D01*
G01X4197311Y-4697532D01*
G01X4182486Y-4693771D01*
G01X4167193Y-4693506D01*
G01X4152247Y-4696752D01*
G01X4138441Y-4703336D01*
G01X4126512Y-4712908D01*
G01X4117092Y-4724959D01*
G01X4110684Y-4738847D01*
G01X4107629Y-4753833D01*
G01X4108088Y-4769121D01*
G01X4112037Y-4783898D01*
G01X4119267Y-4797376D01*
G01X4104917Y-4791212D01*
G01X4089523Y-4788574D01*
G01X4073939Y-4789611D01*
G01X4059030Y-4794263D01*
G01X4045623Y-4802273D01*
G01X4034460Y-4813196D01*
G01X4026162Y-4826427D01*
G01X4021189Y-4841232D01*
G01X4019816Y-4856790D01*
G01X4022120Y-4872237D01*
G01X4006595Y-4870923D01*
G01X3991192Y-4873266D01*
G01X3976762Y-4879139D01*
G01X3964099Y-4888216D01*
G01X3953904Y-4899998D01*
G01X3946739Y-4913832D01*
G01X3943000Y-4928957D01*
G01X3942893Y-4944537D01*
G01X3839013Y-4944537D01*
G01X3840305Y-4932479D01*
G01X3838015Y-4916288D01*
G01X3853305Y-4915461D01*
G01X3867999Y-4911148D01*
G01X3881311Y-4903580D01*
G01X3892532Y-4893160D01*
G01X3901064Y-4880444D01*
G01X3906452Y-4866110D01*
G01X3908409Y-4850922D01*
G01X3906830Y-4835691D01*
G01X3901799Y-4821228D01*
G01X3893584Y-4808304D01*
G01X3906808Y-4816176D01*
G01X3921491Y-4820788D01*
G01X3936841Y-4821891D01*
G01X3952032Y-4819427D01*
G01X3966246Y-4813527D01*
G01X3978717Y-4804509D01*
G01X3988774Y-4792860D01*
G01X3995875Y-4779206D01*
G01X3999637Y-4764283D01*
G01X3999858Y-4748895D01*
G01X3996526Y-4733870D01*
G01X3989820Y-4720018D01*
G01X3980102Y-4708085D01*
G01X3967895Y-4698713D01*
G01X3953857Y-4692407D01*
G01X3938743Y-4689507D01*
G01X3923367Y-4690169D01*
G01X3908558Y-4694357D01*
G01X3895114Y-4701846D01*
G01X3883757Y-4712232D01*
G01X3875101Y-4724957D01*
G01X3869611Y-4739334D01*
G01X3867582Y-4754589D01*
G01X3869125Y-4769902D01*
G01X3874156Y-4784446D01*
G01X3882404Y-4797439D01*
G01X3869566Y-4789742D01*
G01X3855330Y-4785119D01*
G01X3840420Y-4783807D01*
G01X3825595Y-4785873D01*
G01X3811611Y-4791211D01*
G01X3799180Y-4799549D01*
G01X3788936Y-4810462D01*
G01X3781401Y-4823395D01*
G01X3776958Y-4837688D01*
G01X3775834Y-4852614D01*
G01X3778086Y-4867412D01*
G01X3761763Y-4868425D01*
G01X3746184Y-4873402D01*
G01X3732297Y-4882040D01*
G01X3720947Y-4893814D01*
G01X3712823Y-4908008D01*
G01X3704082Y-4894156D01*
G01X3692213Y-4882869D01*
G01X3677938Y-4874835D01*
G01X3662131Y-4870546D01*
G01X3645754Y-4870261D01*
G01X3629806Y-4874000D01*
G01X3615262Y-4881533D01*
G01X3603008Y-4892401D01*
G01X3593791Y-4905942D01*
G01X3588175Y-4921328D01*
G01X3586501Y-4937622D01*
G01X3586501Y-4937622D01*
G01X3584935Y-4937622D01*
G01X3583187Y-4923230D01*
G01X3577518Y-4908282D01*
G01X3568437Y-4895126D01*
G01X3556471Y-4884525D01*
G01X3542315Y-4877095D01*
G01X3526793Y-4873270D01*
G01X3510807Y-4873270D01*
G01X3495285Y-4877095D01*
G01X3481129Y-4884525D01*
G01X3469163Y-4895126D01*
G01X3460082Y-4908282D01*
G01X3454413Y-4923230D01*
G01X3452486Y-4939100D01*
G01X3452486Y-4939100D01*
G01X3430501Y-4939100D01*
G01X3428987Y-4926630D01*
G01X3423318Y-4911682D01*
G01X3414237Y-4898526D01*
G01X3402271Y-4887924D01*
G01X3388115Y-4880495D01*
G01X3372593Y-4876669D01*
G01X3356607Y-4876669D01*
G01X3341085Y-4880495D01*
G01X3326929Y-4887924D01*
G01X3314963Y-4898526D01*
G01X3305882Y-4911682D01*
G01X3300213Y-4926630D01*
G01X3298286Y-4942500D01*
G01X3298286Y-4942500D01*
G01X1979056Y-4942500D01*
G01X1978283Y-4933304D01*
G01X1973458Y-4918618D01*
G01X1965363Y-4905449D01*
G01X1954439Y-4894511D01*
G01X1965433Y-4883484D01*
G01X1969762Y-4876400D01*
G01X2102986Y-4876400D01*
G01X2104913Y-4892270D01*
G01X2110582Y-4907218D01*
G01X2119663Y-4920374D01*
G01X2131629Y-4930975D01*
G01X2145785Y-4938405D01*
G01X2161307Y-4942231D01*
G01X2177293Y-4942231D01*
G01X2192815Y-4938405D01*
G01X2206971Y-4930975D01*
G01X2218937Y-4920374D01*
G01X2228018Y-4907218D01*
G01X2233687Y-4892270D01*
G01X2235614Y-4876400D01*
G01X2233687Y-4860530D01*
G01X2228018Y-4845582D01*
G01X2218937Y-4832426D01*
G01X2206971Y-4821825D01*
G01X2192815Y-4814395D01*
G01X2177293Y-4810569D01*
G01X2161307Y-4810569D01*
G01X2145785Y-4814395D01*
G01X2131629Y-4821825D01*
G01X2119663Y-4832426D01*
G01X2110582Y-4845582D01*
G01X2104913Y-4860530D01*
G01X2102986Y-4876400D01*
G01X2102986Y-4876400D01*
G01X1969762Y-4876400D01*
G01X1973553Y-4870198D01*
G01X1978350Y-4855384D01*
G01X1993942Y-4852507D01*
G01X2008406Y-4846011D01*
G01X2020914Y-4836268D01*
G01X2030751Y-4823834D01*
G01X2037356Y-4809420D01*
G01X2051807Y-4806213D01*
G01X2065186Y-4799881D01*
G01X2076827Y-4790738D01*
G01X2086150Y-4779242D01*
G01X2100671Y-4785798D01*
G01X2116336Y-4788701D01*
G01X2132242Y-4787784D01*
G01X2147470Y-4783100D01*
G01X2161141Y-4774918D01*
G01X2172467Y-4763712D01*
G01X2174681Y-4760100D01*
G01X3456929Y-4760100D01*
G01X3458886Y-4776091D01*
G01X3464641Y-4791138D01*
G01X3473855Y-4804353D01*
G01X3485984Y-4814957D01*
G01X3500311Y-4822323D01*
G01X3515992Y-4826016D01*
G01X3532101Y-4825820D01*
G01X3547688Y-4821744D01*
G01X3561831Y-4814031D01*
G01X3573697Y-4803134D01*
G01X3582586Y-4789698D01*
G01X3587972Y-4774515D01*
G01X3593358Y-4789698D01*
G01X3602246Y-4803134D01*
G01X3614112Y-4814031D01*
G01X3628256Y-4821744D01*
G01X3643842Y-4825820D01*
G01X3659951Y-4826016D01*
G01X3675632Y-4822323D01*
G01X3689960Y-4814957D01*
G01X3702088Y-4804353D01*
G01X3711302Y-4791138D01*
G01X3717057Y-4776091D01*
G01X3719014Y-4760100D01*
G01X3717057Y-4744109D01*
G01X3711302Y-4729062D01*
G01X3702088Y-4715847D01*
G01X3689960Y-4705243D01*
G01X3675632Y-4697877D01*
G01X3659951Y-4694183D01*
G01X3643842Y-4694380D01*
G01X3628256Y-4698456D01*
G01X3614112Y-4706169D01*
G01X3602246Y-4717066D01*
G01X3593358Y-4730502D01*
G01X3587972Y-4745685D01*
G01X3582586Y-4730502D01*
G01X3573697Y-4717066D01*
G01X3561831Y-4706169D01*
G01X3547688Y-4698456D01*
G01X3532101Y-4694380D01*
G01X3515992Y-4694183D01*
G01X3500311Y-4697877D01*
G01X3485984Y-4705243D01*
G01X3473855Y-4715847D01*
G01X3464641Y-4729062D01*
G01X3458886Y-4744109D01*
G01X3456929Y-4760100D01*
G01X3456929Y-4760100D01*
G01X2174681Y-4760100D01*
G01X2180792Y-4750129D01*
G01X2185638Y-4734951D01*
G01X2186724Y-4719056D01*
G01X2183987Y-4703361D01*
G01X2177585Y-4688771D01*
G01X2167889Y-4676129D01*
G01X2179042Y-4664310D01*
G01X2186987Y-4650133D01*
G01X2191244Y-4634450D01*
G01X2191560Y-4618202D01*
G01X2187914Y-4602365D01*
G01X2180526Y-4587891D01*
G01X2169839Y-4575648D01*
G01X2178623Y-4564865D01*
G01X2184964Y-4552487D01*
G01X2185595Y-4550147D01*
G01X2720242Y-4550147D01*
G01X2721032Y-4565864D01*
G01X2725504Y-4580952D01*
G01X2733404Y-4594562D01*
G01X2744289Y-4605927D01*
G01X2757546Y-4614408D01*
G01X2772427Y-4619525D01*
G01X2788096Y-4620992D01*
G01X2803669Y-4618726D01*
G01X2801507Y-4633921D01*
G01X2802897Y-4649207D01*
G01X2807763Y-4663763D01*
G01X2815846Y-4676810D01*
G01X2826711Y-4687651D01*
G01X2839777Y-4695702D01*
G01X2839777Y-4695702D01*
G01X2854345Y-4700535D01*
G01X2869633Y-4701889D01*
G01X2884823Y-4699692D01*
G01X2899102Y-4694062D01*
G01X2911703Y-4685300D01*
G01X2921953Y-4673876D01*
G01X2932143Y-4685247D01*
G01X2944664Y-4693987D01*
G01X2958853Y-4699630D01*
G01X2973956Y-4701879D01*
G01X2989173Y-4700614D01*
G01X3003697Y-4695902D01*
G01X3016758Y-4687992D01*
G01X3027664Y-4677305D01*
G01X3035836Y-4664406D01*
G01X3040842Y-4649980D01*
G01X3045946Y-4664611D01*
G01X3054306Y-4677657D01*
G01X3065466Y-4688407D01*
G01X3078815Y-4696274D01*
G01X3093626Y-4700828D01*
G01X3109089Y-4701821D01*
G01X3124360Y-4699199D01*
G01X3138606Y-4693104D01*
G01X3151787Y-4698874D01*
G01X3165903Y-4701666D01*
G01X3180288Y-4701347D01*
G01X3194266Y-4697933D01*
G01X3207179Y-4691584D01*
G01X3218418Y-4682599D01*
G01X3227454Y-4671402D01*
G01X3233863Y-4658519D01*
G01X3237341Y-4644557D01*
G01X3237727Y-4630173D01*
G01X3237481Y-4628900D01*
G01X3696286Y-4628900D01*
G01X3698213Y-4644770D01*
G01X3703882Y-4659718D01*
G01X3712963Y-4672874D01*
G01X3724929Y-4683475D01*
G01X3739085Y-4690905D01*
G01X3754607Y-4694731D01*
G01X3770593Y-4694731D01*
G01X3786115Y-4690905D01*
G01X3800271Y-4683475D01*
G01X3812237Y-4672874D01*
G01X3814635Y-4669400D01*
G01X3973486Y-4669400D01*
G01X3975413Y-4685270D01*
G01X3981082Y-4700218D01*
G01X3990163Y-4713374D01*
G01X4002129Y-4723976D01*
G01X4016285Y-4731405D01*
G01X4031807Y-4735231D01*
G01X4047793Y-4735231D01*
G01X4063315Y-4731405D01*
G01X4077471Y-4723976D01*
G01X4089437Y-4713374D01*
G01X4098518Y-4700218D01*
G01X4104187Y-4685270D01*
G01X4106114Y-4669400D01*
G01X4104187Y-4653530D01*
G01X4098518Y-4638582D01*
G01X4089437Y-4625426D01*
G01X4077471Y-4614825D01*
G01X4063315Y-4607395D01*
G01X4047793Y-4603570D01*
G01X4031807Y-4603570D01*
G01X4016285Y-4607395D01*
G01X4002129Y-4614825D01*
G01X3990163Y-4625426D01*
G01X3981082Y-4638582D01*
G01X3975413Y-4653530D01*
G01X3973486Y-4669400D01*
G01X3973486Y-4669400D01*
G01X3814635Y-4669400D01*
G01X3821318Y-4659718D01*
G01X3826987Y-4644770D01*
G01X3828914Y-4628900D01*
G01X3826987Y-4613030D01*
G01X3821318Y-4598082D01*
G01X3812237Y-4584926D01*
G01X3800271Y-4574325D01*
G01X3786115Y-4566895D01*
G01X3770593Y-4563070D01*
G01X3754607Y-4563070D01*
G01X3739085Y-4566895D01*
G01X3724929Y-4574325D01*
G01X3712963Y-4584926D01*
G01X3703882Y-4598082D01*
G01X3698213Y-4613030D01*
G01X3696286Y-4628900D01*
G01X3696286Y-4628900D01*
G01X3237481Y-4628900D01*
G01X3235000Y-4616045D01*
G01X3229290Y-4602837D01*
G01X3220866Y-4591172D01*
G01X3210124Y-4581599D01*
G01X3197570Y-4574568D01*
G01X3183795Y-4570410D01*
G01X3197674Y-4565637D01*
G01X3207940Y-4559300D01*
G01X3236886Y-4559300D01*
G01X3238813Y-4575170D01*
G01X3244482Y-4590118D01*
G01X3253563Y-4603274D01*
G01X3265529Y-4613875D01*
G01X3279685Y-4621305D01*
G01X3295207Y-4625131D01*
G01X3311193Y-4625131D01*
G01X3326715Y-4621305D01*
G01X3340871Y-4613875D01*
G01X3352837Y-4603274D01*
G01X3361918Y-4590118D01*
G01X3367587Y-4575170D01*
G01X3369514Y-4559300D01*
G01X3368664Y-4552300D01*
G01X4428286Y-4552300D01*
G01X4430213Y-4568170D01*
G01X4435882Y-4583118D01*
G01X4444963Y-4596274D01*
G01X4456929Y-4606875D01*
G01X4471085Y-4614305D01*
G01X4486607Y-4618131D01*
G01X4502593Y-4618131D01*
G01X4518115Y-4614305D01*
G01X4532271Y-4606875D01*
G01X4544237Y-4596274D01*
G01X4553318Y-4583118D01*
G01X4558987Y-4568170D01*
G01X4560914Y-4552300D01*
G01X4558987Y-4536430D01*
G01X4553318Y-4521482D01*
G01X4544237Y-4508326D01*
G01X4532271Y-4497725D01*
G01X4518115Y-4490295D01*
G01X4502593Y-4486469D01*
G01X4486607Y-4486469D01*
G01X4471085Y-4490295D01*
G01X4456929Y-4497725D01*
G01X4444963Y-4508326D01*
G01X4435882Y-4521482D01*
G01X4430213Y-4536430D01*
G01X4428286Y-4552300D01*
G01X4428286Y-4552300D01*
G01X3368664Y-4552300D01*
G01X3367587Y-4543430D01*
G01X3361918Y-4528482D01*
G01X3352837Y-4515326D01*
G01X3340871Y-4504725D01*
G01X3326715Y-4497295D01*
G01X3311193Y-4493469D01*
G01X3295207Y-4493469D01*
G01X3279685Y-4497295D01*
G01X3265529Y-4504725D01*
G01X3253563Y-4515326D01*
G01X3244482Y-4528482D01*
G01X3238813Y-4543430D01*
G01X3236886Y-4559300D01*
G01X3236886Y-4559300D01*
G01X3207940Y-4559300D01*
G01X3210164Y-4557927D01*
G01X3220651Y-4547659D01*
G01X3228624Y-4535336D01*
G01X3233689Y-4521560D01*
G01X3235601Y-4507008D01*
G01X3234265Y-4492391D01*
G01X3229746Y-4478427D01*
G01X3222266Y-4465798D01*
G01X3212192Y-4455125D01*
G01X3200016Y-4446929D01*
G01X3186336Y-4441611D01*
G01X3171821Y-4439434D01*
G01X3157182Y-4440502D01*
G01X3143138Y-4444765D01*
G01X3130374Y-4452012D01*
G01X3120166Y-4440060D01*
G01X3107802Y-4431114D01*
G01X5318680Y-4431114D01*
G01X5318680Y-4452486D01*
G01X5322607Y-4473494D01*
G01X5330328Y-4493423D01*
G01X5341579Y-4511594D01*
G01X5355977Y-4527388D01*
G01X5373032Y-4540267D01*
G01X5392163Y-4549793D01*
G01X5412719Y-4555642D01*
G01X5434000Y-4557614D01*
G01X5434000Y-4557614D01*
G01X5455281Y-4555642D01*
G01X5475837Y-4549793D01*
G01X5494968Y-4540267D01*
G01X5512023Y-4527388D01*
G01X5526421Y-4511594D01*
G01X5537672Y-4493423D01*
G01X5545393Y-4473494D01*
G01X5549320Y-4452486D01*
G01X5549320Y-4431114D01*
G01X5545393Y-4410106D01*
G01X5537672Y-4390177D01*
G01X5526421Y-4372007D01*
G01X5512023Y-4356213D01*
G01X5494968Y-4343333D01*
G01X5475837Y-4333807D01*
G01X5455281Y-4327958D01*
G01X5434000Y-4325986D01*
G01X5412719Y-4327958D01*
G01X5392163Y-4333807D01*
G01X5373032Y-4343333D01*
G01X5355977Y-4356213D01*
G01X5341579Y-4372007D01*
G01X5330328Y-4390177D01*
G01X5322607Y-4410106D01*
G01X5318680Y-4431114D01*
G01X3107802Y-4431114D01*
G01X3107432Y-4430846D01*
G01X3092887Y-4424888D01*
G01X3077348Y-4422521D01*
G01X3061689Y-4423877D01*
G01X3046788Y-4428881D01*
G01X3033484Y-4437250D01*
G01X3022524Y-4448516D01*
G01X3014522Y-4462046D01*
G01X3009930Y-4477078D01*
G01X3009005Y-4492769D01*
G01X3011798Y-4508237D01*
G01X3018154Y-4522612D01*
G01X3027714Y-4535089D01*
G01X3039942Y-4544964D01*
G01X3054151Y-4551685D01*
G01X3069543Y-4554872D01*
G01X3085252Y-4554348D01*
G01X3100396Y-4550141D01*
G01X3114125Y-4542488D01*
G01X3122514Y-4552696D01*
G01X3132760Y-4561039D01*
G01X3144457Y-4567185D01*
G01X3157140Y-4570890D01*
G01X3147602Y-4573794D01*
G01X3138606Y-4578096D01*
G01X3124360Y-4572002D01*
G01X3109089Y-4569379D01*
G01X3093626Y-4570372D01*
G01X3078815Y-4574926D01*
G01X3065466Y-4582793D01*
G01X3054306Y-4593543D01*
G01X3045946Y-4606590D01*
G01X3040842Y-4621220D01*
G01X3035836Y-4606794D01*
G01X3027664Y-4593895D01*
G01X3016758Y-4583208D01*
G01X3003697Y-4575299D01*
G01X2989173Y-4570586D01*
G01X2973956Y-4569321D01*
G01X2958853Y-4571570D01*
G01X2944664Y-4577213D01*
G01X2932143Y-4585953D01*
G01X2921953Y-4597324D01*
G01X2911112Y-4585385D01*
G01X2897710Y-4576415D01*
G01X2882539Y-4570945D01*
G01X2866497Y-4569299D01*
G01X2850531Y-4571574D01*
G01X2852702Y-4555987D01*
G01X2851138Y-4540328D01*
G01X2845929Y-4525479D01*
G01X2837367Y-4512275D01*
G01X2825935Y-4501460D01*
G01X2812277Y-4493643D01*
G01X2797161Y-4489265D01*
G01X2781440Y-4488572D01*
G01X2765997Y-4491603D01*
G01X2751704Y-4498187D01*
G01X2739365Y-4507954D01*
G01X2729674Y-4520353D01*
G01X2723178Y-4534686D01*
G01X2720242Y-4550147D01*
G01X2185595Y-4550147D01*
G01X2188585Y-4539059D01*
G01X2189325Y-4525171D01*
G01X2187152Y-4511434D01*
G01X2182162Y-4498452D01*
G01X2174574Y-4486797D01*
G01X2164723Y-4476980D01*
G01X2176535Y-4465947D01*
G01X2185327Y-4452383D01*
G01X2190577Y-4437095D01*
G01X2191972Y-4420991D01*
G01X2189429Y-4405028D01*
G01X2183100Y-4390155D01*
G01X2173361Y-4377254D01*
G01X2160789Y-4367093D01*
G01X2172682Y-4356523D01*
G01X2181715Y-4343425D01*
G01X2187367Y-4328551D01*
G01X2189314Y-4312760D01*
G01X2187443Y-4296959D01*
G01X2181863Y-4282059D01*
G01X2172893Y-4268917D01*
G01X2161052Y-4258289D01*
G01X2147019Y-4250789D01*
G01X2131604Y-4246846D01*
G01X2136636Y-4241815D01*
G01X2498547Y-4241815D01*
G01X2501874Y-4257448D01*
G01X2508844Y-4271831D01*
G01X2519053Y-4284128D01*
G01X2531908Y-4293626D01*
G01X2519113Y-4303772D01*
G01X2509186Y-4316737D01*
G01X2502727Y-4331734D01*
G01X2500130Y-4347856D01*
G01X2501550Y-4364123D01*
G01X2506903Y-4379550D01*
G01X2515863Y-4393201D01*
G01X2527888Y-4404249D01*
G01X2542248Y-4412023D01*
G01X2537302Y-4425574D01*
G01X2535403Y-4439873D01*
G01X2536642Y-4454244D01*
G01X2540958Y-4468008D01*
G01X2548149Y-4480513D01*
G01X2557873Y-4491167D01*
G01X2569671Y-4499466D01*
G01X2582984Y-4505018D01*
G01X2597183Y-4507560D01*
G01X2611596Y-4506972D01*
G01X2625540Y-4503280D01*
G01X2638357Y-4496661D01*
G01X2649439Y-4487428D01*
G01X2658262Y-4476016D01*
G01X2668209Y-4487905D01*
G01X2680644Y-4497160D01*
G01X2694888Y-4503276D01*
G01X2710163Y-4505917D01*
G01X2725634Y-4504940D01*
G01X2740455Y-4500398D01*
G01X2753817Y-4492540D01*
G01X2764989Y-4481794D01*
G01X2773361Y-4468748D01*
G01X2778476Y-4454115D01*
G01X2780054Y-4438694D01*
G01X2778009Y-4423328D01*
G01X2772453Y-4408857D01*
G01X2763688Y-4396071D01*
G01X2752195Y-4385669D01*
G01X2738601Y-4378219D01*
G01X2723649Y-4374129D01*
G01X2708156Y-4373622D01*
G01X2692968Y-4376726D01*
G01X2678916Y-4383270D01*
G01X2666768Y-4392898D01*
G01X2657186Y-4405084D01*
G01X2648577Y-4394495D01*
G01X2637983Y-4385892D01*
G01X2625852Y-4379641D01*
G01X2630772Y-4366196D01*
G01X2632691Y-4352008D01*
G01X2631521Y-4337739D01*
G01X2627315Y-4324054D01*
G01X2620269Y-4311591D01*
G01X2617252Y-4308224D01*
G01X3105430Y-4308224D01*
G01X3108277Y-4323995D01*
G01X3114824Y-4338622D01*
G01X3124689Y-4351252D01*
G01X3137295Y-4361146D01*
G01X3151907Y-4367728D01*
G01X3167671Y-4370611D01*
G01X3167671Y-4370611D01*
G01X3183667Y-4369629D01*
G01X3198960Y-4364839D01*
G01X3212657Y-4356519D01*
G01X3223958Y-4345157D01*
G01X3232204Y-4331415D01*
G01X3236912Y-4316097D01*
G01X3236912Y-4316093D01*
G01X3256038Y-4316093D01*
G01X3257965Y-4331963D01*
G01X3263634Y-4346910D01*
G01X3272716Y-4360067D01*
G01X3284682Y-4370668D01*
G01X3298837Y-4378097D01*
G01X3314359Y-4381923D01*
G01X3330346Y-4381923D01*
G01X3345868Y-4378097D01*
G01X3360023Y-4370668D01*
G01X3367710Y-4363858D01*
G01X3574443Y-4363858D01*
G01X3577184Y-4378690D01*
G01X3583206Y-4392519D01*
G01X3592198Y-4404629D01*
G01X3592198Y-4404629D01*
G01X3603693Y-4414394D01*
G01X3617097Y-4421309D01*
G01X3631718Y-4425016D01*
G01X3646798Y-4425324D01*
G01X3661557Y-4422215D01*
G01X3675232Y-4415852D01*
G01X3687116Y-4406564D01*
G01X3696593Y-4394830D01*
G01X3703173Y-4381258D01*
G01X3706517Y-4366550D01*
G01X3718020Y-4365027D01*
G01X3729083Y-4361522D01*
G01X3739364Y-4356143D01*
G01X3751661Y-4364487D01*
G01X3765508Y-4369883D01*
G01X3780208Y-4372061D01*
G01X3795024Y-4370910D01*
G01X3809212Y-4366489D01*
G01X3822058Y-4359019D01*
G01X3834470Y-4366813D01*
G01X3848290Y-4371690D01*
G01X3862844Y-4373413D01*
G01X3877421Y-4371896D01*
G01X3891309Y-4367215D01*
G01X3903830Y-4359597D01*
G01X3914371Y-4349416D01*
G01X3922419Y-4337168D01*
G01X3930754Y-4351037D01*
G01X3942200Y-4362475D01*
G01X3956075Y-4370801D01*
G01X3971553Y-4375518D01*
G01X3987713Y-4376346D01*
G01X4003592Y-4373236D01*
G01X4018246Y-4366373D01*
G01X4030801Y-4356165D01*
G01X4042961Y-4366124D01*
G01X4057124Y-4372940D01*
G01X4072493Y-4376232D01*
G01X4088205Y-4375815D01*
G01X4103377Y-4371711D01*
G01X4117158Y-4364152D01*
G01X4128772Y-4353562D01*
G01X4137568Y-4340537D01*
G01X4143051Y-4325807D01*
G01X4144914Y-4310200D01*
G01X4143051Y-4294593D01*
G01X4140263Y-4287103D01*
G01X4789590Y-4287103D01*
G01X4791727Y-4303115D01*
G01X4797673Y-4318136D01*
G01X4807074Y-4331273D01*
G01X4819373Y-4341747D01*
G01X4819373Y-4341747D01*
G01X4833839Y-4348937D01*
G01X4849614Y-4352416D01*
G01X4865763Y-4351977D01*
G01X4881326Y-4347646D01*
G01X4895380Y-4339681D01*
G01X4907092Y-4328555D01*
G01X4915765Y-4314926D01*
G01X4920886Y-4299605D01*
G01X4922151Y-4283500D01*
G01X4919484Y-4267567D01*
G01X4935182Y-4263755D01*
G01X4949492Y-4256260D01*
G01X4961566Y-4245528D01*
G01X4970687Y-4232194D01*
G01X4976313Y-4217051D01*
G01X4978110Y-4200997D01*
G01X4975973Y-4184985D01*
G01X4972857Y-4177114D01*
G01X5318680Y-4177114D01*
G01X5318680Y-4198486D01*
G01X5322607Y-4219494D01*
G01X5330328Y-4239423D01*
G01X5341579Y-4257594D01*
G01X5355977Y-4273388D01*
G01X5373032Y-4286267D01*
G01X5392163Y-4295793D01*
G01X5412719Y-4301642D01*
G01X5434000Y-4303614D01*
G01X5434000Y-4303614D01*
G01X5455281Y-4301642D01*
G01X5475837Y-4295793D01*
G01X5494968Y-4286267D01*
G01X5512023Y-4273388D01*
G01X5526421Y-4257594D01*
G01X5537672Y-4239423D01*
G01X5545393Y-4219494D01*
G01X5549320Y-4198486D01*
G01X5549320Y-4177114D01*
G01X5545393Y-4156106D01*
G01X5537672Y-4136177D01*
G01X5526421Y-4118007D01*
G01X5512023Y-4102213D01*
G01X5494968Y-4089333D01*
G01X5475837Y-4079807D01*
G01X5455281Y-4073958D01*
G01X5434000Y-4071986D01*
G01X5412719Y-4073958D01*
G01X5392163Y-4079807D01*
G01X5373032Y-4089333D01*
G01X5355977Y-4102213D01*
G01X5341579Y-4118007D01*
G01X5330328Y-4136177D01*
G01X5322607Y-4156106D01*
G01X5318680Y-4177114D01*
G01X4972857Y-4177114D01*
G01X4970027Y-4169964D01*
G01X4960626Y-4156827D01*
G01X4948327Y-4146353D01*
G01X4933861Y-4139163D01*
G01X4918086Y-4135685D01*
G01X4901937Y-4136123D01*
G01X4886374Y-4140454D01*
G01X4872320Y-4148419D01*
G01X4860609Y-4159546D01*
G01X4851935Y-4173174D01*
G01X4846814Y-4188495D01*
G01X4845549Y-4204600D01*
G01X4848216Y-4220533D01*
G01X4832518Y-4224345D01*
G01X4818208Y-4231840D01*
G01X4806134Y-4242572D01*
G01X4797013Y-4255906D01*
G01X4791387Y-4271049D01*
G01X4789590Y-4287103D01*
G01X4140263Y-4287103D01*
G01X4137568Y-4279863D01*
G01X4128772Y-4266837D01*
G01X4117158Y-4256248D01*
G01X4103377Y-4248689D01*
G01X4088205Y-4244585D01*
G01X4072493Y-4244168D01*
G01X4057124Y-4247460D01*
G01X4042961Y-4254276D01*
G01X4030801Y-4264234D01*
G01X4018609Y-4254256D01*
G01X4004407Y-4247435D01*
G01X3988996Y-4244157D01*
G01X3973248Y-4244607D01*
G01X3958050Y-4248759D01*
G01X3944260Y-4256380D01*
G01X3932657Y-4267038D01*
G01X3923896Y-4280132D01*
G01X3916398Y-4267356D01*
G01X3906250Y-4256563D01*
G01X3893959Y-4248292D01*
G01X3880139Y-4242956D01*
G01X3865479Y-4240821D01*
G01X3850711Y-4241994D01*
G01X3836572Y-4246417D01*
G01X3823768Y-4253868D01*
G01X3812226Y-4246502D01*
G01X3799417Y-4241663D01*
G01X3785887Y-4239558D01*
G01X3772214Y-4240277D01*
G01X3758979Y-4243789D01*
G01X3746748Y-4249944D01*
G01X3733478Y-4241098D01*
G01X3718479Y-4235677D01*
G01X3702620Y-4233993D01*
G01X3686818Y-4236145D01*
G01X3671986Y-4242007D01*
G01X3658983Y-4251240D01*
G01X3648560Y-4263312D01*
G01X3641321Y-4277522D01*
G01X3637683Y-4293050D01*
G01X3622788Y-4295423D01*
G01X3608814Y-4301100D01*
G01X3596485Y-4309788D01*
G01X3586438Y-4321038D01*
G01X3579192Y-4334267D01*
G01X3575124Y-4348791D01*
G01X3574443Y-4363858D01*
G01X3367710Y-4363858D01*
G01X3371989Y-4360067D01*
G01X3381071Y-4346910D01*
G01X3386740Y-4331963D01*
G01X3388667Y-4316093D01*
G01X3386740Y-4300223D01*
G01X3381071Y-4285275D01*
G01X3371989Y-4272118D01*
G01X3360023Y-4261517D01*
G01X3345868Y-4254088D01*
G01X3330346Y-4250262D01*
G01X3314359Y-4250262D01*
G01X3298837Y-4254088D01*
G01X3284682Y-4261517D01*
G01X3272716Y-4272118D01*
G01X3263634Y-4285275D01*
G01X3257965Y-4300223D01*
G01X3256038Y-4316093D01*
G01X3256038Y-4316093D01*
G01X3236912Y-4316093D01*
G01X3237808Y-4300097D01*
G01X3234840Y-4284348D01*
G01X3228180Y-4269772D01*
G01X3218218Y-4257219D01*
G01X3229607Y-4245944D01*
G01X3237958Y-4232267D01*
G01X3242785Y-4216985D01*
G01X3243805Y-4200992D01*
G01X3240958Y-4185221D01*
G01X3234411Y-4170594D01*
G01X3224546Y-4157964D01*
G01X3220515Y-4154800D01*
G01X3320886Y-4154800D01*
G01X3322813Y-4170670D01*
G01X3328482Y-4185618D01*
G01X3337563Y-4198774D01*
G01X3349529Y-4209375D01*
G01X3363685Y-4216805D01*
G01X3379207Y-4220630D01*
G01X3395193Y-4220630D01*
G01X3410715Y-4216805D01*
G01X3424871Y-4209375D01*
G01X3436837Y-4198774D01*
G01X3445918Y-4185618D01*
G01X3447290Y-4182000D01*
G01X3571786Y-4182000D01*
G01X3573713Y-4197870D01*
G01X3579382Y-4212818D01*
G01X3588463Y-4225974D01*
G01X3600429Y-4236575D01*
G01X3614585Y-4244005D01*
G01X3630107Y-4247831D01*
G01X3646093Y-4247831D01*
G01X3661615Y-4244005D01*
G01X3675771Y-4236575D01*
G01X3687737Y-4225974D01*
G01X3696818Y-4212818D01*
G01X3702487Y-4197870D01*
G01X3704414Y-4182000D01*
G01X3702487Y-4166130D01*
G01X3696818Y-4151182D01*
G01X3687737Y-4138026D01*
G01X3675771Y-4127425D01*
G01X3661615Y-4119995D01*
G01X3646093Y-4116169D01*
G01X3630107Y-4116169D01*
G01X3614585Y-4119995D01*
G01X3600429Y-4127425D01*
G01X3588463Y-4138026D01*
G01X3579382Y-4151182D01*
G01X3573713Y-4166130D01*
G01X3571786Y-4182000D01*
G01X3571786Y-4182000D01*
G01X3447290Y-4182000D01*
G01X3451587Y-4170670D01*
G01X3453514Y-4154800D01*
G01X3451587Y-4138930D01*
G01X3445918Y-4123982D01*
G01X3436837Y-4110826D01*
G01X3424871Y-4100225D01*
G01X3410715Y-4092795D01*
G01X3395193Y-4088969D01*
G01X3379207Y-4088969D01*
G01X3363685Y-4092795D01*
G01X3349529Y-4100225D01*
G01X3337563Y-4110826D01*
G01X3328482Y-4123982D01*
G01X3322813Y-4138930D01*
G01X3320886Y-4154800D01*
G01X3320886Y-4154800D01*
G01X3220515Y-4154800D01*
G01X3211940Y-4148070D01*
G01X3197328Y-4141488D01*
G01X3181564Y-4138605D01*
G01X3165568Y-4139587D01*
G01X3150275Y-4144377D01*
G01X3136578Y-4152697D01*
G01X3125277Y-4164059D01*
G01X3117031Y-4177800D01*
G01X3112323Y-4193119D01*
G01X3111427Y-4209119D01*
G01X3114395Y-4224868D01*
G01X3121055Y-4239444D01*
G01X3131017Y-4251997D01*
G01X3119628Y-4263272D01*
G01X3111277Y-4276949D01*
G01X3106450Y-4292231D01*
G01X3105430Y-4308224D01*
G01X2617252Y-4308224D01*
G01X2610713Y-4300930D01*
G01X2599092Y-4292568D01*
G01X2611477Y-4282835D01*
G01X2621218Y-4270455D01*
G01X2627764Y-4256127D01*
G01X2630745Y-4240659D01*
G01X2629994Y-4224924D01*
G01X2625553Y-4209811D01*
G01X2617673Y-4196171D01*
G01X2606798Y-4184775D01*
G01X2593541Y-4176265D01*
G01X2593541Y-4176265D01*
G01X2605277Y-4168973D01*
G01X2615247Y-4159407D01*
G01X2623018Y-4147982D01*
G01X2628253Y-4135196D01*
G01X2630725Y-4121602D01*
G01X2645273Y-4116616D01*
G01X2658280Y-4108413D01*
G01X2669049Y-4097435D01*
G01X2679984Y-4108547D01*
G01X2693211Y-4116799D01*
G01X2707999Y-4121735D01*
G01X2723531Y-4123082D01*
G01X2738948Y-4120765D01*
G01X2753398Y-4114914D01*
G01X2766082Y-4105850D01*
G01X2776301Y-4094076D01*
G01X2783487Y-4080242D01*
G01X2787246Y-4065111D01*
G01X2795541Y-4078531D01*
G01X2806771Y-4089610D01*
G01X2820301Y-4097724D01*
G01X2835364Y-4102413D01*
G01X2851108Y-4103410D01*
G01X2866643Y-4100661D01*
G01X2881088Y-4094320D01*
G01X2893627Y-4084746D01*
G01X2897063Y-4080499D01*
G01X4664324Y-4080499D01*
G01X4666251Y-4096369D01*
G01X4671920Y-4111317D01*
G01X4681002Y-4124473D01*
G01X4692968Y-4135074D01*
G01X4707123Y-4142504D01*
G01X4722645Y-4146329D01*
G01X4738632Y-4146329D01*
G01X4754154Y-4142504D01*
G01X4768309Y-4135074D01*
G01X4780275Y-4124473D01*
G01X4789357Y-4111317D01*
G01X4795026Y-4096369D01*
G01X4796953Y-4080499D01*
G01X4795026Y-4064629D01*
G01X4789357Y-4049681D01*
G01X4780275Y-4036524D01*
G01X4768309Y-4025923D01*
G01X4754154Y-4018494D01*
G01X4738632Y-4014668D01*
G01X4722645Y-4014668D01*
G01X4707123Y-4018494D01*
G01X4692968Y-4025923D01*
G01X4681002Y-4036524D01*
G01X4671920Y-4049681D01*
G01X4666251Y-4064629D01*
G01X4664324Y-4080499D01*
G01X4664324Y-4080499D01*
G01X2897063Y-4080499D01*
G01X2903550Y-4072481D01*
G01X2910294Y-4058220D01*
G01X2913480Y-4042769D01*
G01X2912925Y-4027003D01*
G01X2908662Y-4011814D01*
G01X2900932Y-3998061D01*
G01X2890173Y-3986524D01*
G01X2876992Y-3977855D01*
G01X2862137Y-3972544D01*
G01X2846448Y-3970893D01*
G01X2830812Y-3972994D01*
G01X2816116Y-3978729D01*
G01X2803190Y-3987773D01*
G01X2792766Y-3999615D01*
G01X2785434Y-4013583D01*
G01X2781609Y-4028889D01*
G01X2773763Y-4016040D01*
G01X2763222Y-4005292D01*
G01X2750527Y-3997199D01*
G01X2736335Y-3992177D01*
G01X2721376Y-3990486D01*
G01X2706420Y-3992213D01*
G01X2692240Y-3997268D01*
G01X2679565Y-4005392D01*
G01X2669049Y-4016165D01*
G01X2657854Y-4004846D01*
G01X2644284Y-3996521D01*
G01X2629121Y-3991670D01*
G01X2613238Y-3990574D01*
G01X2597552Y-3993294D01*
G01X2582966Y-3999674D01*
G01X2570322Y-4009347D01*
G01X2560347Y-4021755D01*
G01X2553616Y-4036182D01*
G01X2550519Y-4051798D01*
G01X2535067Y-4057225D01*
G01X2521416Y-4066274D01*
G01X2510399Y-4078392D01*
G01X2502688Y-4092841D01*
G01X2498753Y-4108738D01*
G01X2498835Y-4125116D01*
G01X2502927Y-4140973D01*
G01X2510782Y-4155345D01*
G01X2521918Y-4167353D01*
G01X2535658Y-4176265D01*
G01X2522223Y-4184923D01*
G01X2511250Y-4196543D01*
G01X2503376Y-4210452D01*
G01X2499058Y-4225840D01*
G01X2498547Y-4241815D01*
G01X2136636Y-4241815D01*
G01X2283391Y-4095060D01*
G01X2318300Y-4095060D01*
G01X2322188Y-4094286D01*
G01X2325484Y-4092084D01*
G01X2457134Y-3960434D01*
G01X2947106Y-3960434D01*
G01X2949033Y-3976304D01*
G01X2954701Y-3991252D01*
G01X2963783Y-4004408D01*
G01X2975749Y-4015009D01*
G01X2989904Y-4022439D01*
G01X3005426Y-4026265D01*
G01X3021413Y-4026265D01*
G01X3036935Y-4022439D01*
G01X3051090Y-4015009D01*
G01X3063056Y-4004408D01*
G01X3072138Y-3991252D01*
G01X3077807Y-3976304D01*
G01X3079734Y-3960434D01*
G01X3077807Y-3944564D01*
G01X3072138Y-3929616D01*
G01X3063056Y-3916460D01*
G01X3058813Y-3912700D01*
G01X3152686Y-3912700D01*
G01X3154613Y-3928570D01*
G01X3160282Y-3943518D01*
G01X3169363Y-3956674D01*
G01X3181329Y-3967275D01*
G01X3195485Y-3974705D01*
G01X3211007Y-3978531D01*
G01X3226993Y-3978531D01*
G01X3242515Y-3974705D01*
G01X3256671Y-3967275D01*
G01X3268637Y-3956674D01*
G01X3277718Y-3943518D01*
G01X3283387Y-3928570D01*
G01X3285314Y-3912700D01*
G01X3321986Y-3912700D01*
G01X3323913Y-3928570D01*
G01X3329582Y-3943518D01*
G01X3338663Y-3956674D01*
G01X3350629Y-3967275D01*
G01X3364785Y-3974705D01*
G01X3380307Y-3978531D01*
G01X3396293Y-3978531D01*
G01X3411815Y-3974705D01*
G01X3425971Y-3967275D01*
G01X3437937Y-3956674D01*
G01X3447018Y-3943518D01*
G01X3452687Y-3928570D01*
G01X3454614Y-3912700D01*
G01X3452687Y-3896830D01*
G01X3447018Y-3881882D01*
G01X3437937Y-3868726D01*
G01X3425971Y-3858125D01*
G01X3411815Y-3850695D01*
G01X3396293Y-3846870D01*
G01X3380307Y-3846870D01*
G01X3364785Y-3850695D01*
G01X3350629Y-3858125D01*
G01X3338663Y-3868726D01*
G01X3329582Y-3881882D01*
G01X3323913Y-3896830D01*
G01X3321986Y-3912700D01*
G01X3321986Y-3912700D01*
G01X3285314Y-3912700D01*
G01X3283387Y-3896830D01*
G01X3277718Y-3881882D01*
G01X3268637Y-3868726D01*
G01X3256671Y-3858125D01*
G01X3242515Y-3850695D01*
G01X3226993Y-3846870D01*
G01X3211007Y-3846870D01*
G01X3195485Y-3850695D01*
G01X3181329Y-3858125D01*
G01X3169363Y-3868726D01*
G01X3160282Y-3881882D01*
G01X3154613Y-3896830D01*
G01X3152686Y-3912700D01*
G01X3152686Y-3912700D01*
G01X3058813Y-3912700D01*
G01X3051090Y-3905859D01*
G01X3036935Y-3898429D01*
G01X3021413Y-3894603D01*
G01X3005426Y-3894603D01*
G01X2989904Y-3898429D01*
G01X2975749Y-3905859D01*
G01X2963783Y-3916460D01*
G01X2954701Y-3929616D01*
G01X2949033Y-3944564D01*
G01X2947106Y-3960434D01*
G01X2947106Y-3960434D01*
G01X2457134Y-3960434D01*
G01X2562535Y-3855033D01*
G01X2575676Y-3860594D01*
G01X2589702Y-3863215D01*
G01X2603964Y-3862775D01*
G01X2617802Y-3859295D01*
G01X2630575Y-3852934D01*
G01X2641691Y-3843989D01*
G01X2650637Y-3832872D01*
G01X2656997Y-3820099D01*
G01X2660478Y-3806261D01*
G01X2660918Y-3791999D01*
G01X2658297Y-3777973D01*
G01X2652736Y-3764833D01*
G01X2690238Y-3727331D01*
G01X3319551Y-3727331D01*
G01X3320176Y-3742202D01*
G01X3324102Y-3756560D01*
G01X3331131Y-3769680D01*
G01X3331131Y-3769680D01*
G01X3340910Y-3780902D01*
G01X3352946Y-3789660D01*
G01X3366631Y-3795513D01*
G01X3381278Y-3798166D01*
G01X3396147Y-3797486D01*
G01X3410490Y-3793506D01*
G01X3416588Y-3790209D01*
G01X4144801Y-3790209D01*
G01X4146795Y-3804999D01*
G01X4152046Y-3818969D01*
G01X4160288Y-3831411D01*
G01X4171103Y-3841694D01*
G01X4160567Y-3852263D01*
G01X4152660Y-3864921D01*
G01X4147785Y-3879026D01*
G01X4146187Y-3893864D01*
G01X4147948Y-3908683D01*
G01X4152978Y-3922734D01*
G01X4161022Y-3935304D01*
G01X4171674Y-3945757D01*
G01X4184394Y-3953563D01*
G01X4198537Y-3958327D01*
G01X4213387Y-3959808D01*
G01X4213387Y-3959808D01*
G01X4228192Y-3957931D01*
G01X4242203Y-3952790D01*
G01X4254709Y-3944647D01*
G01X4265077Y-3933913D01*
G01X4271476Y-3923300D01*
G01X4660022Y-3923300D01*
G01X4661949Y-3939170D01*
G01X4667618Y-3954118D01*
G01X4676699Y-3967274D01*
G01X4688666Y-3977875D01*
G01X4702821Y-3985305D01*
G01X4718343Y-3989131D01*
G01X4734330Y-3989131D01*
G01X4749852Y-3985305D01*
G01X4764007Y-3977875D01*
G01X4775973Y-3967274D01*
G01X4785054Y-3954118D01*
G01X4790723Y-3939170D01*
G01X4792650Y-3923300D01*
G01X4792628Y-3923114D01*
G01X5318680Y-3923114D01*
G01X5318680Y-3944486D01*
G01X5322607Y-3965494D01*
G01X5330328Y-3985423D01*
G01X5341579Y-4003594D01*
G01X5355977Y-4019388D01*
G01X5373032Y-4032267D01*
G01X5392163Y-4041793D01*
G01X5412719Y-4047642D01*
G01X5434000Y-4049614D01*
G01X5434000Y-4049614D01*
G01X5455281Y-4047642D01*
G01X5475837Y-4041793D01*
G01X5494968Y-4032267D01*
G01X5512023Y-4019388D01*
G01X5526421Y-4003594D01*
G01X5537672Y-3985423D01*
G01X5545393Y-3965494D01*
G01X5549320Y-3944486D01*
G01X5549320Y-3923114D01*
G01X5545393Y-3902106D01*
G01X5537672Y-3882177D01*
G01X5526421Y-3864007D01*
G01X5512023Y-3848213D01*
G01X5494968Y-3835333D01*
G01X5475837Y-3825807D01*
G01X5455281Y-3819958D01*
G01X5434000Y-3817986D01*
G01X5412719Y-3819958D01*
G01X5392163Y-3825807D01*
G01X5373032Y-3835333D01*
G01X5355977Y-3848213D01*
G01X5341579Y-3864007D01*
G01X5330328Y-3882177D01*
G01X5322607Y-3902106D01*
G01X5318680Y-3923114D01*
G01X4792628Y-3923114D01*
G01X4790723Y-3907430D01*
G01X4785054Y-3892482D01*
G01X4775973Y-3879326D01*
G01X4764007Y-3868725D01*
G01X4749852Y-3861295D01*
G01X4734330Y-3857469D01*
G01X4718343Y-3857469D01*
G01X4702821Y-3861295D01*
G01X4688666Y-3868725D01*
G01X4676699Y-3879326D01*
G01X4667618Y-3892482D01*
G01X4661949Y-3907430D01*
G01X4660022Y-3923300D01*
G01X4660022Y-3923300D01*
G01X4271476Y-3923300D01*
G01X4272783Y-3921132D01*
G01X4277435Y-3906952D01*
G01X4278799Y-3892091D01*
G01X4276805Y-3877300D01*
G01X4271554Y-3863331D01*
G01X4263312Y-3850889D01*
G01X4252497Y-3840606D01*
G01X4263033Y-3830037D01*
G01X4270940Y-3817379D01*
G01X4275815Y-3803274D01*
G01X4277413Y-3788436D01*
G01X4275652Y-3773616D01*
G01X4270622Y-3759566D01*
G01X4262578Y-3746996D01*
G01X4251926Y-3736543D01*
G01X4239207Y-3728737D01*
G01X4225064Y-3723973D01*
G01X4210213Y-3722492D01*
G01X4195408Y-3724369D01*
G01X4181398Y-3729510D01*
G01X4168891Y-3737653D01*
G01X4158523Y-3748387D01*
G01X4150817Y-3761168D01*
G01X4146165Y-3775348D01*
G01X4144801Y-3790209D01*
G01X3416588Y-3790209D01*
G01X3423584Y-3786428D01*
G01X3434769Y-3776607D01*
G01X3443482Y-3764539D01*
G01X3449284Y-3750832D01*
G01X3463990Y-3750287D01*
G01X3478215Y-3746513D01*
G01X3491256Y-3739695D01*
G01X3502473Y-3730168D01*
G01X3511312Y-3718402D01*
G01X3517338Y-3704976D01*
G01X3520256Y-3690551D01*
G01X3519919Y-3675839D01*
G01X3516347Y-3661563D01*
G01X3509714Y-3648426D01*
G01X3500346Y-3637076D01*
G01X3498580Y-3635709D01*
G01X4970983Y-3635709D01*
G01X4970983Y-3657081D01*
G01X4974910Y-3678089D01*
G01X4982630Y-3698018D01*
G01X4993881Y-3716188D01*
G01X5008279Y-3731983D01*
G01X5025334Y-3744862D01*
G01X5044466Y-3754388D01*
G01X5065022Y-3760237D01*
G01X5086303Y-3762209D01*
G01X5107583Y-3760237D01*
G01X5128139Y-3754388D01*
G01X5147271Y-3744862D01*
G01X5164326Y-3731983D01*
G01X5178724Y-3716188D01*
G01X5189975Y-3698018D01*
G01X5197695Y-3678089D01*
G01X5199373Y-3669114D01*
G01X5318680Y-3669114D01*
G01X5318680Y-3690486D01*
G01X5322607Y-3711494D01*
G01X5330328Y-3731423D01*
G01X5341579Y-3749594D01*
G01X5355977Y-3765388D01*
G01X5373032Y-3778267D01*
G01X5392163Y-3787793D01*
G01X5412719Y-3793642D01*
G01X5434000Y-3795614D01*
G01X5434000Y-3795614D01*
G01X5455281Y-3793642D01*
G01X5475837Y-3787793D01*
G01X5494968Y-3778267D01*
G01X5512023Y-3765388D01*
G01X5526421Y-3749594D01*
G01X5537672Y-3731423D01*
G01X5545393Y-3711494D01*
G01X5549320Y-3690486D01*
G01X5549320Y-3669114D01*
G01X5545393Y-3648106D01*
G01X5537672Y-3628177D01*
G01X5526421Y-3610007D01*
G01X5512023Y-3594213D01*
G01X5494968Y-3581333D01*
G01X5475837Y-3571807D01*
G01X5455281Y-3565958D01*
G01X5434000Y-3563986D01*
G01X5412719Y-3565958D01*
G01X5392163Y-3571807D01*
G01X5373032Y-3581333D01*
G01X5355977Y-3594213D01*
G01X5341579Y-3610007D01*
G01X5330328Y-3628177D01*
G01X5322607Y-3648106D01*
G01X5318680Y-3669114D01*
G01X5199373Y-3669114D01*
G01X5201622Y-3657081D01*
G01X5201622Y-3635709D01*
G01X5197695Y-3614701D01*
G01X5189975Y-3594772D01*
G01X5178724Y-3576602D01*
G01X5164326Y-3560808D01*
G01X5147271Y-3547928D01*
G01X5128139Y-3538402D01*
G01X5107583Y-3532553D01*
G01X5086303Y-3530581D01*
G01X5086303Y-3530581D01*
G01X5065022Y-3532553D01*
G01X5044466Y-3538402D01*
G01X5025334Y-3547928D01*
G01X5008279Y-3560808D01*
G01X4993881Y-3576602D01*
G01X4982630Y-3594772D01*
G01X4974910Y-3614701D01*
G01X4970983Y-3635709D01*
G01X3498580Y-3635709D01*
G01X3488706Y-3628071D01*
G01X3500795Y-3618280D01*
G01X3510269Y-3605942D01*
G01X3516609Y-3591736D01*
G01X3519465Y-3576445D01*
G01X3518721Y-3561724D01*
G01X4449708Y-3561724D01*
G01X4452631Y-3576481D01*
G01X4458806Y-3590200D01*
G01X4467914Y-3602175D01*
G01X4479486Y-3611788D01*
G01X4492928Y-3618545D01*
G01X4507547Y-3622098D01*
G01X4522590Y-3622265D01*
G01X4537284Y-3619037D01*
G01X4550872Y-3612580D01*
G01X4562656Y-3603227D01*
G01X4572027Y-3591458D01*
G01X4578505Y-3577879D01*
G01X4581755Y-3563190D01*
G01X4596934Y-3560464D01*
G01X4611072Y-3554305D01*
G01X4617740Y-3549300D01*
G01X4764286Y-3549300D01*
G01X4766213Y-3565170D01*
G01X4771882Y-3580118D01*
G01X4780963Y-3593274D01*
G01X4792929Y-3603875D01*
G01X4807085Y-3611305D01*
G01X4822607Y-3615131D01*
G01X4838593Y-3615131D01*
G01X4854115Y-3611305D01*
G01X4868271Y-3603875D01*
G01X4880237Y-3593274D01*
G01X4889318Y-3580118D01*
G01X4894987Y-3565170D01*
G01X4896914Y-3549300D01*
G01X4894987Y-3533430D01*
G01X4889318Y-3518482D01*
G01X4880237Y-3505326D01*
G01X4868271Y-3494725D01*
G01X4854115Y-3487295D01*
G01X4838593Y-3483469D01*
G01X4822607Y-3483469D01*
G01X4807085Y-3487295D01*
G01X4792929Y-3494725D01*
G01X4780963Y-3505326D01*
G01X4771882Y-3518482D01*
G01X4766213Y-3533430D01*
G01X4764286Y-3549300D01*
G01X4764286Y-3549300D01*
G01X4617740Y-3549300D01*
G01X4623405Y-3545048D01*
G01X4633267Y-3533192D01*
G01X4640124Y-3519379D01*
G01X4643605Y-3504355D01*
G01X4659022Y-3503202D01*
G01X4673752Y-3498510D01*
G01X4686996Y-3490536D01*
G01X4698034Y-3479711D01*
G01X4706266Y-3466625D01*
G01X4711243Y-3451988D01*
G01X4712697Y-3436597D01*
G01X4728546Y-3435044D01*
G01X4743568Y-3429757D01*
G01X4756896Y-3421041D01*
G01X4767762Y-3409399D01*
G01X4775539Y-3395502D01*
G01X4779348Y-3381709D01*
G01X4970983Y-3381709D01*
G01X4970983Y-3403081D01*
G01X4974910Y-3424089D01*
G01X4982630Y-3444018D01*
G01X4993881Y-3462188D01*
G01X5008279Y-3477983D01*
G01X5025334Y-3490862D01*
G01X5044466Y-3500388D01*
G01X5065022Y-3506237D01*
G01X5086303Y-3508209D01*
G01X5107583Y-3506237D01*
G01X5128139Y-3500388D01*
G01X5147271Y-3490862D01*
G01X5164326Y-3477983D01*
G01X5178724Y-3462188D01*
G01X5189975Y-3444018D01*
G01X5197695Y-3424089D01*
G01X5199373Y-3415114D01*
G01X5318680Y-3415114D01*
G01X5318680Y-3436486D01*
G01X5322607Y-3457494D01*
G01X5330328Y-3477423D01*
G01X5341579Y-3495594D01*
G01X5355977Y-3511388D01*
G01X5373032Y-3524267D01*
G01X5392163Y-3533793D01*
G01X5412719Y-3539642D01*
G01X5434000Y-3541614D01*
G01X5434000Y-3541614D01*
G01X5455281Y-3539642D01*
G01X5475837Y-3533793D01*
G01X5494968Y-3524267D01*
G01X5512023Y-3511388D01*
G01X5526421Y-3495594D01*
G01X5537672Y-3477423D01*
G01X5545393Y-3457494D01*
G01X5549320Y-3436486D01*
G01X5549320Y-3415114D01*
G01X5545393Y-3394106D01*
G01X5537672Y-3374177D01*
G01X5526421Y-3356007D01*
G01X5512023Y-3340213D01*
G01X5494968Y-3327333D01*
G01X5475837Y-3317807D01*
G01X5455281Y-3311958D01*
G01X5434000Y-3309986D01*
G01X5412719Y-3311958D01*
G01X5392163Y-3317807D01*
G01X5373032Y-3327333D01*
G01X5355977Y-3340213D01*
G01X5341579Y-3356007D01*
G01X5330328Y-3374177D01*
G01X5322607Y-3394106D01*
G01X5318680Y-3415114D01*
G01X5199373Y-3415114D01*
G01X5201622Y-3403081D01*
G01X5201622Y-3381709D01*
G01X5197695Y-3360701D01*
G01X5189975Y-3340772D01*
G01X5178724Y-3322602D01*
G01X5164326Y-3306808D01*
G01X5147271Y-3293928D01*
G01X5128139Y-3284402D01*
G01X5107583Y-3278553D01*
G01X5086303Y-3276581D01*
G01X5086303Y-3276581D01*
G01X5065022Y-3278553D01*
G01X5044466Y-3284402D01*
G01X5025334Y-3293928D01*
G01X5008279Y-3306808D01*
G01X4993881Y-3322602D01*
G01X4982630Y-3340772D01*
G01X4974910Y-3360701D01*
G01X4970983Y-3381709D01*
G01X4779348Y-3381709D01*
G01X4779778Y-3380152D01*
G01X4780236Y-3364234D01*
G01X4794782Y-3363347D01*
G01X4808782Y-3359306D01*
G01X4821562Y-3352303D01*
G01X4832504Y-3342679D01*
G01X4841079Y-3330897D01*
G01X4846874Y-3317526D01*
G01X4849609Y-3303213D01*
G01X4864805Y-3301352D01*
G01X4879169Y-3296056D01*
G01X4891936Y-3287607D01*
G01X4902425Y-3276456D01*
G01X4910077Y-3263196D01*
G01X4914485Y-3248535D01*
G01X4915414Y-3233254D01*
G01X4912813Y-3218167D01*
G01X4906822Y-3204079D01*
G01X4897760Y-3191740D01*
G01X4886110Y-3181808D01*
G01X4872493Y-3174811D01*
G01X4857634Y-3171125D01*
G01X4842326Y-3170943D01*
G01X4827384Y-3174277D01*
G01X4813605Y-3180949D01*
G01X4801723Y-3190602D01*
G01X4792371Y-3202724D01*
G01X4786048Y-3216666D01*
G01X4783091Y-3231687D01*
G01X4767559Y-3233631D01*
G01X4752914Y-3239161D01*
G01X4739974Y-3247969D01*
G01X4729459Y-3259566D01*
G01X4721956Y-3273304D01*
G01X4717882Y-3288418D01*
G01X4717464Y-3304066D01*
G01X4701974Y-3305123D01*
G01X4687153Y-3309752D01*
G01X4673816Y-3317701D01*
G01X4662692Y-3328533D01*
G01X4654392Y-3341654D01*
G01X4649371Y-3356346D01*
G01X4647903Y-3371803D01*
G01X4631645Y-3373448D01*
G01X4616282Y-3379020D01*
G01X4602749Y-3388179D01*
G01X4591866Y-3400370D01*
G01X4584295Y-3414851D01*
G01X4580495Y-3430745D01*
G01X4580495Y-3430745D01*
G01X4566259Y-3431680D01*
G01X4552553Y-3435639D01*
G01X4540011Y-3442438D01*
G01X4529213Y-3451762D01*
G01X4520659Y-3463179D01*
G01X4514745Y-3476162D01*
G01X4511745Y-3490110D01*
G01X4496930Y-3492727D01*
G01X4483086Y-3498617D01*
G01X4470926Y-3507475D01*
G01X4461076Y-3518846D01*
G01X4454042Y-3532145D01*
G01X4450186Y-3546687D01*
G01X4449708Y-3561724D01*
G01X3518721Y-3561724D01*
G01X3518680Y-3560908D01*
G01X3514297Y-3545983D01*
G01X3506558Y-3532488D01*
G01X3495888Y-3521168D01*
G01X3482874Y-3512646D01*
G01X3468233Y-3507389D01*
G01X3452770Y-3505688D01*
G01X3437337Y-3507636D01*
G01X3422781Y-3513126D01*
G01X3409906Y-3521855D01*
G01X3399418Y-3533344D01*
G01X3391895Y-3546960D01*
G01X3387751Y-3561954D01*
G01X3387214Y-3577501D01*
G01X3390314Y-3592745D01*
G01X3396880Y-3606848D01*
G01X3406551Y-3619032D01*
G01X3418794Y-3628629D01*
G01X3406486Y-3638647D01*
G01X3396911Y-3651301D01*
G01X3390616Y-3665868D01*
G01X3375742Y-3666438D01*
G01X3361370Y-3670310D01*
G01X3348224Y-3677291D01*
G01X3336965Y-3687028D01*
G01X3328163Y-3699031D01*
G01X3322258Y-3712694D01*
G01X3319551Y-3727331D01*
G01X2690238Y-3727331D01*
G01X2897217Y-3520352D01*
G01X2897146Y-3534803D01*
G01X2900208Y-3548927D01*
G01X2906257Y-3562053D01*
G01X2915005Y-3573556D01*
G01X2926038Y-3582891D01*
G01X2938831Y-3589614D01*
G01X2952777Y-3593406D01*
G01X2967213Y-3594086D01*
G01X2981453Y-3591624D01*
G01X2994822Y-3586134D01*
G01X3006685Y-3577879D01*
G01X3016477Y-3567251D01*
G01X3029047Y-3577355D01*
G01X3043684Y-3584126D01*
G01X3059523Y-3587163D01*
G01X3075627Y-3586287D01*
G01X3091043Y-3581549D01*
G01X3104860Y-3573230D01*
G01X3116260Y-3561822D01*
G01X3124569Y-3548000D01*
G01X3129295Y-3532580D01*
G01X3130160Y-3516476D01*
G01X3127111Y-3500639D01*
G01X3120329Y-3486006D01*
G01X3110216Y-3473444D01*
G01X3097369Y-3463694D01*
G01X3082549Y-3457333D01*
G01X3066632Y-3454738D01*
G01X3050558Y-3456063D01*
G01X3035280Y-3461228D01*
G01X3021701Y-3469928D01*
G01X3010623Y-3481649D01*
G01X2999216Y-3472283D01*
G01X2986019Y-3465672D01*
G01X2971686Y-3462144D01*
G01X2956929Y-3461874D01*
G01X2942477Y-3464874D01*
G01X2929047Y-3470997D01*
G01X2917304Y-3479939D01*
G01X2917304Y-3320898D01*
G01X3382286Y-3320898D01*
G01X3384213Y-3336768D01*
G01X3389882Y-3351715D01*
G01X3398963Y-3364872D01*
G01X3410929Y-3375473D01*
G01X3425085Y-3382902D01*
G01X3440607Y-3386728D01*
G01X3456593Y-3386728D01*
G01X3472115Y-3382902D01*
G01X3486271Y-3375473D01*
G01X3498237Y-3364872D01*
G01X3507318Y-3351715D01*
G01X3512987Y-3336768D01*
G01X3514137Y-3327300D01*
G01X3546486Y-3327300D01*
G01X3548413Y-3343170D01*
G01X3554082Y-3358118D01*
G01X3563163Y-3371275D01*
G01X3575129Y-3381876D01*
G01X3589285Y-3389305D01*
G01X3604807Y-3393131D01*
G01X3620793Y-3393131D01*
G01X3636315Y-3389305D01*
G01X3650471Y-3381876D01*
G01X3662437Y-3371275D01*
G01X3664007Y-3369000D01*
G01X4091586Y-3369000D01*
G01X4093487Y-3385870D01*
G01X4099094Y-3401895D01*
G01X4108126Y-3416269D01*
G01X4120131Y-3428274D01*
G01X4134506Y-3437306D01*
G01X4150530Y-3442913D01*
G01X4167400Y-3444814D01*
G01X4184270Y-3442913D01*
G01X4200295Y-3437306D01*
G01X4214669Y-3428274D01*
G01X4226674Y-3416269D01*
G01X4235706Y-3401895D01*
G01X4241313Y-3385870D01*
G01X4243214Y-3369000D01*
G01X4241313Y-3352130D01*
G01X4235706Y-3336106D01*
G01X4226674Y-3321731D01*
G01X4214669Y-3309726D01*
G01X4200295Y-3300694D01*
G01X4184270Y-3295087D01*
G01X4167400Y-3293186D01*
G01X4150530Y-3295087D01*
G01X4134506Y-3300694D01*
G01X4120131Y-3309726D01*
G01X4108126Y-3321731D01*
G01X4099094Y-3336106D01*
G01X4093487Y-3352130D01*
G01X4091586Y-3369000D01*
G01X4091586Y-3369000D01*
G01X3664007Y-3369000D01*
G01X3671518Y-3358118D01*
G01X3677187Y-3343170D01*
G01X3679114Y-3327300D01*
G01X3677187Y-3311430D01*
G01X3671518Y-3296482D01*
G01X3662437Y-3283326D01*
G01X3650471Y-3272725D01*
G01X3636315Y-3265295D01*
G01X3620793Y-3261470D01*
G01X3604807Y-3261470D01*
G01X3589285Y-3265295D01*
G01X3575129Y-3272725D01*
G01X3563163Y-3283326D01*
G01X3554082Y-3296482D01*
G01X3548413Y-3311430D01*
G01X3546486Y-3327300D01*
G01X3546486Y-3327300D01*
G01X3514137Y-3327300D01*
G01X3514914Y-3320898D01*
G01X3512987Y-3305028D01*
G01X3507318Y-3290080D01*
G01X3498237Y-3276923D01*
G01X3486271Y-3266322D01*
G01X3472115Y-3258893D01*
G01X3456593Y-3255067D01*
G01X3440607Y-3255067D01*
G01X3425085Y-3258893D01*
G01X3410929Y-3266322D01*
G01X3398963Y-3276923D01*
G01X3389882Y-3290080D01*
G01X3384213Y-3305028D01*
G01X3382286Y-3320898D01*
G01X3382286Y-3320898D01*
G01X2917304Y-3320898D01*
G01X2917304Y-3161223D01*
G01X2987827Y-3090700D01*
G01X3184986Y-3090700D01*
G01X3186913Y-3106570D01*
G01X3192582Y-3121518D01*
G01X3201663Y-3134674D01*
G01X3213629Y-3145275D01*
G01X3227785Y-3152705D01*
G01X3243307Y-3156531D01*
G01X3259293Y-3156531D01*
G01X3274815Y-3152705D01*
G01X3288971Y-3145275D01*
G01X3300937Y-3134674D01*
G01X3310018Y-3121518D01*
G01X3315687Y-3106570D01*
G01X3316995Y-3095800D01*
G01X3362886Y-3095800D01*
G01X3364813Y-3111670D01*
G01X3370482Y-3126618D01*
G01X3379563Y-3139774D01*
G01X3391529Y-3150375D01*
G01X3405685Y-3157805D01*
G01X3421207Y-3161631D01*
G01X3437193Y-3161631D01*
G01X3452715Y-3157805D01*
G01X3466871Y-3150375D01*
G01X3478837Y-3139774D01*
G01X3487165Y-3127709D01*
G01X4970983Y-3127709D01*
G01X4970983Y-3149081D01*
G01X4974910Y-3170089D01*
G01X4982630Y-3190018D01*
G01X4993881Y-3208188D01*
G01X5008279Y-3223983D01*
G01X5025334Y-3236862D01*
G01X5044466Y-3246388D01*
G01X5065022Y-3252237D01*
G01X5086303Y-3254209D01*
G01X5107583Y-3252237D01*
G01X5128139Y-3246388D01*
G01X5147271Y-3236862D01*
G01X5164326Y-3223983D01*
G01X5178724Y-3208188D01*
G01X5189975Y-3190018D01*
G01X5197695Y-3170089D01*
G01X5201622Y-3149081D01*
G01X5201622Y-3127709D01*
G01X5197695Y-3106701D01*
G01X5189975Y-3086772D01*
G01X5178724Y-3068602D01*
G01X5164326Y-3052808D01*
G01X5147271Y-3039928D01*
G01X5128139Y-3030402D01*
G01X5107583Y-3024553D01*
G01X5086303Y-3022581D01*
G01X5086303Y-3022581D01*
G01X5065022Y-3024553D01*
G01X5044466Y-3030402D01*
G01X5025334Y-3039928D01*
G01X5008279Y-3052808D01*
G01X4993881Y-3068602D01*
G01X4982630Y-3086772D01*
G01X4974910Y-3106701D01*
G01X4970983Y-3127709D01*
G01X3487165Y-3127709D01*
G01X3487918Y-3126618D01*
G01X3493587Y-3111670D01*
G01X3495514Y-3095800D01*
G01X3493587Y-3079930D01*
G01X3487918Y-3064982D01*
G01X3478837Y-3051826D01*
G01X3466871Y-3041225D01*
G01X3452715Y-3033795D01*
G01X3437193Y-3029969D01*
G01X3421207Y-3029969D01*
G01X3405685Y-3033795D01*
G01X3391529Y-3041225D01*
G01X3379563Y-3051826D01*
G01X3370482Y-3064982D01*
G01X3364813Y-3079930D01*
G01X3362886Y-3095800D01*
G01X3362886Y-3095800D01*
G01X3316995Y-3095800D01*
G01X3317614Y-3090700D01*
G01X3315687Y-3074830D01*
G01X3310018Y-3059882D01*
G01X3300937Y-3046726D01*
G01X3288971Y-3036125D01*
G01X3274815Y-3028695D01*
G01X3259293Y-3024869D01*
G01X3243307Y-3024869D01*
G01X3227785Y-3028695D01*
G01X3213629Y-3036125D01*
G01X3201663Y-3046726D01*
G01X3192582Y-3059882D01*
G01X3186913Y-3074830D01*
G01X3184986Y-3090700D01*
G01X3184986Y-3090700D01*
G01X2987827Y-3090700D01*
G01X3098384Y-2980142D01*
G01X3100587Y-2976846D01*
G01X3101360Y-2972958D01*
G01X3101360Y-2614011D01*
G01X3546629Y-2614011D01*
G01X3548032Y-2630173D01*
G01X3553317Y-2645511D01*
G01X3562168Y-2659106D01*
G01X3574055Y-2670146D01*
G01X3588267Y-2677969D01*
G01X3603953Y-2682108D01*
G01X3620174Y-2682314D01*
G01X3627987Y-2695786D01*
G01X3638725Y-2707064D01*
G01X3651798Y-2715527D01*
G01X3666484Y-2720708D01*
G01X3681973Y-2722321D01*
G01X3697411Y-2720278D01*
G01X3711947Y-2714690D01*
G01X3724779Y-2705866D01*
G01X3735200Y-2694293D01*
G01X3737936Y-2709160D01*
G01X3743968Y-2723020D01*
G01X3752983Y-2735155D01*
G01X3764511Y-2744932D01*
G01X3777954Y-2751845D01*
G01X3792613Y-2755534D01*
G01X3807727Y-2755808D01*
G01X3822510Y-2752652D01*
G01X3836194Y-2746229D01*
G01X3838920Y-2744081D01*
G01X4309251Y-2744081D01*
G01X4309795Y-2760329D01*
G01X4314277Y-2775956D01*
G01X4322426Y-2790023D01*
G01X4333753Y-2801685D01*
G01X4322586Y-2813500D01*
G01X4314629Y-2827677D01*
G01X4310361Y-2843364D01*
G01X4310037Y-2859617D01*
G01X4313678Y-2875461D01*
G01X4321064Y-2889944D01*
G01X4331752Y-2902193D01*
G01X4345099Y-2911475D01*
G01X4360304Y-2917230D01*
G01X4376451Y-2919113D01*
G01X4376451Y-2919113D01*
G01X4392572Y-2917010D01*
G01X4407696Y-2911049D01*
G01X4420916Y-2901586D01*
G01X4431436Y-2889192D01*
G01X4438624Y-2874611D01*
G01X4442049Y-2858719D01*
G01X4441505Y-2842471D01*
G01X4437023Y-2826844D01*
G01X4428874Y-2812777D01*
G01X4417547Y-2801115D01*
G01X4428714Y-2789300D01*
G01X4436671Y-2775123D01*
G01X4440939Y-2759437D01*
G01X4441224Y-2745140D01*
G01X4459582Y-2745140D01*
G01X4459992Y-2761053D01*
G01X4464183Y-2776409D01*
G01X4471912Y-2790325D01*
G01X4482735Y-2801997D01*
G01X4472694Y-2814349D01*
G01X4465886Y-2828738D01*
G01X4462703Y-2844334D01*
G01X4463329Y-2860240D01*
G01X4467727Y-2875539D01*
G01X4475644Y-2889348D01*
G01X4486623Y-2900873D01*
G01X4500033Y-2909450D01*
G01X4515101Y-2914584D01*
G01X4530957Y-2915979D01*
G01X4530957Y-2915979D01*
G01X4546690Y-2913555D01*
G01X4561391Y-2907452D01*
G01X4574215Y-2898022D01*
G01X4584422Y-2885807D01*
G01X4590348Y-2873709D01*
G01X4970983Y-2873709D01*
G01X4970983Y-2895081D01*
G01X4974910Y-2916089D01*
G01X4982630Y-2936018D01*
G01X4993881Y-2954188D01*
G01X5008279Y-2969983D01*
G01X5025334Y-2982862D01*
G01X5044466Y-2992388D01*
G01X5065022Y-2998237D01*
G01X5086303Y-3000209D01*
G01X5107583Y-2998237D01*
G01X5128139Y-2992388D01*
G01X5147271Y-2982862D01*
G01X5164326Y-2969983D01*
G01X5178724Y-2954188D01*
G01X5189975Y-2936018D01*
G01X5197695Y-2916089D01*
G01X5201622Y-2895081D01*
G01X5201622Y-2873709D01*
G01X5197695Y-2852701D01*
G01X5189975Y-2832772D01*
G01X5178724Y-2814602D01*
G01X5164326Y-2798808D01*
G01X5147271Y-2785928D01*
G01X5128139Y-2776402D01*
G01X5107583Y-2770553D01*
G01X5086303Y-2768581D01*
G01X5086303Y-2768581D01*
G01X5065022Y-2770553D01*
G01X5044466Y-2776402D01*
G01X5025334Y-2785928D01*
G01X5008279Y-2798808D01*
G01X4993881Y-2814602D01*
G01X4982630Y-2832772D01*
G01X4974910Y-2852701D01*
G01X4970983Y-2873709D01*
G01X4590348Y-2873709D01*
G01X4591424Y-2871512D01*
G01X4594818Y-2855960D01*
G01X4594408Y-2840047D01*
G01X4590217Y-2824691D01*
G01X4582488Y-2810775D01*
G01X4571665Y-2799102D01*
G01X4581706Y-2786751D01*
G01X4588514Y-2772362D01*
G01X4591697Y-2756765D01*
G01X4591071Y-2740860D01*
G01X4586673Y-2725561D01*
G01X4578756Y-2711752D01*
G01X4567776Y-2700227D01*
G01X4554367Y-2691650D01*
G01X4539299Y-2686516D01*
G01X4523443Y-2685121D01*
G01X4507710Y-2687545D01*
G01X4493009Y-2693647D01*
G01X4480185Y-2703078D01*
G01X4469978Y-2715293D01*
G01X4462976Y-2729588D01*
G01X4459582Y-2745140D01*
G01X4441224Y-2745140D01*
G01X4441263Y-2743183D01*
G01X4437622Y-2727339D01*
G01X4430236Y-2712857D01*
G01X4419548Y-2700607D01*
G01X4406201Y-2691325D01*
G01X4390996Y-2685570D01*
G01X4374849Y-2683688D01*
G01X4358728Y-2685790D01*
G01X4343604Y-2691752D01*
G01X4330384Y-2701214D01*
G01X4319864Y-2713608D01*
G01X4312676Y-2728189D01*
G01X4309251Y-2744081D01*
G01X3838920Y-2744081D01*
G01X3848068Y-2736875D01*
G01X3857515Y-2725075D01*
G01X3864045Y-2711442D01*
G01X3867317Y-2696684D01*
G01X3867163Y-2681568D01*
G01X3863589Y-2666881D01*
G01X3856782Y-2653384D01*
G01X3847095Y-2641779D01*
G01X3835032Y-2632670D01*
G01X3821219Y-2626529D01*
G01X3806375Y-2623676D01*
G01X3808036Y-2609245D01*
G01X3806515Y-2594799D01*
G01X3801886Y-2581031D01*
G01X3794370Y-2568601D01*
G01X3784328Y-2558106D01*
G01X3772242Y-2550049D01*
G01X3758691Y-2544816D01*
G01X3758691Y-2544816D01*
G01X3744326Y-2542660D01*
G01X3729837Y-2543682D01*
G01X3715917Y-2547835D01*
G01X3703236Y-2554919D01*
G01X3692402Y-2564595D01*
G01X3683933Y-2576397D01*
G01X3678238Y-2589759D01*
G01X3673776Y-2590100D01*
G01X3665568Y-2576106D01*
G01X3654209Y-2564524D01*
G01X3640377Y-2556047D01*
G01X3624902Y-2551181D01*
G01X3608707Y-2550219D01*
G01X3592764Y-2553217D01*
G01X3578026Y-2559997D01*
G01X3565375Y-2570152D01*
G01X3555568Y-2583075D01*
G01X3549192Y-2597992D01*
G01X3546629Y-2614011D01*
G01X3101360Y-2614011D01*
G01X3101360Y-2521600D01*
G01X3103976Y-2521600D01*
G01X3105903Y-2537470D01*
G01X3111572Y-2552418D01*
G01X3120654Y-2565574D01*
G01X3132620Y-2576175D01*
G01X3146775Y-2583605D01*
G01X3162297Y-2587431D01*
G01X3178284Y-2587431D01*
G01X3193806Y-2583605D01*
G01X3207961Y-2576175D01*
G01X3219927Y-2565574D01*
G01X3229009Y-2552418D01*
G01X3234677Y-2537470D01*
G01X3235876Y-2527599D01*
G01X3397486Y-2527599D01*
G01X3399413Y-2543469D01*
G01X3405082Y-2558417D01*
G01X3414163Y-2571574D01*
G01X3426129Y-2582175D01*
G01X3440285Y-2589604D01*
G01X3455807Y-2593430D01*
G01X3471793Y-2593430D01*
G01X3487315Y-2589604D01*
G01X3501471Y-2582175D01*
G01X3513437Y-2571574D01*
G01X3522518Y-2558417D01*
G01X3528187Y-2543469D01*
G01X3530114Y-2527599D01*
G01X3528187Y-2511729D01*
G01X3522518Y-2496782D01*
G01X3513437Y-2483625D01*
G01X3501471Y-2473024D01*
G01X3487315Y-2465595D01*
G01X3471793Y-2461769D01*
G01X3455807Y-2461769D01*
G01X3440285Y-2465595D01*
G01X3426129Y-2473024D01*
G01X3414163Y-2483625D01*
G01X3405082Y-2496782D01*
G01X3399413Y-2511729D01*
G01X3397486Y-2527599D01*
G01X3397486Y-2527599D01*
G01X3235876Y-2527599D01*
G01X3236604Y-2521600D01*
G01X3234677Y-2505730D01*
G01X3229009Y-2490782D01*
G01X3219927Y-2477626D01*
G01X3207961Y-2467025D01*
G01X3193806Y-2459595D01*
G01X3178284Y-2455769D01*
G01X3162297Y-2455769D01*
G01X3146775Y-2459595D01*
G01X3132620Y-2467025D01*
G01X3120654Y-2477626D01*
G01X3111572Y-2490782D01*
G01X3105903Y-2505730D01*
G01X3103976Y-2521600D01*
G01X3103976Y-2521600D01*
G01X3101360Y-2521600D01*
G01X3101360Y-2355400D01*
G01X3920686Y-2355400D01*
G01X3922613Y-2371270D01*
G01X3928282Y-2386218D01*
G01X3937363Y-2399375D01*
G01X3949329Y-2409976D01*
G01X3963485Y-2417405D01*
G01X3979007Y-2421231D01*
G01X3994993Y-2421231D01*
G01X4010515Y-2417405D01*
G01X4024671Y-2409976D01*
G01X4036637Y-2399375D01*
G01X4045718Y-2386218D01*
G01X4051387Y-2371270D01*
G01X4053314Y-2355400D01*
G01X4051387Y-2339530D01*
G01X4045718Y-2324582D01*
G01X4036637Y-2311426D01*
G01X4024671Y-2300825D01*
G01X4010515Y-2293395D01*
G01X3994993Y-2289570D01*
G01X3979007Y-2289570D01*
G01X3963485Y-2293395D01*
G01X3949329Y-2300825D01*
G01X3937363Y-2311426D01*
G01X3928282Y-2324582D01*
G01X3922613Y-2339530D01*
G01X3920686Y-2355400D01*
G01X3920686Y-2355400D01*
G01X3101360Y-2355400D01*
G01X3101360Y-2244271D01*
G01X3102865Y-2235491D01*
G01X3103180Y-2226588D01*
G01X3110108Y-2219660D01*
G01X3506613Y-2219660D01*
G01X3510501Y-2218887D01*
G01X3513797Y-2216684D01*
G01X3553784Y-2176698D01*
G01X3555986Y-2173404D01*
G01X3556760Y-2169519D01*
G01X3556776Y-2140402D01*
G01X3925686Y-2140402D01*
G01X3927613Y-2156272D01*
G01X3933282Y-2171220D01*
G01X3942363Y-2184377D01*
G01X3954329Y-2194978D01*
G01X3968485Y-2202407D01*
G01X3984007Y-2206233D01*
G01X3999993Y-2206233D01*
G01X4015515Y-2202407D01*
G01X4029671Y-2194978D01*
G01X4041637Y-2184377D01*
G01X4050718Y-2171220D01*
G01X4056387Y-2156272D01*
G01X4058314Y-2140402D01*
G01X4056387Y-2124532D01*
G01X4050718Y-2109585D01*
G01X4041637Y-2096428D01*
G01X4029671Y-2085827D01*
G01X4015515Y-2078398D01*
G01X3999993Y-2074572D01*
G01X3984007Y-2074572D01*
G01X3968485Y-2078398D01*
G01X3954329Y-2085827D01*
G01X3942363Y-2096428D01*
G01X3933282Y-2109585D01*
G01X3927613Y-2124532D01*
G01X3925686Y-2140402D01*
G01X3925686Y-2140402D01*
G01X3556776Y-2140402D01*
G01X3556854Y-2000398D01*
G01X3925686Y-2000398D01*
G01X3927613Y-2016268D01*
G01X3933282Y-2031215D01*
G01X3942363Y-2044372D01*
G01X3954329Y-2054973D01*
G01X3968485Y-2062402D01*
G01X3984007Y-2066228D01*
G01X3999993Y-2066228D01*
G01X4015515Y-2062402D01*
G01X4029671Y-2054973D01*
G01X4041637Y-2044372D01*
G01X4050718Y-2031215D01*
G01X4056387Y-2016268D01*
G01X4058314Y-2000398D01*
G01X4056387Y-1984528D01*
G01X4050718Y-1969580D01*
G01X4041637Y-1956423D01*
G01X4029671Y-1945822D01*
G01X4015515Y-1938393D01*
G01X3999993Y-1934567D01*
G01X3984007Y-1934567D01*
G01X3968485Y-1938393D01*
G01X3954329Y-1945822D01*
G01X3942363Y-1956423D01*
G01X3933282Y-1969580D01*
G01X3927613Y-1984528D01*
G01X3925686Y-2000398D01*
G01X3925686Y-2000398D01*
G01X3556854Y-2000398D01*
G01X3556931Y-1861900D01*
G01X3568986Y-1861900D01*
G01X3570913Y-1877770D01*
G01X3576582Y-1892718D01*
G01X3585663Y-1905874D01*
G01X3597629Y-1916475D01*
G01X3611785Y-1923905D01*
G01X3627307Y-1927731D01*
G01X3643293Y-1927731D01*
G01X3658815Y-1923905D01*
G01X3672970Y-1916475D01*
G01X3684937Y-1905874D01*
G01X3694018Y-1892718D01*
G01X3699687Y-1877770D01*
G01X3701468Y-1863100D01*
G01X3869686Y-1863100D01*
G01X3871613Y-1878970D01*
G01X3877282Y-1893918D01*
G01X3886363Y-1907074D01*
G01X3898329Y-1917675D01*
G01X3912485Y-1925105D01*
G01X3928007Y-1928930D01*
G01X3943993Y-1928930D01*
G01X3959515Y-1925105D01*
G01X3973671Y-1917675D01*
G01X3985637Y-1907074D01*
G01X3994718Y-1893918D01*
G01X4000387Y-1878970D01*
G01X4002314Y-1863100D01*
G01X4000387Y-1847230D01*
G01X3994718Y-1832282D01*
G01X3985637Y-1819126D01*
G01X3973671Y-1808524D01*
G01X3959515Y-1801095D01*
G01X3943993Y-1797269D01*
G01X3928007Y-1797269D01*
G01X3912485Y-1801095D01*
G01X3898329Y-1808524D01*
G01X3886363Y-1819126D01*
G01X3877282Y-1832282D01*
G01X3871613Y-1847230D01*
G01X3869686Y-1863100D01*
G01X3869686Y-1863100D01*
G01X3701468Y-1863100D01*
G01X3701614Y-1861900D01*
G01X3699687Y-1846030D01*
G01X3694018Y-1831082D01*
G01X3684937Y-1817926D01*
G01X3672970Y-1807325D01*
G01X3658815Y-1799895D01*
G01X3643293Y-1796069D01*
G01X3627307Y-1796069D01*
G01X3611785Y-1799895D01*
G01X3597629Y-1807325D01*
G01X3585663Y-1817926D01*
G01X3576582Y-1831082D01*
G01X3570913Y-1846030D01*
G01X3568986Y-1861900D01*
G01X3568986Y-1861900D01*
G01X3556931Y-1861900D01*
G01X3556985Y-1765459D01*
G01X4099742Y-1765459D01*
G01X4106941Y-2370521D01*
G01X4107737Y-2374344D01*
G01X4109916Y-2377584D01*
G01X4118216Y-2385884D01*
G01X4121512Y-2388087D01*
G01X4125400Y-2388860D01*
G01X5560192Y-2388860D01*
G01X5574938Y-2403607D01*
G01X5573400Y-5860940D01*
G01X4820553Y-5860940D01*
G01X4833884Y-5853647D01*
G01X4845205Y-5843510D01*
G01X4853921Y-5831063D01*
G01X4859575Y-5816958D01*
G01X4861869Y-5801937D01*
G01X4860684Y-5786787D01*
G01X4856082Y-5772306D01*
G01X4848303Y-5759252D01*
G01X4837758Y-5748311D01*
G01X4824998Y-5740058D01*
G01X4810696Y-5734927D01*
G01X4795600Y-5733186D01*
G01X4780504Y-5734927D01*
G01X4766202Y-5740058D01*
G01X4753442Y-5748311D01*
G01X4742897Y-5759252D01*
G01X4735118Y-5772306D01*
G01X4730516Y-5786787D01*
G01X4729331Y-5801937D01*
G01X4731625Y-5816958D01*
G01X4737279Y-5831063D01*
G01X4745995Y-5843510D01*
G01X4757316Y-5853647D01*
G01X4770647Y-5860940D01*
G01X4645098Y-5860940D01*
G01X4658625Y-5852116D01*
G01X4669618Y-5840284D01*
G01X4677424Y-5826146D01*
G01X4681581Y-5810539D01*
G01X4681843Y-5794391D01*
G01X4678193Y-5778658D01*
G01X4670848Y-5764275D01*
G01X4660244Y-5752093D01*
G01X4647010Y-5742836D01*
G01X4631930Y-5737052D01*
G01X4615900Y-5735086D01*
G01X4599870Y-5737052D01*
G01X4584790Y-5742836D01*
G01X4571556Y-5752093D01*
G01X4560952Y-5764275D01*
G01X4553607Y-5778658D01*
G01X4549957Y-5794391D01*
G01X4550219Y-5810539D01*
G01X4554376Y-5826146D01*
G01X4562182Y-5840284D01*
G01X4573175Y-5852116D01*
G01X4586702Y-5860940D01*
G37*
G36*
G01X1063019Y-5612310D02*
G01X1043259Y-5632701D01*
G01X1026418Y-5655563D01*
G01X1012802Y-5680481D01*
G01X1002659Y-5707002D01*
G01X996171Y-5734647D01*
G01X993458Y-5762912D01*
G01X994567Y-5791285D01*
G01X999480Y-5819252D01*
G01X1008106Y-5846305D01*
G01X1020290Y-5871954D01*
G01X1035810Y-5895732D01*
G01X1054385Y-5917209D01*
G01X1075677Y-5935995D01*
G01X1099301Y-5951749D01*
G01X1124828Y-5964186D01*
G01X500000Y-5964186D01*
G01X457170Y-5962206D01*
G01X414706Y-5956282D01*
G01X372969Y-5946466D01*
G01X332317Y-5932840D01*
G01X293095Y-5915522D01*
G01X255638Y-5894659D01*
G01X220265Y-5870428D01*
G01X187280Y-5843038D01*
G01X156962Y-5812720D01*
G01X129572Y-5779734D01*
G01X105341Y-5744362D01*
G01X84478Y-5706905D01*
G01X67159Y-5667683D01*
G01X53534Y-5627030D01*
G01X43718Y-5585294D01*
G01X37794Y-5542830D01*
G01X35814Y-5500000D01*
G01X35814Y-5499995D01*
G01X304212Y-5499995D01*
G01X306205Y-5527865D01*
G01X312145Y-5555167D01*
G01X321909Y-5581347D01*
G01X335300Y-5605870D01*
G01X352045Y-5628239D01*
G01X371802Y-5647996D01*
G01X394170Y-5664741D01*
G01X418694Y-5678131D01*
G01X444873Y-5687896D01*
G01X472176Y-5693835D01*
G01X500046Y-5695829D01*
G01X527916Y-5693835D01*
G01X555219Y-5687896D01*
G01X581398Y-5678131D01*
G01X605922Y-5664741D01*
G01X628290Y-5647996D01*
G01X648047Y-5628239D01*
G01X664792Y-5605870D01*
G01X678183Y-5581347D01*
G01X687947Y-5555167D01*
G01X693887Y-5527865D01*
G01X695880Y-5499995D01*
G01X693887Y-5472125D01*
G01X687947Y-5444822D01*
G01X678183Y-5418642D01*
G01X664792Y-5394119D01*
G01X648047Y-5371751D01*
G01X628290Y-5351993D01*
G01X605922Y-5335249D01*
G01X581398Y-5321858D01*
G01X555219Y-5312093D01*
G01X527916Y-5306154D01*
G01X500046Y-5304161D01*
G01X472176Y-5306154D01*
G01X444873Y-5312093D01*
G01X418694Y-5321858D01*
G01X394170Y-5335249D01*
G01X371802Y-5351993D01*
G01X352045Y-5371751D01*
G01X335300Y-5394119D01*
G01X321909Y-5418642D01*
G01X312145Y-5444822D01*
G01X306205Y-5472125D01*
G01X304212Y-5499995D01*
G01X304212Y-5499995D01*
G01X35814Y-5499995D01*
G01X35814Y-3857615D01*
G01X75250Y-3857615D01*
G01X78942Y-3879740D01*
G01X86225Y-3900956D01*
G01X96901Y-3920683D01*
G01X110679Y-3938384D01*
G01X127181Y-3953576D01*
G01X145960Y-3965845D01*
G01X166501Y-3974855D01*
G01X188246Y-3980361D01*
G01X210600Y-3982214D01*
G01X232954Y-3980361D01*
G01X254699Y-3974855D01*
G01X275240Y-3965845D01*
G01X294019Y-3953576D01*
G01X310521Y-3938384D01*
G01X324299Y-3920683D01*
G01X334975Y-3900956D01*
G01X342258Y-3879740D01*
G01X345950Y-3857615D01*
G01X345950Y-3835185D01*
G01X342258Y-3813060D01*
G01X334975Y-3791844D01*
G01X324299Y-3772117D01*
G01X310521Y-3754416D01*
G01X294019Y-3739224D01*
G01X275240Y-3726955D01*
G01X254699Y-3717945D01*
G01X232954Y-3712439D01*
G01X210600Y-3710586D01*
G01X210600Y-3710586D01*
G01X188246Y-3712439D01*
G01X166501Y-3717945D01*
G01X145960Y-3726955D01*
G01X127181Y-3739224D01*
G01X110679Y-3754416D01*
G01X96901Y-3772117D01*
G01X86225Y-3791844D01*
G01X78942Y-3813060D01*
G01X75250Y-3835185D01*
G01X75250Y-3857615D01*
G01X35814Y-3857615D01*
G01X35814Y-3349615D01*
G01X75250Y-3349615D01*
G01X78942Y-3371740D01*
G01X86225Y-3392956D01*
G01X96901Y-3412683D01*
G01X110679Y-3430384D01*
G01X127181Y-3445576D01*
G01X145960Y-3457845D01*
G01X166501Y-3466855D01*
G01X188246Y-3472361D01*
G01X210600Y-3474214D01*
G01X232954Y-3472361D01*
G01X254699Y-3466855D01*
G01X275240Y-3457845D01*
G01X294019Y-3445576D01*
G01X310521Y-3430384D01*
G01X324299Y-3412683D01*
G01X334975Y-3392956D01*
G01X342258Y-3371740D01*
G01X345950Y-3349615D01*
G01X345950Y-3327185D01*
G01X342258Y-3305060D01*
G01X334975Y-3283844D01*
G01X324299Y-3264117D01*
G01X310521Y-3246416D01*
G01X294019Y-3231224D01*
G01X275240Y-3218955D01*
G01X254699Y-3209945D01*
G01X232954Y-3204439D01*
G01X210600Y-3202586D01*
G01X210600Y-3202586D01*
G01X188246Y-3204439D01*
G01X166501Y-3209945D01*
G01X145960Y-3218955D01*
G01X127181Y-3231224D01*
G01X110679Y-3246416D01*
G01X96901Y-3264117D01*
G01X86225Y-3283844D01*
G01X78942Y-3305060D01*
G01X75250Y-3327185D01*
G01X75250Y-3349615D01*
G01X35814Y-3349615D01*
G01X35814Y-1329900D01*
G01X331486Y-1329900D01*
G01X333413Y-1345770D01*
G01X339082Y-1360718D01*
G01X348163Y-1373874D01*
G01X360129Y-1384475D01*
G01X374285Y-1391905D01*
G01X389807Y-1395731D01*
G01X405793Y-1395731D01*
G01X421315Y-1391905D01*
G01X435471Y-1384475D01*
G01X447437Y-1373874D01*
G01X456518Y-1360718D01*
G01X462187Y-1345770D01*
G01X464114Y-1329900D01*
G01X462187Y-1314030D01*
G01X456518Y-1299082D01*
G01X447437Y-1285926D01*
G01X435471Y-1275325D01*
G01X421315Y-1267895D01*
G01X405793Y-1264069D01*
G01X389807Y-1264069D01*
G01X374285Y-1267895D01*
G01X360129Y-1275325D01*
G01X348163Y-1285926D01*
G01X339082Y-1299082D01*
G01X333413Y-1314030D01*
G01X331486Y-1329900D01*
G01X331486Y-1329900D01*
G01X35814Y-1329900D01*
G01X35814Y-1193795D01*
G01X330259Y-1193795D01*
G01X331374Y-1209398D01*
G01X336114Y-1224305D01*
G01X344213Y-1237688D01*
G01X355222Y-1248801D01*
G01X368528Y-1257026D01*
G01X383390Y-1261905D01*
G01X398982Y-1263168D01*
G01X414436Y-1260743D01*
G01X428891Y-1254765D01*
G01X441544Y-1245568D01*
G01X451691Y-1233663D01*
G01X458767Y-1219712D01*
G01X469914Y-1240326D01*
G01X484120Y-1258964D01*
G01X501042Y-1275177D01*
G01X488897Y-1283624D01*
G01X478927Y-1294555D01*
G01X471628Y-1307423D01*
G01X467364Y-1321589D01*
G01X466347Y-1336348D01*
G01X468627Y-1350966D01*
G01X474091Y-1364714D01*
G01X482467Y-1376908D01*
G01X493339Y-1386943D01*
G01X506164Y-1394317D01*
G01X520305Y-1398664D01*
G01X535058Y-1399769D01*
G01X549688Y-1397575D01*
G01X563468Y-1392192D01*
G01X575712Y-1383887D01*
G01X585810Y-1373076D01*
G01X593260Y-1360294D01*
G01X597691Y-1346179D01*
G01X603104Y-1360682D01*
G01X611732Y-1373534D01*
G01X623104Y-1384037D01*
G01X636602Y-1391616D01*
G01X651489Y-1395860D01*
G01X666954Y-1396536D01*
G01X682155Y-1393609D01*
G01X696263Y-1387237D01*
G01X708509Y-1377768D01*
G01X718227Y-1365718D01*
G01X727943Y-1376832D01*
G01X739878Y-1385522D01*
G01X753439Y-1391355D01*
G01X767955Y-1394044D01*
G01X782706Y-1393455D01*
G01X796961Y-1389617D01*
G01X810014Y-1382720D01*
G01X821218Y-1373106D01*
G01X830017Y-1361252D01*
G01X839951Y-1373933D01*
G01X852650Y-1383845D01*
G01X867365Y-1390402D01*
G01X883226Y-1393218D01*
G01X899298Y-1392126D01*
G01X914633Y-1387190D01*
G01X928325Y-1378703D01*
G01X939567Y-1367165D01*
G01X950567Y-1377127D01*
G01X963508Y-1384393D01*
G01X977741Y-1388599D01*
G01X992552Y-1389534D01*
G01X1007201Y-1387153D01*
G01X1020953Y-1381573D01*
G01X1033119Y-1373074D01*
G01X1043091Y-1362082D01*
G01X1055283Y-1372521D01*
G01X1069625Y-1379725D01*
G01X1085277Y-1383272D01*
G01X1101324Y-1382955D01*
G01X1116824Y-1378792D01*
G01X1130871Y-1371027D01*
G01X1142640Y-1360115D01*
G01X1154235Y-1369578D01*
G01X1167656Y-1376201D01*
G01X1182221Y-1379644D01*
G01X1197187Y-1379734D01*
G01X1211792Y-1376466D01*
G01X1225292Y-1370006D01*
G01X1237000Y-1360683D01*
G01X1247219Y-1371304D01*
G01X1259532Y-1379406D01*
G01X1273331Y-1384587D01*
G01X1287933Y-1386593D01*
G01X1302618Y-1385324D01*
G01X1316659Y-1380842D01*
G01X1329364Y-1373369D01*
G01X1340104Y-1363275D01*
G01X1348350Y-1351058D01*
G01X1356892Y-1363119D01*
G01X1367895Y-1372990D01*
G01X1380810Y-1380177D01*
G01X1394996Y-1384326D01*
G01X1409749Y-1385229D01*
G01X1424336Y-1382842D01*
G01X1438032Y-1377284D01*
G01X1450156Y-1368830D01*
G01X1460106Y-1357900D01*
G01X1469733Y-1370215D01*
G01X1481975Y-1379934D01*
G01X1496152Y-1386518D01*
G01X1511476Y-1389600D01*
G01X1527096Y-1389010D01*
G01X1542144Y-1384780D01*
G01X1544526Y-1399824D01*
G01X1550278Y-1413928D01*
G01X1559097Y-1426348D01*
G01X1570516Y-1436428D01*
G01X1558791Y-1446637D01*
G01X1549765Y-1459295D01*
G01X1543935Y-1473707D01*
G01X1541620Y-1489080D01*
G01X1542948Y-1504570D01*
G01X1547845Y-1519325D01*
G01X1556044Y-1532534D01*
G01X1567092Y-1543471D01*
G01X1557425Y-1554234D01*
G01X1550322Y-1566838D01*
G01X1546121Y-1580681D01*
G01X1545023Y-1595107D01*
G01X1547078Y-1609427D01*
G01X1552191Y-1622961D01*
G01X1560116Y-1635064D01*
G01X1570478Y-1645160D01*
G01X1560394Y-1657491D01*
G01X1553542Y-1671871D01*
G01X1550317Y-1687470D01*
G01X1550905Y-1703388D01*
G01X1555271Y-1718707D01*
G01X1563165Y-1732542D01*
G01X1574130Y-1744096D01*
G01X1587535Y-1752702D01*
G01X1602604Y-1757863D01*
G01X1604923Y-1773752D01*
G01X1610994Y-1788618D01*
G01X1620459Y-1801588D01*
G01X1632764Y-1811904D01*
G01X1647189Y-1818959D01*
G01X1662886Y-1822341D01*
G01X1678935Y-1821850D01*
G01X1694397Y-1817517D01*
G01X1708363Y-1809594D01*
G01X1720016Y-1798546D01*
G01X1720016Y-1798546D01*
G01X1728513Y-1810791D01*
G01X1739531Y-1820828D01*
G01X1752512Y-1828152D01*
G01X1766800Y-1832392D01*
G01X1781675Y-1833333D01*
G01X1796384Y-1830929D01*
G01X1810185Y-1825300D01*
G01X1822380Y-1816732D01*
G01X1832354Y-1805656D01*
G01X1839602Y-1792633D01*
G01X1848430Y-1805337D01*
G01X1859961Y-1815649D01*
G01X1873568Y-1823010D01*
G01X1888510Y-1827017D01*
G01X1903974Y-1827453D01*
G01X1919118Y-1824295D01*
G01X1933119Y-1817714D01*
G01X1945213Y-1808068D01*
G01X1957923Y-1816702D01*
G01X1972279Y-1822179D01*
G01X1987511Y-1824205D01*
G01X2002799Y-1822672D01*
G01X2017324Y-1817661D01*
G01X2030306Y-1809441D01*
G01X2041048Y-1798454D01*
G01X2048973Y-1785290D01*
G01X2053656Y-1770656D01*
G01X2054845Y-1755337D01*
G01X2052476Y-1740155D01*
G01X2046677Y-1725926D01*
G01X2037759Y-1713414D01*
G01X2026200Y-1703290D01*
G01X2012622Y-1696097D01*
G01X1997753Y-1692223D01*
G01X1982392Y-1691875D01*
G01X1967362Y-1695072D01*
G01X1953472Y-1701642D01*
G01X1941467Y-1711232D01*
G01X1928532Y-1702481D01*
G01X1913910Y-1696998D01*
G01X1898410Y-1695087D01*
G01X1882893Y-1696853D01*
G01X1868220Y-1702199D01*
G01X1855204Y-1710829D01*
G01X1844567Y-1722263D01*
G01X1836899Y-1735867D01*
G01X1827573Y-1722608D01*
G01X1815309Y-1712007D01*
G01X1800840Y-1704698D01*
G01X1785029Y-1701118D01*
G01X1768823Y-1701481D01*
G01X1753189Y-1705765D01*
G01X1739061Y-1713715D01*
G01X1727284Y-1724854D01*
G01X1719153Y-1713032D01*
G01X1708670Y-1703235D01*
G01X1696325Y-1695923D01*
G01X1682696Y-1691437D01*
G01X1680740Y-1676941D01*
G01X1675655Y-1663227D01*
G01X1667686Y-1650961D01*
G01X1657223Y-1640740D01*
G01X1667449Y-1628182D01*
G01X1674327Y-1613521D01*
G01X1677445Y-1597629D01*
G01X1676619Y-1581455D01*
G01X1671897Y-1565964D01*
G01X1663561Y-1552079D01*
G01X1652108Y-1540629D01*
G01X1662040Y-1529494D01*
G01X1669231Y-1516420D01*
G01X1673317Y-1502070D01*
G01X1674091Y-1487169D01*
G01X1671515Y-1472473D01*
G01X1665718Y-1458724D01*
G01X1656993Y-1446620D01*
G01X1645784Y-1436772D01*
G01X1657934Y-1426090D01*
G01X1667136Y-1412784D01*
G01X1672842Y-1397646D01*
G01X1674713Y-1381576D01*
G01X1672637Y-1365532D01*
G01X1668425Y-1354778D01*
G01X1931014Y-1354778D01*
G01X1931089Y-1370450D01*
G01X1934839Y-1385666D01*
G01X1942056Y-1399578D01*
G01X1952335Y-1411408D01*
G01X1942929Y-1423943D01*
G01X1936726Y-1438335D01*
G01X1934074Y-1453781D01*
G01X1935121Y-1469418D01*
G01X1939809Y-1484373D01*
G01X1947875Y-1497810D01*
G01X1958869Y-1508978D01*
G01X1972177Y-1517255D01*
G01X1987056Y-1522178D01*
G01X2002674Y-1523472D01*
G01X2002674Y-1523472D01*
G01X2018160Y-1521064D01*
G01X2032649Y-1515089D01*
G01X2045330Y-1505881D01*
G01X2055497Y-1493954D01*
G01X2062581Y-1479974D01*
G01X2066186Y-1464722D01*
G01X2066111Y-1449050D01*
G01X2062361Y-1433834D01*
G01X2055144Y-1419922D01*
G01X2044865Y-1408092D01*
G01X2054272Y-1395558D01*
G01X2060474Y-1381165D01*
G01X2063126Y-1365719D01*
G01X2062079Y-1350082D01*
G01X2057391Y-1335127D01*
G01X2049325Y-1321690D01*
G01X2038331Y-1310522D01*
G01X2025023Y-1302245D01*
G01X2010144Y-1297322D01*
G01X1994526Y-1296028D01*
G01X1979040Y-1298436D01*
G01X1964551Y-1304411D01*
G01X1951870Y-1313619D01*
G01X1941703Y-1325546D01*
G01X1934619Y-1339526D01*
G01X1931014Y-1354778D01*
G01X1668425Y-1354778D01*
G01X1666737Y-1350468D01*
G01X1657366Y-1337280D01*
G01X1645081Y-1326754D01*
G01X1630612Y-1319517D01*
G01X1614821Y-1315998D01*
G01X1598648Y-1316407D01*
G01X1583056Y-1320720D01*
G01X1580360Y-1304587D01*
G01X1573797Y-1289605D01*
G01X1563767Y-1276685D01*
G01X1550880Y-1266613D01*
G01X1535919Y-1260002D01*
G01X1519795Y-1257254D01*
G01X1503489Y-1258536D01*
G01X1487993Y-1263770D01*
G01X1474249Y-1272638D01*
G01X1463094Y-1284600D01*
G01X1453532Y-1272350D01*
G01X1441381Y-1262663D01*
G01X1427309Y-1256069D01*
G01X1412089Y-1252930D01*
G01X1396557Y-1253420D01*
G01X1381565Y-1257512D01*
G01X1367937Y-1264980D01*
G01X1356422Y-1275414D01*
G01X1347650Y-1288242D01*
G01X1338748Y-1275780D01*
G01X1327223Y-1265692D01*
G01X1313692Y-1258517D01*
G01X1298875Y-1254638D01*
G01X1283564Y-1254261D01*
G01X1268575Y-1257407D01*
G01X1254707Y-1263908D01*
G01X1242700Y-1273417D01*
G01X1232461Y-1262779D01*
G01X1220121Y-1254671D01*
G01X1206293Y-1249493D01*
G01X1191662Y-1247504D01*
G01X1176954Y-1248802D01*
G01X1162897Y-1253322D01*
G01X1150189Y-1260841D01*
G01X1139460Y-1270985D01*
G01X1128322Y-1261817D01*
G01X1115465Y-1255276D01*
G01X1101497Y-1251669D01*
G01X1087080Y-1251169D01*
G01X1072896Y-1253797D01*
G01X1059616Y-1259431D01*
G01X1047868Y-1267803D01*
G01X1038209Y-1278518D01*
G01X1027328Y-1268973D01*
G01X1014635Y-1262017D01*
G01X1000736Y-1257980D01*
G01X986292Y-1257054D01*
G01X971991Y-1259285D01*
G01X958514Y-1264565D01*
G01X946505Y-1272643D01*
G01X936534Y-1283135D01*
G01X924873Y-1272704D01*
G01X911093Y-1265296D01*
G01X895961Y-1261322D01*
G01X880319Y-1261003D01*
G01X865037Y-1264358D01*
G01X850968Y-1271200D01*
G01X838892Y-1281148D01*
G01X829483Y-1293648D01*
G01X820348Y-1281778D01*
G01X808782Y-1272261D01*
G01X795375Y-1265583D01*
G01X780811Y-1262084D01*
G01X765833Y-1261942D01*
G01X751206Y-1265166D01*
G01X737675Y-1271590D01*
G01X725931Y-1280887D01*
G01X716573Y-1292582D01*
G01X706880Y-1281489D01*
G01X694977Y-1272810D01*
G01X711193Y-1256547D01*
G01X724751Y-1238011D01*
G01X735338Y-1217632D01*
G01X742708Y-1195881D01*
G01X746689Y-1173263D01*
G01X746846Y-1166100D01*
G01X1713786Y-1166100D01*
G01X1715693Y-1186683D01*
G01X1721350Y-1206564D01*
G01X1730564Y-1225068D01*
G01X1743021Y-1241563D01*
G01X1758296Y-1255489D01*
G01X1775871Y-1266371D01*
G01X1795146Y-1273838D01*
G01X1815465Y-1277636D01*
G01X1836135Y-1277636D01*
G01X1856454Y-1273838D01*
G01X1875729Y-1266371D01*
G01X1893304Y-1255489D01*
G01X1908579Y-1241563D01*
G01X1921036Y-1225068D01*
G01X1927792Y-1211500D01*
G01X1933286Y-1211500D01*
G01X1935213Y-1227370D01*
G01X1940882Y-1242318D01*
G01X1949963Y-1255474D01*
G01X1961929Y-1266075D01*
G01X1976085Y-1273505D01*
G01X1991607Y-1277331D01*
G01X2007593Y-1277331D01*
G01X2023115Y-1273505D01*
G01X2037271Y-1266075D01*
G01X2049237Y-1255474D01*
G01X2058318Y-1242318D01*
G01X2063987Y-1227370D01*
G01X2065914Y-1211500D01*
G01X2063987Y-1195630D01*
G01X2058318Y-1180682D01*
G01X2049237Y-1167526D01*
G01X2037271Y-1156925D01*
G01X2023115Y-1149495D01*
G01X2007593Y-1145669D01*
G01X1991607Y-1145669D01*
G01X1976085Y-1149495D01*
G01X1961929Y-1156925D01*
G01X1949963Y-1167526D01*
G01X1940882Y-1180682D01*
G01X1935213Y-1195630D01*
G01X1933286Y-1211500D01*
G01X1933286Y-1211500D01*
G01X1927792Y-1211500D01*
G01X1930250Y-1206564D01*
G01X1935907Y-1186683D01*
G01X1937814Y-1166100D01*
G01X1935907Y-1145518D01*
G01X1930250Y-1125636D01*
G01X1921036Y-1107132D01*
G01X1908579Y-1090637D01*
G01X1893304Y-1076711D01*
G01X1883595Y-1070700D01*
G01X1940086Y-1070700D01*
G01X1942039Y-1086675D01*
G01X1947783Y-1101709D01*
G01X1956980Y-1114917D01*
G01X1969087Y-1125520D01*
G01X1983392Y-1132895D01*
G01X1999053Y-1136606D01*
G01X2015146Y-1136435D01*
G01X2030724Y-1132392D01*
G01X2044869Y-1124715D01*
G01X2056749Y-1113857D01*
G01X2065663Y-1100457D01*
G01X2071086Y-1085304D01*
G01X2071086Y-1995434D01*
G01X2069271Y-2144740D01*
G01X2067336Y-2153446D01*
G01X2066686Y-2162341D01*
G01X2066686Y-3221798D01*
G01X2067862Y-3233740D01*
G01X2071346Y-3245223D01*
G01X2077002Y-3255806D01*
G01X2084615Y-3265083D01*
G01X2192930Y-3373397D01*
G01X2192930Y-3373397D01*
G01X2195344Y-3376013D01*
G01X2197271Y-3378403D01*
G01X2202292Y-3385518D01*
G01X2206132Y-3391267D01*
G01X2215614Y-3403293D01*
G01X2215804Y-3403484D01*
G01X2227417Y-3412709D01*
G01X2240789Y-3419122D01*
G01X2255252Y-3422403D01*
G01X2270082Y-3422388D01*
G01X2284538Y-3419077D01*
G01X2297898Y-3412637D01*
G01X2309491Y-3403389D01*
G01X2318739Y-3391795D01*
G01X2325180Y-3378436D01*
G01X2328491Y-3363980D01*
G01X2328506Y-3349149D01*
G01X2325224Y-3334686D01*
G01X2318811Y-3321314D01*
G01X2309586Y-3309702D01*
G01X2309396Y-3309511D01*
G01X2297369Y-3300029D01*
G01X2291620Y-3296189D01*
G01X2284506Y-3291169D01*
G01X2282115Y-3289242D01*
G01X2279498Y-3286826D01*
G01X2189114Y-3196442D01*
G01X2189114Y-2340141D01*
G01X2190885Y-2319896D01*
G01X2196145Y-2300266D01*
G01X2204734Y-2281848D01*
G01X2216390Y-2265201D01*
G01X2230760Y-2250831D01*
G01X2247407Y-2239174D01*
G01X2265825Y-2230586D01*
G01X2285455Y-2225326D01*
G01X2305700Y-2223555D01*
G01X2353186Y-2223555D01*
G01X2363125Y-2223806D01*
G01X2372835Y-2224313D01*
G01X2373259Y-2224333D01*
G01X2382069Y-2224689D01*
G01X2384730Y-2224698D01*
G01X2394767Y-2224174D01*
G01X2409193Y-2220619D01*
G01X2422468Y-2213946D01*
G01X2433927Y-2204489D01*
G01X2442997Y-2192722D01*
G01X2449224Y-2179232D01*
G01X2452296Y-2164695D01*
G01X2452059Y-2149840D01*
G01X2448484Y-2135419D01*
G01X2441792Y-2122154D01*
G01X2432318Y-2110708D01*
G01X2420537Y-2101655D01*
G01X2407038Y-2095448D01*
G01X2392497Y-2092398D01*
G01X2377642Y-2092656D01*
G01X2369561Y-2094236D01*
G01X2361738Y-2096805D01*
G01X2356261Y-2098655D01*
G01X2348885Y-2100685D01*
G01X2347166Y-2100972D01*
G01X2344658Y-2101127D01*
G01X2310100Y-2101127D01*
G01X2289855Y-2099355D01*
G01X2270225Y-2094096D01*
G01X2251807Y-2085507D01*
G01X2235160Y-2073851D01*
G01X2220790Y-2059481D01*
G01X2209134Y-2042834D01*
G01X2200545Y-2024415D01*
G01X2195285Y-2004786D01*
G01X2193514Y-1984541D01*
G01X2193514Y-1166100D01*
G01X2221786Y-1166100D01*
G01X2223693Y-1186683D01*
G01X2229350Y-1206564D01*
G01X2238564Y-1225068D01*
G01X2251021Y-1241563D01*
G01X2266296Y-1255489D01*
G01X2283871Y-1266371D01*
G01X2303146Y-1273838D01*
G01X2323465Y-1277636D01*
G01X2344135Y-1277636D01*
G01X2364454Y-1273838D01*
G01X2383729Y-1266371D01*
G01X2401304Y-1255489D01*
G01X2416579Y-1241563D01*
G01X2429036Y-1225068D01*
G01X2438250Y-1206564D01*
G01X2443907Y-1186683D01*
G01X2445814Y-1166100D01*
G01X2443907Y-1145518D01*
G01X2438250Y-1125636D01*
G01X2429036Y-1107132D01*
G01X2416579Y-1090637D01*
G01X2401304Y-1076711D01*
G01X2383729Y-1065829D01*
G01X2364454Y-1058362D01*
G01X2344135Y-1054564D01*
G01X2323465Y-1054564D01*
G01X2303146Y-1058362D01*
G01X2283871Y-1065829D01*
G01X2266296Y-1076711D01*
G01X2251021Y-1090637D01*
G01X2238564Y-1107132D01*
G01X2229350Y-1125636D01*
G01X2223693Y-1145518D01*
G01X2221786Y-1166100D01*
G01X2221786Y-1166100D01*
G01X2193514Y-1166100D01*
G01X2193514Y-987556D01*
G01X2231056Y-950014D01*
G01X3189412Y-950014D01*
G01X3201358Y-971504D01*
G01X3210810Y-994201D01*
G01X3217649Y-1017817D01*
G01X3221787Y-1042053D01*
G01X3223173Y-1066600D01*
G01X3223173Y-1073660D01*
G01X3178303Y-1118529D01*
G01X3175687Y-1120944D01*
G01X3173297Y-1122871D01*
G01X3166183Y-1127892D01*
G01X3160433Y-1131732D01*
G01X3148407Y-1141214D01*
G01X3148216Y-1141404D01*
G01X3138991Y-1153017D01*
G01X3132578Y-1166389D01*
G01X3129297Y-1180852D01*
G01X3129312Y-1195682D01*
G01X3132622Y-1210139D01*
G01X3139063Y-1223498D01*
G01X3148311Y-1235091D01*
G01X3159905Y-1244340D01*
G01X3173264Y-1250780D01*
G01X3187720Y-1254091D01*
G01X3202551Y-1254106D01*
G01X3217014Y-1250825D01*
G01X3230386Y-1244411D01*
G01X3241998Y-1235186D01*
G01X3242189Y-1234996D01*
G01X3251671Y-1222969D01*
G01X3255510Y-1217220D01*
G01X3260531Y-1210106D01*
G01X3262458Y-1207715D01*
G01X3264873Y-1205099D01*
G01X3327671Y-1142301D01*
G01X3335284Y-1133025D01*
G01X3340941Y-1122441D01*
G01X3344424Y-1110958D01*
G01X3345601Y-1099016D01*
G01X3345601Y-1066600D01*
G01X3346986Y-1042053D01*
G01X3351124Y-1017817D01*
G01X3357963Y-994201D01*
G01X3367415Y-971504D01*
G01X3379361Y-950014D01*
G01X3700710Y-950014D01*
G01X3712656Y-971504D01*
G01X3722108Y-994201D01*
G01X3728947Y-1017817D01*
G01X3733085Y-1042053D01*
G01X3734471Y-1066600D01*
G01X3734471Y-1331787D01*
G01X3735647Y-1343729D01*
G01X3739130Y-1355213D01*
G01X3744787Y-1365796D01*
G01X3752400Y-1375072D01*
G01X3881029Y-1503701D01*
G01X3883444Y-1506318D01*
G01X3885371Y-1508708D01*
G01X3890392Y-1515822D01*
G01X3894232Y-1521572D01*
G01X3903503Y-1533386D01*
G01X3392617Y-1533386D01*
G01X3389057Y-1533243D01*
G01X3386004Y-1532916D01*
G01X3377424Y-1531436D01*
G01X3370639Y-1530084D01*
G01X3355300Y-1528286D01*
G01X3339961Y-1530084D01*
G01X3333175Y-1531436D01*
G01X3324595Y-1532916D01*
G01X3321543Y-1533243D01*
G01X3317983Y-1533386D01*
G01X2791391Y-1533386D01*
G01X2781528Y-1534186D01*
G01X2742977Y-1534186D01*
G01X2731031Y-1512696D01*
G01X2721579Y-1490000D01*
G01X2714740Y-1466383D01*
G01X2710602Y-1442147D01*
G01X2709216Y-1417600D01*
G01X2709216Y-1323317D01*
G01X2709359Y-1319757D01*
G01X2709687Y-1316704D01*
G01X2711167Y-1308124D01*
G01X2712518Y-1301340D01*
G01X2714314Y-1286524D01*
G01X2712752Y-1271682D01*
G01X2707911Y-1257565D01*
G01X2700035Y-1244889D01*
G01X2689524Y-1234294D01*
G01X2676910Y-1226318D01*
G01X2662832Y-1221365D01*
G01X2648002Y-1219686D01*
G01X2633173Y-1221365D01*
G01X2619095Y-1226318D01*
G01X2606481Y-1234294D01*
G01X2595970Y-1244889D01*
G01X2588094Y-1257565D01*
G01X2583252Y-1271682D01*
G01X2581690Y-1286524D01*
G01X2583487Y-1301340D01*
G01X2584838Y-1308124D01*
G01X2586318Y-1316704D01*
G01X2586646Y-1319757D01*
G01X2586788Y-1323317D01*
G01X2586788Y-1417600D01*
G01X2585403Y-1442147D01*
G01X2581265Y-1466383D01*
G01X2574426Y-1490000D01*
G01X2564974Y-1512696D01*
G01X2553028Y-1534186D01*
G01X2436600Y-1534186D01*
G01X2424658Y-1535362D01*
G01X2413175Y-1538846D01*
G01X2402591Y-1544502D01*
G01X2393315Y-1552115D01*
G01X2369401Y-1576029D01*
G01X2366785Y-1578444D01*
G01X2364394Y-1580371D01*
G01X2357280Y-1585392D01*
G01X2351531Y-1589232D01*
G01X2339504Y-1598714D01*
G01X2339314Y-1598904D01*
G01X2330089Y-1610517D01*
G01X2323676Y-1623889D01*
G01X2320394Y-1638352D01*
G01X2320409Y-1653182D01*
G01X2323720Y-1667639D01*
G01X2330161Y-1680998D01*
G01X2339409Y-1692591D01*
G01X2351003Y-1701840D01*
G01X2364362Y-1708280D01*
G01X2378818Y-1711591D01*
G01X2393648Y-1711606D01*
G01X2408111Y-1708325D01*
G01X2421483Y-1701911D01*
G01X2433096Y-1692686D01*
G01X2433286Y-1692496D01*
G01X2442768Y-1680469D01*
G01X2446608Y-1674720D01*
G01X2451629Y-1667606D01*
G01X2453556Y-1665215D01*
G01X2455971Y-1662599D01*
G01X2461956Y-1656614D01*
G01X2730177Y-1656614D01*
G01X2730175Y-2006811D01*
G01X2730175Y-3324955D01*
G01X2254301Y-3800829D01*
G01X2251685Y-3803244D01*
G01X2249294Y-3805171D01*
G01X2242180Y-3810192D01*
G01X2236431Y-3814032D01*
G01X2224404Y-3823514D01*
G01X2224214Y-3823704D01*
G01X2214989Y-3835317D01*
G01X2208575Y-3848689D01*
G01X2205294Y-3863152D01*
G01X2205309Y-3877982D01*
G01X2208620Y-3892439D01*
G01X2215060Y-3905798D01*
G01X2224309Y-3917391D01*
G01X2235902Y-3926639D01*
G01X2249261Y-3933080D01*
G01X2263718Y-3936391D01*
G01X2278548Y-3936406D01*
G01X2293011Y-3933124D01*
G01X2306383Y-3926711D01*
G01X2317996Y-3917486D01*
G01X2318186Y-3917296D01*
G01X2327668Y-3905269D01*
G01X2331508Y-3899520D01*
G01X2336529Y-3892406D01*
G01X2338456Y-3890015D01*
G01X2340871Y-3887399D01*
G01X2834674Y-3393595D01*
G01X2842287Y-3384319D01*
G01X2847944Y-3373736D01*
G01X2851427Y-3362253D01*
G01X2852603Y-3350311D01*
G01X2852603Y-2101785D01*
G01X2874093Y-2089839D01*
G01X2896790Y-2080387D01*
G01X2920406Y-2073548D01*
G01X2944642Y-2069410D01*
G01X2969189Y-2068025D01*
G01X2983683Y-2068025D01*
G01X2987243Y-2068167D01*
G01X2990296Y-2068495D01*
G01X2998876Y-2069975D01*
G01X3005661Y-2071326D01*
G01X3020477Y-2073123D01*
G01X3035319Y-2071560D01*
G01X3049435Y-2066719D01*
G01X3062112Y-2058843D01*
G01X3072706Y-2048332D01*
G01X3080682Y-2035718D01*
G01X3085635Y-2021640D01*
G01X3087314Y-2006811D01*
G01X3085635Y-1991981D01*
G01X3080682Y-1977903D01*
G01X3072706Y-1965289D01*
G01X3062112Y-1954778D01*
G01X3049435Y-1946902D01*
G01X3035319Y-1942061D01*
G01X3020477Y-1940499D01*
G01X3005661Y-1942295D01*
G01X2998876Y-1943646D01*
G01X2990296Y-1945126D01*
G01X2987243Y-1945454D01*
G01X2983683Y-1945597D01*
G01X2969189Y-1945597D01*
G01X2944642Y-1944211D01*
G01X2920406Y-1940073D01*
G01X2896790Y-1933234D01*
G01X2874093Y-1923782D01*
G01X2852604Y-1911836D01*
G01X2852605Y-1655814D01*
G01X3317983Y-1655814D01*
G01X3321543Y-1655957D01*
G01X3324596Y-1656284D01*
G01X3333175Y-1657764D01*
G01X3339960Y-1659115D01*
G01X3355300Y-1660914D01*
G01X3370640Y-1659115D01*
G01X3377424Y-1657764D01*
G01X3386004Y-1656284D01*
G01X3389057Y-1655957D01*
G01X3392617Y-1655814D01*
G01X4420899Y-1655814D01*
G01X4453426Y-1657411D01*
G01X4485640Y-1662185D01*
G01X4517232Y-1670092D01*
G01X4547898Y-1681055D01*
G01X4577342Y-1694969D01*
G01X4605282Y-1711699D01*
G01X4631449Y-1731086D01*
G01X4655592Y-1752942D01*
G01X5082854Y-2180204D01*
G01X5088472Y-2186298D01*
G01X5093756Y-2200799D01*
G01X5102248Y-2213686D01*
G01X5113490Y-2224260D01*
G01X5126871Y-2231950D01*
G01X5141668Y-2236339D01*
G01X5157078Y-2237188D01*
G01X5172267Y-2234453D01*
G01X5186412Y-2228280D01*
G01X5198748Y-2219005D01*
G01X5208605Y-2207129D01*
G01X5215451Y-2193297D01*
G01X5218913Y-2178257D01*
G01X5218806Y-2162824D01*
G01X5215133Y-2147833D01*
G01X5208096Y-2134098D01*
G01X5198073Y-2122361D01*
G01X5196282Y-2120493D01*
G01X4741142Y-1665352D01*
G01X4719286Y-1641210D01*
G01X4699899Y-1615042D01*
G01X4683169Y-1587102D01*
G01X4669255Y-1557658D01*
G01X4658292Y-1526992D01*
G01X4650385Y-1495401D01*
G01X4645611Y-1463186D01*
G01X4644014Y-1430659D01*
G01X4644014Y-1210816D01*
G01X4889919Y-1210816D01*
G01X4898010Y-1224867D01*
G01X4909269Y-1236534D01*
G01X4923022Y-1245121D01*
G01X4938448Y-1250113D01*
G01X4954625Y-1251213D01*
G01X4970585Y-1248354D01*
G01X4985374Y-1241707D01*
G01X4998108Y-1231671D01*
G01X5008026Y-1218844D01*
G01X5014535Y-1203994D01*
G01X5017246Y-1188009D01*
G01X5015996Y-1171843D01*
G01X5010861Y-1156464D01*
G01X5002148Y-1142790D01*
G01X4990377Y-1131640D01*
G01X4976252Y-1123679D01*
G01X4958890Y-1106318D01*
G01X4949614Y-1098705D01*
G01X4939030Y-1093048D01*
G01X4927547Y-1089565D01*
G01X4915605Y-1088388D01*
G01X4873477Y-1088388D01*
G01X4880906Y-1074233D01*
G01X4884731Y-1058711D01*
G01X4884730Y-1042725D01*
G01X4880904Y-1027203D01*
G01X4873475Y-1013048D01*
G01X4862874Y-1001083D01*
G01X4849717Y-992002D01*
G01X4834770Y-986333D01*
G01X4818900Y-984406D01*
G01X4803030Y-986333D01*
G01X4788083Y-992002D01*
G01X4774926Y-1001083D01*
G01X4764325Y-1013048D01*
G01X4756896Y-1027203D01*
G01X4753070Y-1042725D01*
G01X4753069Y-1058711D01*
G01X4756894Y-1074233D01*
G01X4764323Y-1088388D01*
G01X4622180Y-1088388D01*
G01X4615966Y-1088096D01*
G01X4602561Y-1080267D01*
G01X4587703Y-1075768D01*
G01X4572207Y-1074847D01*
G01X4556921Y-1077554D01*
G01X4542683Y-1083741D01*
G01X4530273Y-1093068D01*
G01X4520372Y-1105024D01*
G01X4513522Y-1118955D01*
G01X4510099Y-1134097D01*
G01X4510289Y-1149620D01*
G01X4514084Y-1164673D01*
G01X4521273Y-1178431D01*
G01X4521586Y-1185681D01*
G01X4521586Y-1416800D01*
G01X4519815Y-1437045D01*
G01X4514555Y-1456675D01*
G01X4505967Y-1475093D01*
G01X4494310Y-1491740D01*
G01X4479940Y-1506110D01*
G01X4463293Y-1517766D01*
G01X4444875Y-1526355D01*
G01X4425245Y-1531615D01*
G01X4405000Y-1533386D01*
G01X3997897Y-1533386D01*
G01X4007036Y-1521785D01*
G01X4013382Y-1508449D01*
G01X4016618Y-1494039D01*
G01X4016585Y-1479270D01*
G01X4013284Y-1464874D01*
G01X4006878Y-1451567D01*
G01X3997686Y-1440007D01*
G01X3997496Y-1439816D01*
G01X3985469Y-1430334D01*
G01X3979720Y-1426494D01*
G01X3972606Y-1421474D01*
G01X3970215Y-1419547D01*
G01X3967599Y-1417132D01*
G01X3856899Y-1306431D01*
G01X3856899Y-1066600D01*
G01X3858284Y-1042053D01*
G01X3862422Y-1017817D01*
G01X3869261Y-994200D01*
G01X3878713Y-971504D01*
G01X3890659Y-950014D01*
G01X4516145Y-950014D01*
G01X4510010Y-964154D01*
G01X4507305Y-979328D01*
G01X4508176Y-994717D01*
G01X4512577Y-1009490D01*
G01X4520269Y-1022847D01*
G01X4530836Y-1034068D01*
G01X4543709Y-1042546D01*
G01X4558191Y-1047823D01*
G01X4573500Y-1049614D01*
G01X4588809Y-1047823D01*
G01X4603291Y-1042546D01*
G01X4616164Y-1034068D01*
G01X4626732Y-1022847D01*
G01X4634424Y-1009490D01*
G01X4638824Y-994717D01*
G01X4639695Y-979328D01*
G01X4636990Y-964154D01*
G01X4630855Y-950014D01*
G01X5055944Y-950014D01*
G01X5067786Y-961856D01*
G01X5067786Y-1153681D01*
G01X5067643Y-1157240D01*
G01X5067316Y-1160294D01*
G01X5066486Y-1165103D01*
G01X5063671Y-1169092D01*
G01X5061744Y-1171482D01*
G01X5059329Y-1174099D01*
G01X5013717Y-1219710D01*
G01X5006105Y-1228987D01*
G01X5000448Y-1239570D01*
G01X4996965Y-1251053D01*
G01X4995788Y-1262995D01*
G01X4995788Y-1535683D01*
G01X4995646Y-1539243D01*
G01X4995318Y-1542296D01*
G01X4993838Y-1550875D01*
G01X4992487Y-1557660D01*
G01X4990690Y-1572475D01*
G01X4992252Y-1587317D01*
G01X4997094Y-1601434D01*
G01X5004969Y-1614111D01*
G01X5015480Y-1624706D01*
G01X5028094Y-1632681D01*
G01X5042173Y-1637635D01*
G01X5057002Y-1639314D01*
G01X5071831Y-1637635D01*
G01X5085909Y-1632682D01*
G01X5098523Y-1624706D01*
G01X5109035Y-1614112D01*
G01X5116910Y-1601435D01*
G01X5121752Y-1587319D01*
G01X5123314Y-1572477D01*
G01X5121518Y-1557661D01*
G01X5120167Y-1550875D01*
G01X5118686Y-1542295D01*
G01X5118359Y-1539243D01*
G01X5118216Y-1535683D01*
G01X5118216Y-1288351D01*
G01X5145899Y-1260668D01*
G01X5148515Y-1258253D01*
G01X5150906Y-1256326D01*
G01X5158020Y-1251306D01*
G01X5163769Y-1247466D01*
G01X5175796Y-1237984D01*
G01X5175986Y-1237793D01*
G01X5184469Y-1227340D01*
G01X5190665Y-1215388D01*
G01X5194321Y-1202432D01*
G01X5195284Y-1189004D01*
G01X5193516Y-1175659D01*
G01X5192164Y-1168873D01*
G01X5190684Y-1160293D01*
G01X5190356Y-1157240D01*
G01X5190214Y-1153681D01*
G01X5190214Y-936500D01*
G01X5189038Y-924558D01*
G01X5185554Y-913075D01*
G01X5179898Y-902491D01*
G01X5172285Y-893215D01*
G01X5124585Y-845515D01*
G01X5115309Y-837902D01*
G01X5104726Y-832246D01*
G01X5093242Y-828762D01*
G01X5081300Y-827586D01*
G01X4875903Y-827586D01*
G01X4882209Y-813437D01*
G01X4885060Y-798212D01*
G01X4884302Y-782740D01*
G01X4879975Y-767866D01*
G01X4872315Y-754402D01*
G01X4861741Y-743082D01*
G01X4848829Y-734524D01*
G01X4834284Y-729195D01*
G01X4818900Y-727386D01*
G01X4803516Y-729195D01*
G01X4788971Y-734524D01*
G01X4776059Y-743082D01*
G01X4765485Y-754402D01*
G01X4757825Y-767866D01*
G01X4753498Y-782740D01*
G01X4752740Y-798212D01*
G01X4755591Y-813437D01*
G01X4761897Y-827586D01*
G01X3795685Y-827586D01*
G01X2205700Y-827586D01*
G01X2193758Y-828762D01*
G01X2182274Y-832246D01*
G01X2171691Y-837903D01*
G01X2162415Y-845515D01*
G01X2089015Y-918915D01*
G01X2081402Y-928191D01*
G01X2075746Y-938774D01*
G01X2072262Y-950258D01*
G01X2071086Y-962200D01*
G01X2071086Y-1056096D01*
G01X2065663Y-1040943D01*
G01X2056749Y-1027543D01*
G01X2044869Y-1016684D01*
G01X2030724Y-1009008D01*
G01X2015146Y-1004965D01*
G01X1999053Y-1004794D01*
G01X1983392Y-1008505D01*
G01X1969087Y-1015879D01*
G01X1956980Y-1026483D01*
G01X1947783Y-1039690D01*
G01X1942039Y-1054725D01*
G01X1940086Y-1070700D01*
G01X1883595Y-1070700D01*
G01X1875729Y-1065829D01*
G01X1856454Y-1058362D01*
G01X1836135Y-1054564D01*
G01X1815465Y-1054564D01*
G01X1795146Y-1058362D01*
G01X1775871Y-1065829D01*
G01X1758296Y-1076711D01*
G01X1743021Y-1090637D01*
G01X1730564Y-1107132D01*
G01X1721350Y-1125636D01*
G01X1715693Y-1145518D01*
G01X1713786Y-1166100D01*
G01X1713786Y-1166100D01*
G01X746846Y-1166100D01*
G01X747191Y-1150304D01*
G01X744200Y-1127534D01*
G01X737787Y-1105482D01*
G01X728100Y-1084660D01*
G01X715364Y-1065549D01*
G01X699874Y-1048595D01*
G01X681989Y-1034188D01*
G01X662125Y-1022664D01*
G01X640740Y-1014290D01*
G01X618333Y-1009260D01*
G01X595421Y-1007691D01*
G01X572537Y-1009618D01*
G01X550210Y-1014998D01*
G01X528960Y-1023706D01*
G01X509277Y-1035539D01*
G01X491620Y-1050223D01*
G01X476397Y-1067418D01*
G01X463961Y-1086725D01*
G01X454601Y-1107696D01*
G01X448534Y-1129845D01*
G01X445899Y-1152659D01*
G01X434162Y-1142319D01*
G01X420329Y-1135015D01*
G01X405170Y-1131155D01*
G01X389528Y-1130953D01*
G01X374275Y-1134421D01*
G01X360258Y-1141366D01*
G01X348258Y-1151400D01*
G01X338942Y-1163966D01*
G01X332829Y-1178365D01*
G01X330259Y-1193795D01*
G01X35814Y-1193795D01*
G01X35814Y-934404D01*
G01X326360Y-934404D01*
G01X329258Y-949549D01*
G01X335574Y-963615D01*
G01X344968Y-975842D01*
G01X356932Y-985568D01*
G01X370819Y-992270D01*
G01X357097Y-999303D01*
G01X345370Y-1009314D01*
G01X336273Y-1021763D01*
G01X330296Y-1035977D01*
G01X327764Y-1051187D01*
G01X328812Y-1066570D01*
G01X333385Y-1081295D01*
G01X341234Y-1094567D01*
G01X351937Y-1105666D01*
G01X364913Y-1113995D01*
G01X379462Y-1119101D01*
G01X394797Y-1120709D01*
G01X394797Y-1120709D01*
G01X410089Y-1118733D01*
G01X424511Y-1113278D01*
G01X437283Y-1104641D01*
G01X447716Y-1093287D01*
G01X455244Y-1079831D01*
G01X459461Y-1065000D01*
G01X460140Y-1049596D01*
G01X457242Y-1034451D01*
G01X450926Y-1020385D01*
G01X441532Y-1008159D01*
G01X429568Y-998432D01*
G01X415681Y-991730D01*
G01X429403Y-984698D01*
G01X441130Y-974686D01*
G01X450227Y-962237D01*
G01X456204Y-948023D01*
G01X458736Y-932814D01*
G01X458532Y-929821D01*
G01X462988Y-929821D01*
G01X464678Y-945286D01*
G01X469925Y-959933D01*
G01X478440Y-972954D01*
G01X489755Y-983633D01*
G01X503246Y-991381D01*
G01X518171Y-995774D01*
G01X533709Y-996567D01*
G01X549004Y-993719D01*
G01X563214Y-987386D01*
G01X575558Y-977916D01*
G01X585356Y-965830D01*
G01X592068Y-951795D01*
G01X598937Y-966600D01*
G01X609213Y-979278D01*
G01X622275Y-989063D01*
G01X637332Y-995361D01*
G01X653471Y-997792D01*
G01X669714Y-996206D01*
G01X685078Y-990702D01*
G01X698633Y-981611D01*
G01X709557Y-969486D01*
G01X717188Y-955059D01*
G01X723720Y-968733D01*
G01X733185Y-980567D01*
G01X745089Y-989943D01*
G01X758811Y-996372D01*
G01X773635Y-999517D01*
G01X788785Y-999216D01*
G01X803472Y-995483D01*
G01X816927Y-988514D01*
G01X828450Y-978672D01*
G01X840091Y-989010D01*
G01X853822Y-996349D01*
G01X868885Y-1000285D01*
G01X884451Y-1000600D01*
G01X899662Y-997276D01*
G01X913678Y-990498D01*
G01X925728Y-980639D01*
G01X927161Y-996911D01*
G01X932529Y-1012338D01*
G01X941505Y-1025986D01*
G01X953544Y-1037025D01*
G01X967917Y-1044787D01*
G01X983751Y-1048799D01*
G01X1000086Y-1048819D01*
G01X1015930Y-1044846D01*
G01X1030322Y-1037120D01*
G01X1042389Y-1026111D01*
G01X1051398Y-1012486D01*
G01X1056804Y-997072D01*
G01X1069679Y-1005630D01*
G01X1084187Y-1010974D01*
G01X1099537Y-1012814D01*
G01X1114896Y-1011049D01*
G01X1129430Y-1005777D01*
G01X1142347Y-997282D01*
G01X1152946Y-986027D01*
G01X1160652Y-972624D01*
G01X1170130Y-984512D01*
G01X1182066Y-993928D01*
G01X1195834Y-1000379D01*
G01X1210708Y-1003524D01*
G01X1225908Y-1003199D01*
G01X1240635Y-999421D01*
G01X1254114Y-992388D01*
G01X1265637Y-982469D01*
G01X1274598Y-970187D01*
G01X1283606Y-982062D01*
G01X1295038Y-991624D01*
G01X1308317Y-998392D01*
G01X1322772Y-1002024D01*
G01X1337673Y-1002335D01*
G01X1352267Y-999311D01*
G01X1365818Y-993104D01*
G01X1377639Y-984028D01*
G01X1387136Y-972540D01*
G01X1393826Y-959222D01*
G01X1401727Y-973545D01*
G01X1412893Y-985499D01*
G01X1426645Y-994356D01*
G01X1442147Y-999576D01*
G01X1458455Y-1000844D01*
G01X1474578Y-998081D01*
G01X1489533Y-991455D01*
G01X1502412Y-981370D01*
G01X1512430Y-968440D01*
G01X1521739Y-980416D01*
G01X1533526Y-989965D01*
G01X1547175Y-996584D01*
G01X1561970Y-999930D01*
G01X1577139Y-999825D01*
G01X1591887Y-996276D01*
G01X1605443Y-989468D01*
G01X1617097Y-979758D01*
G01X1626240Y-967654D01*
G01X1632393Y-953789D01*
G01X1635234Y-938888D01*
G01X1634614Y-923732D01*
G01X1649630Y-920558D01*
G01X1657606Y-916800D01*
G01X1942286Y-916800D01*
G01X1944213Y-932670D01*
G01X1949882Y-947618D01*
G01X1958963Y-960774D01*
G01X1970929Y-971375D01*
G01X1985085Y-978805D01*
G01X2000607Y-982631D01*
G01X2016593Y-982631D01*
G01X2032115Y-978805D01*
G01X2046271Y-971375D01*
G01X2058237Y-960774D01*
G01X2067318Y-947618D01*
G01X2072987Y-932670D01*
G01X2074914Y-916800D01*
G01X2072987Y-900930D01*
G01X2067318Y-885982D01*
G01X2058237Y-872826D01*
G01X2046271Y-862225D01*
G01X2032115Y-854795D01*
G01X2016593Y-850969D01*
G01X2000607Y-850969D01*
G01X1985085Y-854795D01*
G01X1970929Y-862225D01*
G01X1958963Y-872826D01*
G01X1949882Y-885982D01*
G01X1944213Y-900930D01*
G01X1942286Y-916800D01*
G01X1942286Y-916800D01*
G01X1657606Y-916800D01*
G01X1663513Y-914017D01*
G01X1675521Y-904461D01*
G01X1685011Y-892399D01*
G01X1691474Y-878479D01*
G01X1694565Y-863447D01*
G01X1694116Y-848106D01*
G01X1690154Y-833280D01*
G01X1682889Y-819761D01*
G01X1672711Y-808274D01*
G01X1682351Y-797294D01*
G01X1689352Y-784470D01*
G01X1693374Y-770424D01*
G01X1694224Y-755838D01*
G01X1691858Y-741419D01*
G01X1686392Y-727869D01*
G01X1678092Y-715845D01*
G01X1667360Y-705930D01*
G01X1677955Y-695532D01*
G01X1685971Y-683038D01*
G01X1691008Y-669073D01*
G01X1692811Y-654338D01*
G01X1691291Y-639571D01*
G01X1686525Y-625512D01*
G01X1678750Y-612865D01*
G01X1668357Y-602265D01*
G01X1655867Y-594243D01*
G01X1641905Y-589200D01*
G01X1657100Y-583532D01*
G01X1670466Y-574345D01*
G01X1681201Y-562188D01*
G01X1688665Y-547789D01*
G01X1692410Y-532009D01*
G01X1692213Y-515792D01*
G01X1688085Y-500107D01*
G01X1680274Y-485894D01*
G01X1669246Y-474002D01*
G01X1655662Y-465142D01*
G01X1666509Y-457383D01*
G01X1675584Y-447611D01*
G01X1682520Y-436220D01*
G01X1692048Y-449096D01*
G01X1704386Y-459312D01*
G01X1718814Y-466271D01*
G01X1734489Y-469568D01*
G01X1750497Y-469010D01*
G01X1733581Y-482384D01*
G01X1718995Y-498266D01*
G01X1707106Y-516258D01*
G01X1698215Y-535904D01*
G01X1692546Y-556709D01*
G01X1690241Y-578150D01*
G01X1691359Y-599685D01*
G01X1695871Y-620772D01*
G01X1703664Y-640879D01*
G01X1714541Y-659499D01*
G01X1728228Y-676163D01*
G01X1744380Y-690450D01*
G01X1762590Y-702001D01*
G01X1782399Y-710524D01*
G01X1803306Y-715804D01*
G01X1824786Y-717708D01*
G01X1846297Y-716189D01*
G01X1867296Y-711284D01*
G01X1887254Y-703118D01*
G01X1905668Y-691895D01*
G01X1922073Y-677900D01*
G01X1936057Y-661484D01*
G01X1939646Y-675919D01*
G01X1946363Y-689192D01*
G01X1955870Y-700633D01*
G01X1967687Y-709667D01*
G01X1981221Y-715840D01*
G01X1967325Y-722722D01*
G01X1955407Y-732643D01*
G01X1946118Y-745060D01*
G01X1939968Y-759295D01*
G01X1937291Y-774569D01*
G01X1938235Y-790047D01*
G01X1942747Y-804883D01*
G01X1950582Y-818265D01*
G01X1961310Y-829462D01*
G01X1974345Y-837861D01*
G01X1988974Y-843004D01*
G01X2004398Y-844608D01*
G01X2019773Y-842586D01*
G01X2034257Y-837050D01*
G01X2047060Y-828300D01*
G01X2057481Y-816817D01*
G01X2064950Y-803228D01*
G01X2069059Y-788275D01*
G01X2069584Y-772777D01*
G01X2066494Y-757581D01*
G01X2059960Y-743518D01*
G01X2050339Y-731357D01*
G01X2038156Y-721762D01*
G01X2024079Y-715260D01*
G01X2037097Y-708940D01*
G01X2048434Y-699947D01*
G01X2057551Y-688708D01*
G01X2064012Y-675760D01*
G01X2067512Y-661719D01*
G01X2067882Y-647252D01*
G01X2065105Y-633050D01*
G01X2059313Y-619788D01*
G01X2050783Y-608099D01*
G01X2039920Y-598538D01*
G01X2027242Y-591561D01*
G01X2013353Y-587500D01*
G01X2028495Y-582904D01*
G01X2030193Y-581900D01*
G01X4890183Y-581900D01*
G01X4892035Y-604254D01*
G01X4897542Y-625999D01*
G01X4906552Y-646540D01*
G01X4918821Y-665319D01*
G01X4934013Y-681821D01*
G01X4951714Y-695599D01*
G01X4971441Y-706275D01*
G01X4992656Y-713558D01*
G01X5014781Y-717250D01*
G01X5037212Y-717250D01*
G01X5059337Y-713558D01*
G01X5080553Y-706275D01*
G01X5100280Y-695599D01*
G01X5117981Y-681821D01*
G01X5133173Y-665319D01*
G01X5145441Y-646540D01*
G01X5154452Y-625999D01*
G01X5159958Y-604254D01*
G01X5161811Y-581900D01*
G01X5161811Y-581900D01*
G01X5159958Y-559546D01*
G01X5154452Y-537801D01*
G01X5145441Y-517260D01*
G01X5134161Y-499994D01*
G01X6304212Y-499994D01*
G01X6306205Y-527865D01*
G01X6312145Y-555167D01*
G01X6321909Y-581347D01*
G01X6335300Y-605870D01*
G01X6352044Y-628238D01*
G01X6371802Y-647996D01*
G01X6394170Y-664740D01*
G01X6418694Y-678131D01*
G01X6444873Y-687896D01*
G01X6472176Y-693835D01*
G01X6500046Y-695828D01*
G01X6527916Y-693835D01*
G01X6555219Y-687896D01*
G01X6581398Y-678131D01*
G01X6605922Y-664740D01*
G01X6628290Y-647996D01*
G01X6648047Y-628238D01*
G01X6664792Y-605870D01*
G01X6678183Y-581347D01*
G01X6687947Y-555167D01*
G01X6693887Y-527865D01*
G01X6695880Y-499994D01*
G01X8804212Y-499994D01*
G01X8806205Y-527865D01*
G01X8812145Y-555167D01*
G01X8821909Y-581347D01*
G01X8835300Y-605870D01*
G01X8852045Y-628238D01*
G01X8871802Y-647996D01*
G01X8894170Y-664740D01*
G01X8918694Y-678131D01*
G01X8944873Y-687896D01*
G01X8972176Y-693835D01*
G01X9000046Y-695828D01*
G01X9027916Y-693835D01*
G01X9055219Y-687896D01*
G01X9081398Y-678131D01*
G01X9105922Y-664740D01*
G01X9128290Y-647996D01*
G01X9148047Y-628238D01*
G01X9164792Y-605870D01*
G01X9178183Y-581347D01*
G01X9187947Y-555167D01*
G01X9193887Y-527865D01*
G01X9195880Y-499994D01*
G01X9193887Y-472124D01*
G01X9187947Y-444822D01*
G01X9178183Y-418642D01*
G01X9164792Y-394119D01*
G01X9148047Y-371750D01*
G01X9128290Y-351993D01*
G01X9105922Y-335248D01*
G01X9081398Y-321858D01*
G01X9055219Y-312093D01*
G01X9027916Y-306154D01*
G01X9000046Y-304160D01*
G01X8972176Y-306154D01*
G01X8944873Y-312093D01*
G01X8918694Y-321858D01*
G01X8894170Y-335248D01*
G01X8871802Y-351993D01*
G01X8852045Y-371750D01*
G01X8835300Y-394119D01*
G01X8821909Y-418642D01*
G01X8812145Y-444822D01*
G01X8806205Y-472124D01*
G01X8804212Y-499994D01*
G01X8804212Y-499994D01*
G01X6695880Y-499994D01*
G01X6695880Y-499994D01*
G01X6693887Y-472124D01*
G01X6687947Y-444822D01*
G01X6678183Y-418642D01*
G01X6664792Y-394119D01*
G01X6648047Y-371750D01*
G01X6628290Y-351993D01*
G01X6605922Y-335248D01*
G01X6581398Y-321858D01*
G01X6555219Y-312093D01*
G01X6527916Y-306154D01*
G01X6500046Y-304160D01*
G01X6472176Y-306154D01*
G01X6444873Y-312093D01*
G01X6418694Y-321858D01*
G01X6394170Y-335248D01*
G01X6371802Y-351993D01*
G01X6352044Y-371750D01*
G01X6335300Y-394119D01*
G01X6321909Y-418642D01*
G01X6312145Y-444822D01*
G01X6306205Y-472124D01*
G01X6304212Y-499994D01*
G01X6304212Y-499994D01*
G01X5134161Y-499994D01*
G01X5133173Y-498481D01*
G01X5117981Y-481979D01*
G01X5100280Y-468201D01*
G01X5080553Y-457525D01*
G01X5059337Y-450242D01*
G01X5037212Y-446550D01*
G01X5014781Y-446550D01*
G01X4992656Y-450242D01*
G01X4971441Y-457525D01*
G01X4951714Y-468201D01*
G01X4934013Y-481979D01*
G01X4918821Y-498481D01*
G01X4906552Y-517260D01*
G01X4897542Y-537801D01*
G01X4892035Y-559546D01*
G01X4890183Y-581900D01*
G01X2030193Y-581900D01*
G01X2042117Y-574851D01*
G01X2053444Y-563799D01*
G01X2061829Y-550379D01*
G01X2066796Y-535354D01*
G01X2068062Y-519581D01*
G01X2065555Y-503956D01*
G01X2059417Y-489370D01*
G01X2049998Y-476654D01*
G01X2037835Y-466531D01*
G01X2023620Y-459579D01*
G01X2036923Y-452784D01*
G01X2048368Y-443184D01*
G01X2057374Y-431266D01*
G01X2063484Y-417634D01*
G01X2066387Y-402981D01*
G01X2065937Y-388050D01*
G01X2062157Y-373598D01*
G01X2055237Y-360359D01*
G01X2045530Y-349005D01*
G01X2033528Y-340111D01*
G01X2019840Y-334130D01*
G01X2005160Y-331364D01*
G01X1990234Y-331955D01*
G01X1975818Y-335871D01*
G01X1962645Y-342914D01*
G01X1951382Y-352728D01*
G01X1942602Y-364813D01*
G01X1936749Y-378557D01*
G01X1928531Y-364869D01*
G01X1917280Y-353543D01*
G01X1903648Y-345233D01*
G01X1888426Y-340423D01*
G01X1872494Y-339389D01*
G01X1856778Y-342194D01*
G01X1842187Y-348673D01*
G01X1829567Y-358452D01*
G01X1819650Y-370963D01*
G01X1813011Y-385482D01*
G01X1810034Y-401167D01*
G01X1810892Y-417109D01*
G01X1815535Y-432383D01*
G01X1823694Y-446106D01*
G01X1804091Y-447865D01*
G01X1784949Y-452440D01*
G01X1794563Y-441476D01*
G01X1801549Y-428677D01*
G01X1805568Y-414659D01*
G01X1806427Y-400102D01*
G01X1804083Y-385710D01*
G01X1798650Y-372178D01*
G01X1790391Y-360160D01*
G01X1779705Y-350238D01*
G01X1767109Y-342891D01*
G01X1753212Y-338475D01*
G01X1738685Y-337203D01*
G01X1724232Y-339137D01*
G01X1710551Y-344183D01*
G01X1698303Y-352098D01*
G01X1688081Y-362497D01*
G01X1680380Y-374880D01*
G01X1671229Y-362406D01*
G01X1659438Y-352392D01*
G01X1645647Y-345383D01*
G01X1630607Y-341759D01*
G01X1615137Y-341718D01*
G01X1600079Y-345263D01*
G01X1586252Y-352201D01*
G01X1574408Y-362153D01*
G01X1565192Y-374578D01*
G01X1559106Y-388801D01*
G01X1556481Y-404047D01*
G01X1557460Y-419486D01*
G01X1561989Y-434278D01*
G01X1569822Y-447618D01*
G01X1580533Y-458781D01*
G01X1593538Y-467158D01*
G01X1580868Y-476583D01*
G01X1570785Y-488736D01*
G01X1563862Y-502928D01*
G01X1560490Y-518356D01*
G01X1560862Y-534143D01*
G01X1564955Y-549394D01*
G01X1572539Y-563245D01*
G01X1583182Y-574911D01*
G01X1596282Y-583729D01*
G01X1611095Y-589200D01*
G01X1596964Y-594327D01*
G01X1584351Y-602504D01*
G01X1573903Y-613312D01*
G01X1566159Y-626196D01*
G01X1561514Y-640493D01*
G01X1560209Y-655468D01*
G01X1562311Y-670353D01*
G01X1567710Y-684382D01*
G01X1576131Y-696834D01*
G01X1587140Y-707070D01*
G01X1576790Y-717168D01*
G01X1568875Y-729271D01*
G01X1563771Y-742801D01*
G01X1561722Y-757115D01*
G01X1562824Y-771534D01*
G01X1567026Y-785370D01*
G01X1574126Y-797967D01*
G01X1583789Y-808726D01*
G01X1573187Y-821121D01*
G01X1565931Y-835729D01*
G01X1562461Y-851666D01*
G01X1562986Y-867968D01*
G01X1547733Y-871223D01*
G01X1533661Y-877949D01*
G01X1521550Y-887777D01*
G01X1512070Y-900160D01*
G01X1502992Y-888421D01*
G01X1491531Y-878993D01*
G01X1478260Y-872351D01*
G01X1463845Y-868826D01*
G01X1449006Y-868595D01*
G01X1434488Y-871670D01*
G01X1421017Y-877896D01*
G01X1409268Y-886962D01*
G01X1399829Y-898414D01*
G01X1393174Y-911678D01*
G01X1386144Y-898584D01*
G01X1376376Y-887385D01*
G01X1364358Y-878642D01*
G01X1350696Y-872795D01*
G01X1336074Y-870137D01*
G01X1321228Y-870802D01*
G01X1306902Y-874757D01*
G01X1293817Y-881802D01*
G01X1282630Y-891584D01*
G01X1273902Y-903613D01*
G01X1264004Y-890823D01*
G01X1251305Y-880809D01*
G01X1236560Y-874167D01*
G01X1220646Y-871292D01*
G01X1204509Y-872354D01*
G01X1189108Y-877291D01*
G01X1175361Y-885808D01*
G01X1164084Y-897400D01*
G01X1155948Y-911376D01*
G01X1146131Y-899154D01*
G01X1133720Y-889577D01*
G01X1119407Y-883182D01*
G01X1103992Y-880325D01*
G01X1088338Y-881167D01*
G01X1073319Y-885659D01*
G01X1059774Y-893553D01*
G01X1048460Y-904405D01*
G01X1040010Y-917609D01*
G01X1034896Y-932429D01*
G01X1034896Y-932429D01*
G01X1023104Y-924433D01*
G01X1009875Y-919141D01*
G01X995822Y-916796D01*
G01X981592Y-917508D01*
G01X967842Y-921243D01*
G01X955208Y-927829D01*
G01X944272Y-936961D01*
G01X942896Y-920960D01*
G01X937714Y-905758D01*
G01X929029Y-892249D01*
G01X917351Y-881223D01*
G01X903365Y-873329D01*
G01X887891Y-869028D01*
G01X871837Y-868573D01*
G01X856144Y-871991D01*
G01X841734Y-879082D01*
G01X829450Y-889428D01*
G01X818210Y-879371D01*
G01X804987Y-872115D01*
G01X790467Y-868033D01*
G01X775400Y-867339D01*
G01X760566Y-870067D01*
G01X746732Y-876076D01*
G01X734614Y-885057D01*
G01X724839Y-896543D01*
G01X717912Y-909941D01*
G01X711499Y-896457D01*
G01X702232Y-884750D01*
G01X690581Y-875413D01*
G01X677136Y-868919D01*
G01X662579Y-865598D01*
G01X647648Y-865617D01*
G01X633100Y-868977D01*
G01X619673Y-875506D01*
G01X608046Y-884873D01*
G01X598810Y-896605D01*
G01X592432Y-910105D01*
G01X585966Y-895955D01*
G01X576381Y-883700D01*
G01X564205Y-874015D01*
G01X550107Y-867435D01*
G01X534864Y-864320D01*
G01X519315Y-864842D01*
G01X504315Y-868973D01*
G01X490691Y-876484D01*
G01X479192Y-886964D01*
G01X470450Y-899834D01*
G01X464948Y-914387D01*
G01X462988Y-929821D01*
G01X458532Y-929821D01*
G01X457688Y-917430D01*
G01X453115Y-902705D01*
G01X445266Y-889434D01*
G01X434563Y-878334D01*
G01X421587Y-870006D01*
G01X407038Y-864899D01*
G01X391703Y-863291D01*
G01X376411Y-865267D01*
G01X361989Y-870722D01*
G01X349217Y-879359D01*
G01X338784Y-890713D01*
G01X331256Y-904169D01*
G01X327039Y-919000D01*
G01X326360Y-934404D01*
G01X35814Y-934404D01*
G01X35814Y-500000D01*
G01X37794Y-457170D01*
G01X43718Y-414706D01*
G01X53534Y-372969D01*
G01X67159Y-332317D01*
G01X84478Y-293095D01*
G01X105341Y-255638D01*
G01X129572Y-220265D01*
G01X156962Y-187280D01*
G01X187280Y-156962D01*
G01X220265Y-129572D01*
G01X255638Y-105341D01*
G01X293095Y-84478D01*
G01X332317Y-67159D01*
G01X372969Y-53534D01*
G01X414706Y-43718D01*
G01X457170Y-37794D01*
G01X500000Y-35814D01*
G01X9000000Y-35814D01*
G01X9042830Y-37794D01*
G01X9085294Y-43718D01*
G01X9127031Y-53534D01*
G01X9167683Y-67159D01*
G01X9206906Y-84478D01*
G01X9244362Y-105341D01*
G01X9279735Y-129572D01*
G01X9312720Y-156962D01*
G01X9343038Y-187280D01*
G01X9370428Y-220265D01*
G01X9394659Y-255638D01*
G01X9415522Y-293095D01*
G01X9432841Y-332317D01*
G01X9446466Y-372969D01*
G01X9456282Y-414706D01*
G01X9462206Y-457170D01*
G01X9464186Y-500000D01*
G01X9464186Y-5500000D01*
G01X9462206Y-5542830D01*
G01X9456282Y-5585294D01*
G01X9446466Y-5627030D01*
G01X9432841Y-5667683D01*
G01X9415522Y-5706905D01*
G01X9394659Y-5744362D01*
G01X9370428Y-5779734D01*
G01X9343038Y-5812720D01*
G01X9312720Y-5843038D01*
G01X9279735Y-5870428D01*
G01X9244362Y-5894659D01*
G01X9206906Y-5915522D01*
G01X9167683Y-5932840D01*
G01X9127031Y-5946466D01*
G01X9085294Y-5956282D01*
G01X9042830Y-5962206D01*
G01X9000000Y-5964186D01*
G01X1283545Y-5964186D01*
G01X1309802Y-5951329D01*
G01X1334027Y-5934963D01*
G01X1355756Y-5915403D01*
G01X1374569Y-5893026D01*
G01X1390106Y-5868260D01*
G01X1402067Y-5841584D01*
G01X1410222Y-5813509D01*
G01X1414415Y-5784576D01*
G01X1414565Y-5755341D01*
G01X1410669Y-5726366D01*
G01X1402802Y-5698209D01*
G01X1391115Y-5671411D01*
G01X1375834Y-5646488D01*
G01X1357251Y-5623918D01*
G01X1335724Y-5604136D01*
G01X1311668Y-5587523D01*
G01X1285545Y-5574397D01*
G01X1257857Y-5565012D01*
G01X1229137Y-5559547D01*
G01X1246864Y-5553205D01*
G01X1263103Y-5543676D01*
G01X1277287Y-5531295D01*
G01X1288921Y-5516492D01*
G01X1297600Y-5499784D01*
G01X1303020Y-5481753D01*
G01X1304994Y-5463029D01*
G01X1303452Y-5444264D01*
G01X1298447Y-5426114D01*
G01X1290154Y-5409210D01*
G01X1278864Y-5394144D01*
G01X1264968Y-5381439D01*
G01X1248953Y-5371540D01*
G01X1231376Y-5364791D01*
G01X1212851Y-5361429D01*
G01X1194023Y-5361569D01*
G01X1175551Y-5365208D01*
G01X1158077Y-5372219D01*
G01X1142211Y-5382356D01*
G01X1128507Y-5395267D01*
G01X1117442Y-5410500D01*
G01X1109403Y-5427526D01*
G01X1096107Y-5420191D01*
G01X1081860Y-5414937D01*
G01X1066986Y-5411882D01*
G01X1086206Y-5407481D01*
G01X1104202Y-5399423D01*
G01X1120285Y-5388015D01*
G01X1133840Y-5373696D01*
G01X1144349Y-5357012D01*
G01X1151409Y-5338601D01*
G01X1154750Y-5319169D01*
G01X1154245Y-5299457D01*
G01X1172281Y-5307515D01*
G01X1191542Y-5311901D01*
G01X1211289Y-5312446D01*
G01X1230763Y-5309131D01*
G01X1249216Y-5302082D01*
G01X1265941Y-5291569D01*
G01X1280294Y-5277997D01*
G01X1291726Y-5261886D01*
G01X1299796Y-5243856D01*
G01X1304196Y-5224598D01*
G01X1304755Y-5204852D01*
G01X1301453Y-5185376D01*
G01X1294417Y-5166917D01*
G01X1283917Y-5150185D01*
G01X1270355Y-5135822D01*
G01X1254252Y-5124379D01*
G01X1236227Y-5116296D01*
G01X1216973Y-5111883D01*
G01X1236227Y-5107470D01*
G01X1254252Y-5099387D01*
G01X1270355Y-5087944D01*
G01X1283917Y-5073581D01*
G01X1294417Y-5056849D01*
G01X1301453Y-5038391D01*
G01X1304755Y-5018914D01*
G01X1304196Y-4999168D01*
G01X1299796Y-4979910D01*
G01X1291726Y-4961880D01*
G01X1280294Y-4945769D01*
G01X1265941Y-4932197D01*
G01X1249216Y-4921685D01*
G01X1230763Y-4914635D01*
G01X1211289Y-4911320D01*
G01X1191542Y-4911866D01*
G01X1172281Y-4916251D01*
G01X1154245Y-4924309D01*
G01X1154750Y-4904598D01*
G01X1151409Y-4885165D01*
G01X1148117Y-4876583D01*
G01X1451686Y-4876583D01*
G01X1451686Y-5871100D01*
G01X1453439Y-5882167D01*
G01X1458526Y-5892151D01*
G01X1466449Y-5900074D01*
G01X1476433Y-5905161D01*
G01X1487500Y-5906914D01*
G01X5583555Y-5906914D01*
G01X5594619Y-5905162D01*
G01X5604601Y-5900078D01*
G01X5612524Y-5892159D01*
G01X5617612Y-5882179D01*
G01X5619369Y-5871116D01*
G01X5619534Y-5499994D01*
G01X8804212Y-5499994D01*
G01X8806205Y-5527864D01*
G01X8812145Y-5555167D01*
G01X8821909Y-5581347D01*
G01X8835300Y-5605870D01*
G01X8852045Y-5628238D01*
G01X8871802Y-5647996D01*
G01X8894170Y-5664740D01*
G01X8918694Y-5678131D01*
G01X8944873Y-5687896D01*
G01X8972176Y-5693835D01*
G01X9000046Y-5695828D01*
G01X9027916Y-5693835D01*
G01X9055219Y-5687896D01*
G01X9081398Y-5678131D01*
G01X9105922Y-5664740D01*
G01X9128290Y-5647996D01*
G01X9148047Y-5628238D01*
G01X9164792Y-5605870D01*
G01X9178183Y-5581347D01*
G01X9187947Y-5555167D01*
G01X9193887Y-5527864D01*
G01X9195880Y-5499994D01*
G01X9193887Y-5472124D01*
G01X9187947Y-5444822D01*
G01X9178183Y-5418642D01*
G01X9164792Y-5394118D01*
G01X9148047Y-5371750D01*
G01X9128290Y-5351993D01*
G01X9105922Y-5335248D01*
G01X9081398Y-5321857D01*
G01X9055219Y-5312093D01*
G01X9027916Y-5306154D01*
G01X9000046Y-5304160D01*
G01X8972176Y-5306154D01*
G01X8944873Y-5312093D01*
G01X8918694Y-5321857D01*
G01X8894170Y-5335248D01*
G01X8871802Y-5351993D01*
G01X8852045Y-5371750D01*
G01X8835300Y-5394118D01*
G01X8821909Y-5418642D01*
G01X8812145Y-5444822D01*
G01X8806205Y-5472124D01*
G01X8804212Y-5499994D01*
G01X8804212Y-5499994D01*
G01X5619534Y-5499994D01*
G01X5620914Y-2399416D01*
G01X5619696Y-2390141D01*
G01X5616119Y-2381498D01*
G01X5610424Y-2374076D01*
G01X5589724Y-2353376D01*
G01X5582307Y-2347684D01*
G01X5573669Y-2344106D01*
G01X5564400Y-2342886D01*
G01X4152589Y-2342886D01*
G01X4145593Y-1754873D01*
G01X4143736Y-1743908D01*
G01X4138605Y-1734042D01*
G01X4130695Y-1726225D01*
G01X4120768Y-1721212D01*
G01X4109782Y-1719485D01*
G01X4109782Y-1719485D01*
G01X3546831Y-1719485D01*
G01X3535767Y-1721237D01*
G01X3525786Y-1726320D01*
G01X3517863Y-1734239D01*
G01X3512774Y-1744217D01*
G01X3511017Y-1755279D01*
G01X3510794Y-2154670D01*
G01X3491779Y-2173686D01*
G01X3105900Y-2173686D01*
G01X3096631Y-2174906D01*
G01X3087993Y-2178484D01*
G01X3080576Y-2184176D01*
G01X3065876Y-2198876D01*
G01X3060184Y-2206293D01*
G01X3056606Y-2214931D01*
G01X3055386Y-2224200D01*
G01X3055386Y-2958123D01*
G01X2881819Y-3131690D01*
G01X2876128Y-3139108D01*
G01X2872550Y-3147745D01*
G01X2871330Y-3157015D01*
G01X2871330Y-3481222D01*
G01X2303465Y-4049086D01*
G01X2279183Y-4049086D01*
G01X2269913Y-4050306D01*
G01X2261276Y-4053884D01*
G01X2253858Y-4059576D01*
G01X1462176Y-4851258D01*
G01X1456484Y-4858676D01*
G01X1452906Y-4867313D01*
G01X1451686Y-4876583D01*
G01X1148117Y-4876583D01*
G01X1144349Y-4866755D01*
G01X1133840Y-4850070D01*
G01X1120285Y-4835751D01*
G01X1104202Y-4824344D01*
G01X1086206Y-4816285D01*
G01X1066986Y-4811884D01*
G01X1085253Y-4807796D01*
G01X1102450Y-4800401D01*
G01X1117984Y-4789955D01*
G01X1131318Y-4776817D01*
G01X1141993Y-4761440D01*
G01X1149642Y-4744354D01*
G01X1153999Y-4726149D01*
G01X1154916Y-4707452D01*
G01X1152361Y-4688908D01*
G01X1146421Y-4671156D01*
G01X1137301Y-4654808D01*
G01X1164499Y-4661931D01*
G01X1192402Y-4665371D01*
G01X1220515Y-4665067D01*
G01X1248338Y-4661025D01*
G01X1275375Y-4653317D01*
G01X1301147Y-4642080D01*
G01X1325193Y-4627513D01*
G01X1347088Y-4609876D01*
G01X1366441Y-4589482D01*
G01X1382908Y-4566695D01*
G01X1396197Y-4541919D01*
G01X1406070Y-4515595D01*
G01X1412353Y-4488191D01*
G01X1414934Y-4460195D01*
G01X1413766Y-4432105D01*
G01X1408871Y-4404419D01*
G01X1400335Y-4377632D01*
G01X1388310Y-4352218D01*
G01X1373011Y-4328630D01*
G01X1354710Y-4307288D01*
G01X1333731Y-4288571D01*
G01X1310448Y-4272813D01*
G01X1305396Y-4270300D01*
G01X1787922Y-4270300D01*
G01X1789849Y-4286170D01*
G01X1795518Y-4301118D01*
G01X1804600Y-4314274D01*
G01X1816566Y-4324875D01*
G01X1830721Y-4332305D01*
G01X1846243Y-4336131D01*
G01X1862230Y-4336131D01*
G01X1877752Y-4332305D01*
G01X1891907Y-4324875D01*
G01X1903873Y-4314274D01*
G01X1912955Y-4301118D01*
G01X1918623Y-4286170D01*
G01X1920550Y-4270300D01*
G01X1918623Y-4254430D01*
G01X1912955Y-4239482D01*
G01X1903873Y-4226326D01*
G01X1891907Y-4215725D01*
G01X1877752Y-4208295D01*
G01X1862230Y-4204470D01*
G01X1846243Y-4204470D01*
G01X1830721Y-4208295D01*
G01X1816566Y-4215725D01*
G01X1804600Y-4226326D01*
G01X1795518Y-4239482D01*
G01X1789849Y-4254430D01*
G01X1787922Y-4270300D01*
G01X1787922Y-4270300D01*
G01X1305396Y-4270300D01*
G01X1285275Y-4260292D01*
G01X1258660Y-4251232D01*
G01X1231076Y-4245795D01*
G01X1203014Y-4244076D01*
G01X1174972Y-4246107D01*
G01X1147451Y-4251851D01*
G01X1120938Y-4261206D01*
G01X1095906Y-4274006D01*
G01X1072800Y-4290023D01*
G01X1052031Y-4308973D01*
G01X1033968Y-4330517D01*
G01X1018932Y-4354273D01*
G01X1007191Y-4379819D01*
G01X998954Y-4406700D01*
G01X994367Y-4434438D01*
G01X993512Y-4462540D01*
G01X996404Y-4490506D01*
G01X1002991Y-4517838D01*
G01X1013157Y-4544050D01*
G01X1026721Y-4568677D01*
G01X1043441Y-4591280D01*
G01X1063019Y-4611457D01*
G01X1043505Y-4611639D01*
G01X1024392Y-4615577D01*
G01X1006396Y-4623125D01*
G01X990191Y-4633998D01*
G01X976384Y-4647789D01*
G01X965493Y-4663982D01*
G01X957926Y-4681970D01*
G01X953967Y-4701079D01*
G01X953763Y-4720593D01*
G01X957322Y-4739780D01*
G01X964512Y-4757922D01*
G01X975062Y-4774340D01*
G01X988578Y-4788416D01*
G01X1004552Y-4799625D01*
G01X1022387Y-4807547D01*
G01X1041414Y-4811884D01*
G01X1022520Y-4816176D01*
G01X1004797Y-4824004D01*
G01X988898Y-4835078D01*
G01X975411Y-4848988D01*
G01X964835Y-4865222D01*
G01X957559Y-4883179D01*
G01X953852Y-4902196D01*
G01X953852Y-4921571D01*
G01X957559Y-4940588D01*
G01X964835Y-4958545D01*
G01X975411Y-4974779D01*
G01X988898Y-4988689D01*
G01X1004797Y-4999763D01*
G01X1022520Y-5007591D01*
G01X1041414Y-5011883D01*
G01X1023674Y-5015802D01*
G01X1006926Y-5022841D01*
G01X991712Y-5032771D01*
G01X978528Y-5045271D01*
G01X967801Y-5059933D01*
G01X959881Y-5076283D01*
G01X955023Y-5093789D01*
G01X953386Y-5111883D01*
G01X955023Y-5129977D01*
G01X959881Y-5147483D01*
G01X967801Y-5163833D01*
G01X978528Y-5178496D01*
G01X991712Y-5190995D01*
G01X1006926Y-5200926D01*
G01X1023674Y-5207964D01*
G01X1041414Y-5211883D01*
G01X1022520Y-5216176D01*
G01X1004797Y-5224003D01*
G01X988898Y-5235077D01*
G01X975411Y-5248987D01*
G01X964835Y-5265221D01*
G01X957559Y-5283178D01*
G01X953852Y-5302195D01*
G01X953852Y-5321570D01*
G01X957559Y-5340588D01*
G01X964835Y-5358545D01*
G01X975411Y-5374778D01*
G01X988898Y-5388689D01*
G01X1004797Y-5399762D01*
G01X1022520Y-5407590D01*
G01X1041414Y-5411882D01*
G01X1022387Y-5416219D01*
G01X1004552Y-5424141D01*
G01X988578Y-5435350D01*
G01X975062Y-5449427D01*
G01X964512Y-5465844D01*
G01X957322Y-5483986D01*
G01X953763Y-5503173D01*
G01X953967Y-5522687D01*
G01X957926Y-5541796D01*
G01X965493Y-5559784D01*
G01X976384Y-5575977D01*
G01X990191Y-5589769D01*
G01X1006396Y-5600642D01*
G01X1024392Y-5608189D01*
G01X1043505Y-5612127D01*
G01X1063019Y-5612310D01*
G37*
G54D10*
G01X4586702Y-5860940D02*
G01X4440640Y-5860940D01*
G03X4423800Y-5730486I-16841J64140D01*
G03X4406959Y-5860940I0J-66314D01*
G01X1497660Y-5860940D01*
G01X1497660Y-4880791D01*
G01X2057247Y-4321204D01*
G03X2087911Y-4368870I65753J8604D01*
G03X2084077Y-4474988I37789J-54493D01*
G03X2057029Y-4522937I39022J-53617D01*
G03X1964435Y-4586342I-26329J-60863D01*
G03X2061614Y-4642467I66265J2542D01*
G03X2078211Y-4671437I63986J17418D01*
G03X2064654Y-4686758I42289J-51081D01*
G03X1967148Y-4723262I-34350J-56724D01*
G03X1909150Y-4776316I7053J-65938D01*
G03X1850013Y-4822695I4150J-66184D01*
G03X1872161Y-4894511I63287J-19806D01*
G03X1864057Y-4990937I41139J-52011D01*
G03X1913300Y-5101666I49243J-44415D01*
G03X1962543Y-4990937I0J66314D01*
G03X1954439Y-4894511I-49243J44415D01*
G03X1978350Y-4855384I-41139J52011D01*
G03X2037356Y-4809420I-4150J66184D01*
G03X2086150Y-4779242I-7053J65938D01*
G03X2172467Y-4763712I34350J56724D01*
G03X2167889Y-4676129I-51967J41195D01*
G03X2169839Y-4575648I-42289J51081D01*
G03X2189325Y-4525171I-46739J47043D01*
G03X2164723Y-4476980I-66225J-3434D01*
G03X2160789Y-4367093I-39022J53617D01*
G03X2131604Y-4246846I-37789J54493D01*
G01X2283391Y-4095060D01*
G01X2318300Y-4095060D01*
G03X2325484Y-4092084I0J10160D01*
G01X2562535Y-3855033D01*
G03X2641691Y-3843989I32265J57936D01*
G03X2652736Y-3764833I-46891J46891D01*
G01X2897217Y-3520352D01*
G03X2938831Y-3589614I65883J-7548D01*
G03X3016477Y-3567251I24269J61714D01*
G03X3130160Y-3516476I47523J46250D01*
G03X3010623Y-3481649I-66160J-4524D01*
G03X2917304Y-3479939I-47523J-46250D01*
G01X2917304Y-3161223D01*
G01X3098384Y-2980142D01*
G03X3101360Y-2972958I-7184J7184D01*
G01X3101360Y-2244271D01*
G03X3102865Y-2235491I-64460J15571D01*
G03X3103180Y-2226588I-65965J6791D01*
G01X3110108Y-2219660D01*
G01X3506613Y-2219660D01*
G03X3513797Y-2216684I0J10160D01*
G01X3553784Y-2176698D01*
G03X3556760Y-2169519I-7184J7184D01*
G01X3556985Y-1765459D01*
G01X4099742Y-1765459D01*
G01X4106941Y-2370521D01*
G03X4109916Y-2377584I10159J121D01*
G01X4118216Y-2385884D01*
G03X4125400Y-2388860I7184J7184D01*
G01X5560192Y-2388860D01*
G01X5574938Y-2403607D01*
G01X5573400Y-5860940D01*
G01X4820553Y-5860940D01*
G03X4795600Y-5733186I-24953J61440D01*
G03X4770647Y-5860940I0J-66314D01*
G01X4645098Y-5860940D01*
G03X4615900Y-5735086I-29198J59540D01*
G03X4586702Y-5860940I0J-66314D01*
G01X1609486Y-5072600D02*
G03X1742114Y-5072600I66314J0D01*
G03X1609486Y-5072600I-66314J0D01*
G01X1610286Y-4882849D02*
G03X1742914Y-4882849I66314J0D01*
G03X1610286Y-4882849I-66314J0D01*
G01X1643769Y-5338034D02*
G03X1771843Y-5364883I66253J-2856D01*
G03X1901753Y-5349156I63657J18583D01*
G03X1773678Y-5322307I-66253J2856D01*
G03X1643769Y-5338034I-63657J-18583D01*
G01X2102986Y-4876400D02*
G03X2235614Y-4876400I66314J0D01*
G03X2102986Y-4876400I-66314J0D01*
G01X2217886Y-5401000D02*
G03X2348307Y-5417966I66314J0D01*
G03X2478728Y-5401000I64107J16966D01*
G03X2348307Y-5384034I-66314J0D01*
G03X2217886Y-5401000I-64107J-16966D01*
G01X2477486Y-5426100D02*
G03X2610114Y-5426100I66314J0D01*
G03X2477486Y-5426100I-66314J0D01*
G01X2593541Y-4176265D02*
G03X2630725Y-4121602I-28942J59665D01*
G03X2669049Y-4097435I-14081J64802D01*
G03X2787246Y-4065111I52406J40635D01*
G03X2912925Y-4027003I60154J27912D01*
G03X2781609Y-4028889I-65525J-10197D01*
G03X2669049Y-4016165I-60154J-27912D01*
G03X2550519Y-4051798I-52406J-40635D01*
G03X2535658Y-4176265I14081J-64802D01*
G03X2531908Y-4293626I28942J-59665D01*
G03X2542248Y-4412023I34492J-56638D01*
G03X2569671Y-4499466I59452J-29377D01*
G03X2658262Y-4476016I32029J58066D01*
G03X2780054Y-4438694I55486J36316D01*
G03X2657186Y-4405084I-66306J-1006D01*
G03X2625852Y-4379641I-55486J-36316D01*
G03X2599092Y-4292568I-59452J29377D01*
G03X2593541Y-4176265I-34492J56638D01*
G01X2839777Y-4695702D02*
G03X2921953Y-4673876I28023J60102D01*
G03X3040842Y-4649980I54153J38276D01*
G03X3138606Y-4693104I64736J14380D01*
G03X3233863Y-4658519I33029J57504D01*
G03X3183795Y-4570410I-62228J22919D01*
G03X3229746Y-4478427I-14495J64711D01*
G03X3130374Y-4452012I-60446J-27273D01*
G03X3009930Y-4477078I-55175J-36788D01*
G03X3114125Y-4542488I65270J-11722D01*
G03X3157140Y-4570890I55175J36788D01*
G03X3138606Y-4578096I14495J-64711D01*
G03X3040842Y-4621220I-33029J-57504D01*
G03X2921953Y-4597324I-64736J-14380D01*
G03X2850531Y-4571574I-54153J-38276D01*
G03X2739365Y-4507954I-64131J16874D01*
G03X2803669Y-4618726I47035J-46746D01*
G03X2839777Y-4695702I64131J-16874D01*
G01X2873738Y-5752510D02*
G03X2747255Y-5773827I-60438J-27290D01*
G03X2867862Y-5817490I66045J-5973D01*
G03X2982179Y-5828861I60438J27290D01*
G03X3089716Y-5826511I52922J39961D01*
G03X3206083Y-5807037I53184J39611D01*
G03X3330202Y-5768679I58117J31937D01*
G03X3201017Y-5754963I-66002J-6421D01*
G03X3088284Y-5749289I-58117J-31937D01*
G03X2981222Y-5750239I-53184J-39611D01*
G03X2873738Y-5752510I-52922J-39961D01*
G01X2947106Y-3960434D02*
G03X3079734Y-3960434I66314J0D01*
G03X2947106Y-3960434I-66314J0D01*
G01X3103976Y-2521600D02*
G03X3236604Y-2521600I66314J0D01*
G03X3103976Y-2521600I-66314J0D01*
G01X3167671Y-4370611D02*
G03X3218218Y-4257219I3964J66195D01*
G03X3181564Y-4138605I-40618J52419D01*
G03X3131017Y-4251997I-3964J-66195D01*
G03X3167671Y-4370611I40618J-52419D01*
G01X3152686Y-3912700D02*
G03X3285314Y-3912700I66314J0D01*
G03X3152686Y-3912700I-66314J0D01*
G01X3184986Y-3090700D02*
G03X3317614Y-3090700I66314J0D01*
G03X3184986Y-3090700I-66314J0D01*
G01X3236886Y-4559300D02*
G03X3369514Y-4559300I66314J0D01*
G03X3236886Y-4559300I-66314J0D01*
G01X3256038Y-4316093D02*
G03X3388667Y-4316093I66314J0D01*
G03X3256038Y-4316093I-66314J0D01*
G01X3298286Y-4942500D02*
G03X3430914Y-4942500I66314J0D01*
G03X3298286Y-4942500I-66314J0D01*
G01X3337909Y-5740434D02*
G03X3433739Y-5649738I43291J50234D01*
G03X3509291Y-5541566I32260J57938D01*
G03X3413460Y-5632262I-43291J-50234D01*
G03X3337909Y-5740434I-32260J-57938D01*
G01X3331131Y-3769680D02*
G03X3449284Y-3750832I54569J37680D01*
G03X3517338Y-3704976I4916J66132D01*
G03X3488706Y-3628071I-63138J20276D01*
G03X3452770Y-3505688I-35406J56071D01*
G03X3418794Y-3628629I530J-66312D01*
G03X3390616Y-3665868I35406J-56071D01*
G03X3331131Y-3769680I-4916J-66132D01*
G01X3320886Y-4154800D02*
G03X3453514Y-4154800I66314J0D01*
G03X3320886Y-4154800I-66314J0D01*
G01X3321986Y-3912700D02*
G03X3454614Y-3912700I66314J0D01*
G03X3321986Y-3912700I-66314J0D01*
G01X3362886Y-3095800D02*
G03X3495514Y-3095800I66314J0D01*
G03X3362886Y-3095800I-66314J0D01*
G01X3382286Y-3320898D02*
G03X3514914Y-3320898I66314J0D01*
G03X3382286Y-3320898I-66314J0D01*
G01X3397486Y-2527599D02*
G03X3530114Y-2527599I66314J0D01*
G03X3397486Y-2527599I-66314J0D01*
G01X3452486Y-4939100D02*
G03X3585114Y-4939100I66314J0D01*
G03X3452486Y-4939100I-66314J0D01*
G01X3456929Y-4760100D02*
G03X3587972Y-4774515I66314J0D01*
G03X3719014Y-4760100I64728J14415D01*
G03X3587972Y-4745685I-66314J0D01*
G03X3456929Y-4760100I-64728J-14415D01*
G01X3546486Y-3327300D02*
G03X3679114Y-3327300I66314J0D01*
G03X3546486Y-3327300I-66314J0D01*
G01X3758691Y-2544816D02*
G03X3678238Y-2589759I-16968J-64106D01*
G03X3673776Y-2590100I2812J-66254D01*
G03X3555568Y-2583075I-60876J-26301D01*
G03X3620174Y-2682314I57332J-33325D01*
G03X3735200Y-2694293I60876J26301D01*
G03X3848068Y-2736875I66162J4493D01*
G03X3806375Y-2623676I-46706J47075D01*
G03X3758691Y-2544816I-64652J14753D01*
G01X3568986Y-1861900D02*
G03X3701614Y-1861900I66314J0D01*
G03X3568986Y-1861900I-66314J0D01*
G01X3571786Y-4182000D02*
G03X3704414Y-4182000I66314J0D01*
G03X3571786Y-4182000I-66314J0D01*
G01X3592198Y-4404629D02*
G03X3706517Y-4366550I48403J45329D01*
G03X3739364Y-4356143I-2917J66250D01*
G03X3822058Y-4359019I43148J50356D01*
G03X3922419Y-4337168I41255J51919D01*
G03X4030801Y-4356165I60583J26968D01*
G03X4144914Y-4310200I47799J45965D01*
G03X4030801Y-4264234I-66314J0D01*
G03X3923896Y-4280132I-47799J-45965D01*
G03X3823768Y-4253868I-60583J-26968D01*
G03X3746748Y-4249944I-41255J-51919D01*
G03X3637683Y-4293050I-43148J-50356D01*
G03X3592198Y-4404629I2917J-66250D01*
G01X3586501Y-4937622D02*
G03X3713977Y-4961792I66299J1422D01*
G03X3796839Y-4995857I60023J28192D01*
G03X3838015Y-4916288I-22839J62257D01*
G03X3893584Y-4808304I4085J66188D01*
G03X3980102Y-4708085I40304J52661D01*
G03X3882404Y-4797439I-46214J-47558D01*
G03X3778086Y-4867412I-40304J-52661D01*
G03X3712823Y-4908008I-4085J-66188D01*
G03X3586501Y-4937622I-60023J-28192D01*
G01X3696286Y-4628900D02*
G03X3828914Y-4628900I66314J0D01*
G03X3696286Y-4628900I-66314J0D01*
G01X3832886Y-5592400D02*
G03X3965514Y-5592400I66314J0D01*
G03X3832886Y-5592400I-66314J0D01*
G01X3833586Y-5280200D02*
G03X3966214Y-5280200I66314J0D01*
G03X3833586Y-5280200I-66314J0D01*
G01X3838086Y-5792500D02*
G03X3970714Y-5792500I66314J0D01*
G03X3838086Y-5792500I-66314J0D01*
G01X3869686Y-1863100D02*
G03X4002314Y-1863100I66314J0D01*
G03X3869686Y-1863100I-66314J0D01*
G01X3920686Y-2355400D02*
G03X4053314Y-2355400I66314J0D01*
G03X3920686Y-2355400I-66314J0D01*
G01X3925686Y-2140402D02*
G03X4058314Y-2140402I66314J0D01*
G03X3925686Y-2140402I-66314J0D01*
G01X3925686Y-2000398D02*
G03X4058314Y-2000398I66314J0D01*
G03X3925686Y-2000398I-66314J0D01*
G01X4140533Y-4816924D02*
G03X4233751Y-4731368I33167J57424D01*
G03X4302486Y-4620805I23611J61968D01*
G03X4197311Y-4697532I-45123J-48595D01*
G03X4119267Y-4797376I-23611J-61968D01*
G03X4022120Y-4872237I-33167J-57424D01*
G03X3963429Y-4985564I-13320J-64963D01*
G03X4072780Y-4919763I45371J48364D01*
G03X4140533Y-4816924I13320J64963D01*
G01X3973486Y-4669400D02*
G03X4106114Y-4669400I66314J0D01*
G03X3973486Y-4669400I-66314J0D01*
G01X3983086Y-5278300D02*
G03X4115714Y-5278300I66314J0D01*
G03X3983086Y-5278300I-66314J0D01*
G01X3986886Y-5589400D02*
G03X4119514Y-5589400I66314J0D01*
G03X3986886Y-5589400I-66314J0D01*
G01X3988886Y-5791800D02*
G03X4121514Y-5791800I66314J0D01*
G03X3988886Y-5791800I-66314J0D01*
G01X4091586Y-3369000D02*
G03X4243214Y-3369000I75814J0D01*
G03X4091586Y-3369000I-75814J0D01*
G01X4213387Y-3959808D02*
G03X4252497Y-3840606I-887J66308D01*
G03X4210213Y-3722492I-41397J51806D01*
G03X4171103Y-3841694I887J-66308D01*
G03X4213387Y-3959808I41397J-51806D01*
G01X4155486Y-5793100D02*
G03X4288114Y-5793100I66314J0D01*
G03X4155486Y-5793100I-66314J0D01*
G01X4157386Y-5592600D02*
G03X4290014Y-5592600I66314J0D01*
G03X4157386Y-5592600I-66314J0D01*
G01X4376451Y-2919113D02*
G03X4417547Y-2801115I-451J66313D01*
G03X4374849Y-2683688I-42247J51115D01*
G03X4333753Y-2801685I451J-66313D01*
G03X4376451Y-2919113I42247J-51115D01*
G01X4354786Y-5594500D02*
G03X4487414Y-5594500I66314J0D01*
G03X4354786Y-5594500I-66314J0D01*
G01X4358186Y-5429000D02*
G03X4490814Y-5429000I66314J0D01*
G03X4358186Y-5429000I-66314J0D01*
G01X4428286Y-4552300D02*
G03X4560914Y-4552300I66314J0D01*
G03X4428286Y-4552300I-66314J0D01*
G01X4580495Y-3430745D02*
G03X4511745Y-3490110I-2795J-66255D01*
G03X4467914Y-3602175I4055J-66190D01*
G03X4581755Y-3563190I47886J45875D01*
G03X4643605Y-3504355I-4055J66190D01*
G03X4712697Y-3436597I2795J66255D01*
G03X4780236Y-3364234I1503J66297D01*
G03X4849609Y-3303213I3264J66234D01*
G03X4897760Y-3191740I-409J66313D01*
G03X4783091Y-3231687I-48560J-45160D01*
G03X4717464Y-3304066I409J-66313D01*
G03X4647903Y-3371803I-3264J-66234D01*
G03X4580495Y-3430745I-1503J-66297D01*
G01X4530957Y-2915979D02*
G03X4571665Y-2799102I-2158J66279D01*
G03X4523443Y-2685121I-46065J47703D01*
G03X4482735Y-2801997I2158J-66279D01*
G03X4530957Y-2915979I46065J-47703D01*
G01X4535486Y-5069891D02*
G03X4668114Y-5069891I66314J0D01*
G03X4535486Y-5069891I-66314J0D01*
G01X4537086Y-5428500D02*
G03X4669714Y-5428500I66314J0D01*
G03X4537086Y-5428500I-66314J0D01*
G01X4544986Y-5599200D02*
G03X4677614Y-5599200I66314J0D01*
G03X4544986Y-5599200I-66314J0D01*
G01X4660022Y-3923300D02*
G03X4792650Y-3923300I66314J0D01*
G03X4660022Y-3923300I-66314J0D01*
G01X4664324Y-4080499D02*
G03X4796953Y-4080499I66314J0D01*
G03X4664324Y-4080499I-66314J0D01*
G01X4729986Y-5431700D02*
G03X4862614Y-5431700I66314J0D01*
G03X4729986Y-5431700I-66314J0D01*
G01X4731886Y-5600000D02*
G03X4864514Y-5600000I66314J0D01*
G03X4731886Y-5600000I-66314J0D01*
G01X4764286Y-3549300D02*
G03X4896914Y-3549300I66314J0D01*
G03X4764286Y-3549300I-66314J0D01*
G01X4819373Y-4341747D02*
G03X4919484Y-4267567I36528J55347D01*
G03X4948327Y-4146353I-7684J65867D01*
G03X4848216Y-4220533I-36528J-55347D01*
G03X4819373Y-4341747I7684J-65867D01*
G01X5086303Y-3022581D02*
G03X5086303Y-3254209I0J-115814D01*
G03X5086303Y-3022581I0J115814D01*
G01X5086303Y-2768581D02*
G03X5086303Y-3000209I0J-115814D01*
G03X5086303Y-2768581I0J115814D01*
G01X5086303Y-3530581D02*
G03X5086303Y-3762209I0J-115814D01*
G03X5086303Y-3530581I0J115814D01*
G01X5086303Y-3276581D02*
G03X5086303Y-3508209I0J-115814D01*
G03X5086303Y-3276581I0J115814D01*
G01X5434000Y-3795614D02*
G03X5434000Y-3563986I0J115814D01*
G03X5434000Y-3795614I0J-115814D01*
G01X5434000Y-4303614D02*
G03X5434000Y-4071986I0J115814D01*
G03X5434000Y-4303614I0J-115814D01*
G01X5434000Y-4557614D02*
G03X5434000Y-4325986I0J115814D01*
G03X5434000Y-4557614I0J-115814D01*
G01X5434000Y-4049614D02*
G03X5434000Y-3817986I0J115814D01*
G03X5434000Y-4049614I0J-115814D01*
G01X5549814Y-4879800D02*
G03X5514000Y-4843986I-35814J0D01*
G01X5354000Y-4843986D01*
G03X5318186Y-4879800I0J-35814D01*
G01X5318186Y-5019800D01*
G03X5354000Y-5055614I35814J0D01*
G01X5514000Y-5055614D01*
G03X5549814Y-5019800I0J35814D01*
G01X5549814Y-4879800D01*
G01X5434000Y-3541614D02*
G03X5434000Y-3309986I0J115814D01*
G03X5434000Y-3541614I0J-115814D01*
G01X1063019Y-5612310D02*
G03X1124828Y-5964186I141168J-156570D01*
G01X500000Y-5964186D01*
G02X35814Y-5500000I0J464186D01*
G01X35814Y-500000D01*
G02X500000Y-35814I464186J0D01*
G01X9000000Y-35814D01*
G02X9464186Y-500000I0J-464186D01*
G01X9464186Y-5500000D01*
G02X9000000Y-5964186I-464186J0D01*
G01X1283545Y-5964186D01*
G03X1229137Y-5559547I-79359J195306D01*
G03X1278864Y-5394144I-24950J97678D01*
G03X1109403Y-5427526I-74677J-67726D01*
G03X1066986Y-5411882I-55203J-84357D01*
G03X1154245Y-5299457I-12786J100000D01*
G03X1299796Y-5243856I49942J87574D01*
G03X1216973Y-5111883I-95609J31973D01*
G03X1299796Y-4979910I-12786J100000D01*
G03X1154245Y-4924309I-95609J-31973D01*
G03X1066986Y-4811884I-100045J12426D01*
G03X1137301Y-4654808I-12786J100000D01*
G03X1310448Y-4272813I66886J199922D01*
G03X1063019Y-4611457I-106261J-182074D01*
G03X953967Y-4701079I-8819J-100427D01*
G03X1041414Y-4811884I100233J-10805D01*
G03X1041414Y-5011883I12786J-100000D01*
G03X953386Y-5111883I12786J-100000D01*
G03X1041414Y-5211883I100814J0D01*
G03X1041414Y-5411882I12786J-100000D01*
G03X953967Y-5522687I12786J-100000D01*
G03X1063019Y-5612310I100233J10805D01*
G01X210600Y-3710586D02*
G03X210600Y-3982214I0J-135814D01*
G03X210600Y-3710586I0J135814D01*
G01X210600Y-3202586D02*
G03X210600Y-3474214I0J-135814D01*
G03X210600Y-3202586I0J135814D01*
G01X304212Y-5499995D02*
G03X695880Y-5499995I195834J0D01*
G03X304212Y-5499995I-195834J0D01*
G01X394797Y-1120709D02*
G03X415681Y-991730I-797J66309D01*
G03X391703Y-863291I-23181J62130D01*
G03X370819Y-992270I797J-66309D01*
G03X394797Y-1120709I23181J-62130D01*
G01X1720016Y-1798546D02*
G03X1839602Y-1792633I58384J31446D01*
G03X1945213Y-1808068I58498J31233D01*
G03X2054845Y-1755337I43367J50168D01*
G03X1941467Y-1711232I-66265J-2563D01*
G03X1836899Y-1735867I-43367J-50168D01*
G03X1727284Y-1724854I-58498J-31233D01*
G03X1682696Y-1691437I-58384J-31446D01*
G03X1657223Y-1640740I-66296J-1563D01*
G03X1652108Y-1540629I-45923J47840D01*
G03X1645784Y-1436772I-44208J49429D01*
G03X1666737Y-1350468I-37384J54772D01*
G03X1583056Y-1320720I-58338J-31532D01*
G03X1463094Y-1284600I-66256J-2780D01*
G03X1347650Y-1288242I-56694J-34400D01*
G03X1242700Y-1273417I-58050J-32058D01*
G03X1139460Y-1270985I-52600J-40383D01*
G03X1038209Y-1278518I-47460J-46315D01*
G03X936534Y-1283135I-48909J-44783D01*
G03X829483Y-1293648I-49733J-43865D01*
G03X716573Y-1292582I-56783J-34252D01*
G03X694977Y-1272810I-54473J-37818D01*
G03X662125Y-1022664I-98377J114310D01*
G03X445899Y-1152659I-65525J-135836D01*
G03X331374Y-1209398I-49399J-44241D01*
G03X458767Y-1219712I65126J12498D01*
G03X501042Y-1275177I137833J61212D01*
G03X493339Y-1386943I31558J-58323D01*
G03X597691Y-1346179I39261J53443D01*
G03X718227Y-1365718I64409J15779D01*
G03X830017Y-1361252I54473J37818D01*
G03X939567Y-1367165I56783J34252D01*
G03X1043091Y-1362082I49733J43865D01*
G03X1142640Y-1360115I48909J44783D01*
G03X1237000Y-1360683I47460J46315D01*
G03X1348350Y-1351058I52600J40383D01*
G03X1460106Y-1357900I58050J32058D01*
G03X1542144Y-1384780I56694J34400D01*
G03X1570516Y-1436428I66256J2780D01*
G03X1567092Y-1543471I37384J-54772D01*
G03X1570478Y-1645160I44208J-49429D01*
G03X1602604Y-1757863I45923J-47840D01*
G03X1720016Y-1798546I66296J1563D01*
G01X331486Y-1329900D02*
G03X464114Y-1329900I66314J0D01*
G03X331486Y-1329900I-66314J0D01*
G01X1034896Y-932429D02*
G03X944272Y-936961I-42896J-50572D01*
G03X903365Y-873329I-66272J2361D01*
G03X829450Y-889428I-25364J-61272D01*
G03X717912Y-909941I-49550J-44072D01*
G03X592432Y-910105I-62712J-21559D01*
G03X462988Y-929821I-63132J-20295D01*
G03X592068Y-951795I66312J-579D01*
G03X717188Y-955059I63132J20295D01*
G03X828450Y-978672I62712J21559D01*
G03X925728Y-980639I49550J44072D01*
G03X983751Y-1048799I66272J-2361D01*
G03X1056804Y-997072I8249J65799D01*
G03X1160652Y-972624I42896J50572D01*
G03X1274598Y-970187I56248J35124D01*
G03X1393826Y-959222I57002J33887D01*
G03X1512430Y-968440I61574J24622D01*
G03X1591887Y-996276I56670J34440D01*
G03X1634614Y-923732I-22787J62276D01*
G03X1672711Y-808274I-6114J66032D01*
G03X1667360Y-705930I-44711J48974D01*
G03X1641905Y-589200I-40860J52230D01*
G03X1655662Y-465142I-15405J64500D01*
G03X1682520Y-436220I-32961J57542D01*
G03X1750497Y-469010I57680J32720D01*
G03X1728228Y-676163I75506J-112890D01*
G03X1936057Y-661484I97775J94263D01*
G03X1981221Y-715840I65743J8684D01*
G03X2004398Y-844608I22279J-62460D01*
G03X2024079Y-715260I-898J66308D01*
G03X2067882Y-647252I-22279J62460D01*
G03X2013353Y-587500I-66082J-5548D01*
G03X2023620Y-459579I-11553J65300D01*
G03X2045530Y-349005I-23320J62079D01*
G03X1936749Y-378557I-45230J-48495D01*
G03X1842187Y-348673I-60549J-27043D01*
G03X1823694Y-446106I34013J-56927D01*
G03X1784949Y-452440I2309J-135794D01*
G03X1779705Y-350238I-44749J48940D01*
G03X1680380Y-374880I-39505J-53262D01*
G03X1574408Y-362153I-57680J-32720D01*
G03X1593538Y-467158I48292J-45447D01*
G03X1611095Y-589200I32961J-57542D01*
G03X1587140Y-707070I15405J-64500D01*
G03X1583789Y-808726I40860J-52230D01*
G03X1562986Y-867968I44711J-48974D01*
G03X1512070Y-900160I6114J-66032D01*
G03X1393174Y-911678I-56670J-34440D01*
G03X1273902Y-903613I-61574J-24622D01*
G03X1155948Y-911376I-57002J-33887D01*
G03X1034896Y-932429I-56248J-35124D01*
G01X4109782Y-1719485D02*
G01X3546831Y-1719485D01*
G03X3511017Y-1755279I0J-35814D01*
G01X3510794Y-2154670D01*
G01X3491779Y-2173686D01*
G01X3105900Y-2173686D01*
G03X3080576Y-2184176I0J-35814D01*
G01X3065876Y-2198876D01*
G03X3055386Y-2224200I25324J-25324D01*
G01X3055386Y-2958123D01*
G01X2881819Y-3131690D01*
G03X2871330Y-3157015I25324J-25324D01*
G01X2871330Y-3481222D01*
G01X2303465Y-4049086D01*
G01X2279183Y-4049086D01*
G03X2253858Y-4059576I0J-35814D01*
G01X1462176Y-4851258D01*
G03X1451686Y-4876583I25324J-25324D01*
G01X1451686Y-5871100D01*
G03X1487500Y-5906914I35814J0D01*
G01X5583555Y-5906914D01*
G03X5619369Y-5871116I0J35814D01*
G01X5620914Y-2399416D01*
G03X5610424Y-2374076I-35814J16D01*
G01X5589724Y-2353376D01*
G03X5564400Y-2342886I-25324J-25324D01*
G01X4152589Y-2342886D01*
G01X4145593Y-1754873D01*
G03X4109782Y-1719485I-35811J-426D01*
G01X1713786Y-1166100D02*
G03X1937814Y-1166100I112014J0D01*
G03X1713786Y-1166100I-112014J0D01*
G01X1787922Y-4270300D02*
G03X1920550Y-4270300I66314J0D01*
G03X1787922Y-4270300I-66314J0D01*
G01X2002674Y-1523472D02*
G03X2044865Y-1408092I-2374J66272D01*
G03X1994526Y-1296028I-47965J45792D01*
G03X1952335Y-1411408I2374J-66272D01*
G03X2002674Y-1523472I47965J-45792D01*
G01X1933286Y-1211500D02*
G03X2065914Y-1211500I66314J0D01*
G03X1933286Y-1211500I-66314J0D01*
G01X2192930Y-3373397D02*
G01X2195344Y-3376013D01*
G01X2197271Y-3378403D01*
G01X2202292Y-3385518D01*
G01X2206132Y-3391267D01*
G03X2215614Y-3403293I56468J34770D01*
G01X2215804Y-3403484D01*
G03X2309491Y-3403389I46796J46986D01*
G03X2309586Y-3309702I-46891J46891D01*
G01X2309396Y-3309511D01*
G03X2297369Y-3300029I-46796J-46986D01*
G01X2291620Y-3296189D01*
G01X2284506Y-3291169D01*
G01X2282115Y-3289242D01*
G01X2279498Y-3286826D01*
G01X2189114Y-3196442D01*
G01X2189114Y-2340141D01*
G02X2305700Y-2223555I116586J0D01*
G01X2353186Y-2223555D01*
G01X2363125Y-2223806D01*
G01X2372835Y-2224313D01*
G01X2373259Y-2224333D01*
G01X2382069Y-2224689D01*
G03X2384730Y-2224698I1446J35785D01*
G03X2394767Y-2224174I1570J66295D01*
G03X2452059Y-2149840I-8575J65854D01*
G03X2377642Y-2092656I-65842J-8671D01*
G03X2361738Y-2096805I8658J-65746D01*
G01X2356261Y-2098655D01*
G01X2348885Y-2100685D01*
G01X2347166Y-2100972D01*
G01X2344658Y-2101127D01*
G01X2310100Y-2101127D01*
G02X2193514Y-1984541I0J116586D01*
G01X2193514Y-987556D01*
G01X2231056Y-950014D01*
G01X3189412Y-950014D01*
G02X3223173Y-1066600I-184426J-116586D01*
G01X3223173Y-1073660D01*
G01X3178303Y-1118529D01*
G01X3175687Y-1120944D01*
G01X3173297Y-1122871D01*
G01X3166183Y-1127892D01*
G01X3160433Y-1131732D01*
G03X3148407Y-1141214I34769J-56468D01*
G01X3148216Y-1141404D01*
G03X3148311Y-1235091I46986J-46796D01*
G03X3241998Y-1235186I46891J46891D01*
G01X3242189Y-1234996D01*
G03X3251671Y-1222969I-46986J46796D01*
G01X3255510Y-1217220D01*
G01X3260531Y-1210106D01*
G01X3262458Y-1207715D01*
G01X3264873Y-1205099D01*
G01X3327671Y-1142301D01*
G03X3345601Y-1099016I-43285J43285D01*
G01X3345601Y-1066600D01*
G02X3379361Y-950014I218186J0D01*
G01X3700710Y-950014D01*
G02X3734471Y-1066600I-184426J-116586D01*
G01X3734471Y-1331787D01*
G03X3752400Y-1375072I61214J0D01*
G01X3881029Y-1503701D01*
G01X3883444Y-1506318D01*
G01X3885371Y-1508708D01*
G01X3890392Y-1515822D01*
G01X3894232Y-1521572D01*
G03X3903503Y-1533386I56468J34769D01*
G01X3392617Y-1533386D01*
G01X3389057Y-1533243D01*
G01X3386004Y-1532916D01*
G01X3377424Y-1531436D01*
G01X3370639Y-1530084D01*
G03X3339961Y-1530084I-15339J-64516D01*
G01X3333175Y-1531436D01*
G01X3324595Y-1532916D01*
G01X3321543Y-1533243D01*
G01X3317983Y-1533386D01*
G01X2791391Y-1533386D01*
G03X2781528Y-1534186I0J-61214D01*
G01X2742977Y-1534186D01*
G02X2709216Y-1417600I184426J116586D01*
G01X2709216Y-1323317D01*
G01X2709359Y-1319757D01*
G01X2709687Y-1316704D01*
G01X2711167Y-1308124D01*
G01X2712518Y-1301340D01*
G03X2648002Y-1219686I-64515J15340D01*
G03X2583487Y-1301340I0J-66314D01*
G01X2584838Y-1308124D01*
G01X2586318Y-1316704D01*
G01X2586646Y-1319757D01*
G01X2586788Y-1323317D01*
G01X2586788Y-1417600D01*
G02X2553028Y-1534186I-218186J0D01*
G01X2436600Y-1534186D01*
G03X2393315Y-1552115I0J-61214D01*
G01X2369401Y-1576029D01*
G01X2366785Y-1578444D01*
G01X2364394Y-1580371D01*
G01X2357280Y-1585392D01*
G01X2351531Y-1589232D01*
G03X2339504Y-1598714I34769J-56468D01*
G01X2339314Y-1598904D01*
G03X2339409Y-1692591I46986J-46796D01*
G03X2433096Y-1692686I46891J46891D01*
G01X2433286Y-1692496D01*
G03X2442768Y-1680469I-46986J46796D01*
G01X2446608Y-1674720D01*
G01X2451629Y-1667606D01*
G01X2453556Y-1665215D01*
G01X2455971Y-1662599D01*
G01X2461956Y-1656614D01*
G01X2730177Y-1656614D01*
G01X2730175Y-2006811D01*
G01X2730175Y-3324955D01*
G01X2254301Y-3800829D01*
G01X2251685Y-3803244D01*
G01X2249294Y-3805171D01*
G01X2242180Y-3810192D01*
G01X2236431Y-3814032D01*
G03X2224404Y-3823514I34769J-56468D01*
G01X2224214Y-3823704D01*
G03X2224309Y-3917391I46986J-46796D01*
G03X2317996Y-3917486I46891J46891D01*
G01X2318186Y-3917296D01*
G03X2327668Y-3905269I-46986J46796D01*
G01X2331508Y-3899520D01*
G01X2336529Y-3892406D01*
G01X2338456Y-3890015D01*
G01X2340871Y-3887399D01*
G01X2834674Y-3393595D01*
G03X2852603Y-3350311I-43285J43285D01*
G01X2852603Y-2101785D01*
G02X2969189Y-2068025I116586J-184426D01*
G01X2983683Y-2068025D01*
G01X2987243Y-2068167D01*
G01X2990296Y-2068495D01*
G01X2998876Y-2069975D01*
G01X3005661Y-2071326D01*
G03X3087314Y-2006811I15339J64516D01*
G03X3005661Y-1942295I-66314J0D01*
G01X2998876Y-1943646D01*
G01X2990296Y-1945126D01*
G01X2987243Y-1945454D01*
G01X2983683Y-1945597D01*
G01X2969189Y-1945597D01*
G02X2852604Y-1911836I0J218185D01*
G01X2852605Y-1655814D01*
G01X3317983Y-1655814D01*
G01X3321543Y-1655957D01*
G01X3324596Y-1656284D01*
G01X3333175Y-1657764D01*
G01X3339960Y-1659115D01*
G03X3370640Y-1659115I15340J64515D01*
G01X3377424Y-1657764D01*
G01X3386004Y-1656284D01*
G01X3389057Y-1655957D01*
G01X3392617Y-1655814D01*
G01X4420899Y-1655814D01*
G02X4655592Y-1752942I0J-332112D01*
G01X5082854Y-2180204D01*
G01X5088472Y-2186298D01*
G03X5186412Y-2228280I64525J15298D01*
G03X5198073Y-2122361I-33415J57280D01*
G03X5196282Y-2120493I-45076J-41417D01*
G01X4741142Y-1665352D01*
G02X4644014Y-1430659I234984J234693D01*
G01X4644014Y-1210816D01*
G01X4889919Y-1210816D01*
G03X4998108Y-1231671I61081J25819D01*
G03X4976252Y-1123679I-47108J46673D01*
G01X4958890Y-1106318D01*
G03X4915605Y-1088388I-43285J-43285D01*
G01X4873477Y-1088388D01*
G03X4818900Y-984406I-54577J37668D01*
G03X4764323Y-1088388I0J-66314D01*
G01X4622180Y-1088388D01*
G01X4615966Y-1088096D01*
G03X4530273Y-1093068I-39918J-52954D01*
G03X4521273Y-1178431I45774J-47982D01*
G01X4521586Y-1185681D01*
G01X4521586Y-1416800D01*
G02X4405000Y-1533386I-116586J0D01*
G01X3997897Y-1533386D01*
G03X3997686Y-1440007I-47197J46584D01*
G01X3997496Y-1439816D01*
G03X3985469Y-1430334I-46796J-46986D01*
G01X3979720Y-1426494D01*
G01X3972606Y-1421474D01*
G01X3970215Y-1419547D01*
G01X3967599Y-1417132D01*
G01X3856899Y-1306431D01*
G01X3856899Y-1066600D01*
G02X3890659Y-950014I218186J0D01*
G01X4516145Y-950014D01*
G03X4573500Y-1049614I57355J-33286D01*
G03X4630855Y-950014I0J66314D01*
G01X5055944Y-950014D01*
G01X5067786Y-961856D01*
G01X5067786Y-1153681D01*
G01X5067643Y-1157240D01*
G01X5067316Y-1160294D01*
G01X5066486Y-1165103D01*
G01X5063671Y-1169092D01*
G01X5061744Y-1171482D01*
G01X5059329Y-1174099D01*
G01X5013717Y-1219710D01*
G03X4995788Y-1262995I43285J-43285D01*
G01X4995788Y-1535683D01*
G01X4995646Y-1539243D01*
G01X4995318Y-1542296D01*
G01X4993838Y-1550875D01*
G01X4992487Y-1557660D01*
G03X5057002Y-1639314I64515J-15340D01*
G03X5121518Y-1557661I1J66314D01*
G01X5120167Y-1550875D01*
G01X5118686Y-1542295D01*
G01X5118359Y-1539243D01*
G01X5118216Y-1535683D01*
G01X5118216Y-1288351D01*
G01X5145899Y-1260668D01*
G01X5148515Y-1258253D01*
G01X5150906Y-1256326D01*
G01X5158020Y-1251306D01*
G01X5163769Y-1247466D01*
G03X5175796Y-1237984I-34769J56468D01*
G01X5175986Y-1237793D01*
G03X5193516Y-1175659I-46986J46796D01*
G01X5192164Y-1168873D01*
G01X5190684Y-1160293D01*
G01X5190356Y-1157240D01*
G01X5190214Y-1153681D01*
G01X5190214Y-936500D01*
G03X5172285Y-893215I-61214J0D01*
G01X5124585Y-845515D01*
G03X5081300Y-827586I-43285J-43285D01*
G01X4875903Y-827586D01*
G03X4818900Y-727386I-57003J33886D01*
G03X4761897Y-827586I0J-66314D01*
G01X3795685Y-827586D01*
G01X2205700Y-827586D01*
G03X2162415Y-845515I0J-61214D01*
G01X2089015Y-918915D01*
G03X2071086Y-962200I43285J-43285D01*
G01X2071086Y-1056096D01*
G03X1940086Y-1070700I-64686J-14604D01*
G03X2071086Y-1085304I66314J0D01*
G01X2071086Y-1995434D01*
G01X2069271Y-2144740D01*
G03X2066686Y-2162341I58629J-17601D01*
G01X2066686Y-3221798D01*
G03X2084615Y-3265083I61214J0D01*
G01X2192930Y-3373397D01*
G01X1942286Y-916800D02*
G03X2074914Y-916800I66314J0D01*
G03X1942286Y-916800I-66314J0D01*
G01X2221786Y-1166100D02*
G03X2445814Y-1166100I112014J0D01*
G03X2221786Y-1166100I-112014J0D01*
G01X5161811Y-581900D02*
G03X4890183Y-581900I-135814J0D01*
G03X5161811Y-581900I135814J0D01*
G01X6304212Y-499994D02*
G03X6695880Y-499994I195834J0D01*
G03X6304212Y-499994I-195834J0D01*
G01X8804212Y-499994D02*
G03X9195880Y-499994I195834J0D01*
G03X8804212Y-499994I-195834J0D01*
G01X8804212Y-5499994D02*
G03X9195880Y-5499994I195834J0D01*
G03X8804212Y-5499994I-195834J0D01*
G04 Copper End*

G04 TearDrop Start*
G36*
G01X5121080Y-1234838D02*
G01X5085159Y-1198917D01*
G01X5088874Y-1194892D01*
G01X5092272Y-1190678D01*
G01X5098218Y-1182252D01*
G01X5103204Y-1174787D01*
G01X5107433Y-1169431D01*
G01X5150567Y-1212565D01*
G01X5145210Y-1216794D01*
G01X5137746Y-1221779D01*
G01X5129320Y-1227726D01*
G01X5125105Y-1231123D01*
G01X5121080Y-1234838D01*
G37*
G36*
G01X5103600Y-1154397D02*
G01X5154400Y-1154397D01*
G01X5154619Y-1159870D01*
G01X5155197Y-1165253D01*
G01X5156950Y-1175416D01*
G01X5158703Y-1184220D01*
G01X5159500Y-1190998D01*
G01X5098500Y-1190998D01*
G01X5099297Y-1184220D01*
G01X5101050Y-1175416D01*
G01X5102803Y-1165253D01*
G01X5103381Y-1159870D01*
G01X5103600Y-1154397D01*
G37*
G36*
G01X4608200Y-1181047D02*
G01X4557400Y-1184909D01*
G01X4556796Y-1170894D01*
G01X4556176Y-1165891D01*
G01X4555466Y-1163559D01*
G01X4600183Y-1159697D01*
G01X4599727Y-1161301D01*
G01X4600259Y-1163355D01*
G01X4603146Y-1168523D01*
G01X4606555Y-1174616D01*
G01X4607741Y-1177826D01*
G01X4608200Y-1181047D01*
G37*
G36*
G01X4621340Y-1124202D02*
G01X4614245Y-1175002D01*
G01X4611033Y-1174532D01*
G01X4607845Y-1173313D01*
G01X4601805Y-1169786D01*
G01X4596647Y-1166736D01*
G01X4594563Y-1166112D01*
G01X4592895Y-1166475D01*
G01X4599990Y-1122155D01*
G01X4602279Y-1122907D01*
G01X4607268Y-1123563D01*
G01X4621340Y-1124202D01*
G37*
G36*
G01X3906859Y-1478883D02*
G01X3942780Y-1442962D01*
G01X3946805Y-1446677D01*
G01X3951020Y-1450075D01*
G01X3959446Y-1456021D01*
G01X3966911Y-1461006D01*
G01X3972267Y-1465236D01*
G01X3929133Y-1508369D01*
G01X3924904Y-1503013D01*
G01X3919919Y-1495548D01*
G01X3913972Y-1487123D01*
G01X3910574Y-1482908D01*
G01X3906859Y-1478883D01*
G37*
G36*
G01X2394220Y-1601859D02*
G01X2430141Y-1637780D01*
G01X2426426Y-1641805D01*
G01X2423028Y-1646020D01*
G01X2417082Y-1654446D01*
G01X2412096Y-1661911D01*
G01X2407867Y-1667267D01*
G01X2364733Y-1624133D01*
G01X2370089Y-1619904D01*
G01X2377554Y-1614919D01*
G01X2385980Y-1608972D01*
G01X2390195Y-1605574D01*
G01X2394220Y-1601859D01*
G37*
G36*
G01X2353638Y-2187741D02*
G01X2345762Y-2136941D01*
G01X2351232Y-2136603D01*
G01X2356607Y-2135705D01*
G01X2366752Y-2132914D01*
G01X2375553Y-2129940D01*
G01X2382362Y-2128158D01*
G01X2390238Y-2188647D01*
G01X2383515Y-2188904D01*
G01X2374705Y-2188548D01*
G01X2364512Y-2188015D01*
G01X2353638Y-2187741D01*
G37*
G36*
G01X2984400Y-2032211D02*
G01X2984400Y-1981411D01*
G01X2989873Y-1981191D01*
G01X2995256Y-1980614D01*
G01X3005418Y-1978860D01*
G01X3014222Y-1977107D01*
G01X3021000Y-1976310D01*
G01X3021000Y-2037311D01*
G01X3014222Y-2036514D01*
G01X3005418Y-2034761D01*
G01X2995256Y-2033007D01*
G01X2989873Y-2032430D01*
G01X2984400Y-2032211D01*
G37*
G36*
G01X3318700Y-1620000D02*
G01X3318700Y-1569200D01*
G01X3324173Y-1568981D01*
G01X3329555Y-1568403D01*
G01X3339718Y-1566650D01*
G01X3348522Y-1564897D01*
G01X3355300Y-1564100D01*
G01X3355300Y-1625100D01*
G01X3348522Y-1624303D01*
G01X3339718Y-1622550D01*
G01X3329555Y-1620797D01*
G01X3324173Y-1620219D01*
G01X3318700Y-1620000D01*
G37*
G36*
G01X3391900Y-1569200D02*
G01X3391900Y-1620000D01*
G01X3386427Y-1620219D01*
G01X3381044Y-1620797D01*
G01X3370881Y-1622550D01*
G01X3362078Y-1624303D01*
G01X3355300Y-1625100D01*
G01X3355300Y-1564100D01*
G01X3362078Y-1564897D01*
G01X3370881Y-1566650D01*
G01X3381044Y-1568403D01*
G01X3386427Y-1568981D01*
G01X3391900Y-1569200D01*
G37*
G36*
G01X2673402Y-1322600D02*
G01X2622602Y-1322600D01*
G01X2622383Y-1317127D01*
G01X2621806Y-1311744D01*
G01X2620052Y-1301582D01*
G01X2618299Y-1292778D01*
G01X2617502Y-1286000D01*
G01X2678502Y-1286000D01*
G01X2677706Y-1292778D01*
G01X2675952Y-1301582D01*
G01X2674199Y-1311744D01*
G01X2673622Y-1317127D01*
G01X2673402Y-1322600D01*
G37*
G36*
G01X3203122Y-1144359D02*
G01X3239043Y-1180280D01*
G01X3235328Y-1184305D01*
G01X3231930Y-1188520D01*
G01X3225984Y-1196946D01*
G01X3220998Y-1204411D01*
G01X3216769Y-1209767D01*
G01X3173636Y-1166633D01*
G01X3178992Y-1162404D01*
G01X3186457Y-1157419D01*
G01X3194882Y-1151472D01*
G01X3199097Y-1148074D01*
G01X3203122Y-1144359D01*
G37*
G36*
G01X5031602Y-1536400D02*
G01X5082402Y-1536400D01*
G01X5082622Y-1541873D01*
G01X5083199Y-1547255D01*
G01X5084952Y-1557418D01*
G01X5086706Y-1566222D01*
G01X5087502Y-1573000D01*
G01X5026502Y-1573000D01*
G01X5027299Y-1566222D01*
G01X5029052Y-1557418D01*
G01X5030806Y-1547255D01*
G01X5031383Y-1541873D01*
G01X5031602Y-1536400D01*
G37*
G36*
G01X2279120Y-3826659D02*
G01X2315041Y-3862580D01*
G01X2311326Y-3866605D01*
G01X2307928Y-3870820D01*
G01X2301981Y-3879246D01*
G01X2296996Y-3886711D01*
G01X2292767Y-3892067D01*
G01X2249633Y-3848933D01*
G01X2254989Y-3844704D01*
G01X2262454Y-3839719D01*
G01X2270880Y-3833772D01*
G01X2275095Y-3830374D01*
G01X2279120Y-3826659D01*
G37*
G36*
G01X2218759Y-3348578D02*
G01X2254680Y-3312657D01*
G01X2258705Y-3316372D01*
G01X2262920Y-3319770D01*
G01X2271346Y-3325716D01*
G01X2278811Y-3330701D01*
G01X2284167Y-3334931D01*
G01X2241033Y-3378064D01*
G01X2236804Y-3372708D01*
G01X2231818Y-3365243D01*
G01X2225872Y-3356818D01*
G01X2222474Y-3352603D01*
G01X2218759Y-3348578D01*
G37*
G36*
G01X5108694Y-2155395D02*
G01X5145123Y-2119982D01*
G01X5147084Y-2122589D01*
G01X5148537Y-2125707D01*
G01X5150500Y-2132433D01*
G01X5152181Y-2138076D01*
G01X5153281Y-2139839D01*
G01X5154749Y-2140550D01*
G01X5122507Y-2171776D01*
G01X5121301Y-2169627D01*
G01X5118166Y-2165669D01*
G01X5108694Y-2155395D01*
G37*
G36*
G01X2153300Y-2340141D02*
G02X2305700Y-2187741I152400J0D01*
G01X2310100Y-2136941D01*
G02X2157700Y-1984541I0J152400D01*
G01X2106900Y-1995652D01*
G01X2105007Y-2151336D01*
G01X2153300Y-2340141D01*
G37*
G36*
G01X4557400Y-1416800D02*
G02X4405000Y-1569200I-152400J0D01*
G01X4420899Y-1620000D01*
G02X4681062Y-1727763I0J-367926D01*
G01X4715963Y-1690822D01*
G02X4608200Y-1430659I260163J260163D01*
G01X4557400Y-1416800D01*
G37*
G36*
G01X2622602Y-1417600D02*
G02X2571802Y-1570000I-254000J0D01*
G01X2648002Y-1595400D01*
G01X2724202Y-1570000D01*
G02X2673402Y-1417600I203200J152400D01*
G01X2622602Y-1417600D01*
G37*
G36*
G01X2969189Y-2032211D02*
G03X2816789Y-2083011I0J-254000D01*
G01X2791389Y-2006811D01*
G01X2816790Y-1930611D01*
G03X2969189Y-1981411I152400J203199D01*
G01X2969189Y-2032211D01*
G37*
G36*
G01X3258987Y-1066600D02*
G03X3208187Y-914200I-254000J0D01*
G01X3284387Y-888800D01*
G01X3360587Y-914200D01*
G03X3309787Y-1066600I203200J-152400D01*
G01X3258987Y-1066600D01*
G37*
G36*
G01X3770285Y-1066600D02*
G03X3719485Y-914200I-254000J0D01*
G01X3795685Y-888800D01*
G01X3871885Y-914200D01*
G03X3821085Y-1066600I203200J-152400D01*
G01X3770285Y-1066600D01*
G37*
G04 TearDrop End*

G04 Pad Start*
G54D11*
G01X5025997Y-581900D03*
G01X1826003Y-581900D03*
G54D12*
G01X1825800Y-1166100D03*
G01X2333800Y-1166100D03*
G54D13*
G01X196601Y-758501D03*
G01X196601Y-1558499D03*
G01X996599Y-1558499D03*
G01X996599Y-758501D03*
G54D14*
G01X596600Y-1158500D03*
G54D15*
G01X5086303Y-3646395D03*
G01X5086303Y-3392395D03*
G01X5086303Y-3138395D03*
G01X5086303Y-2884395D03*
G54D16*
G01X5086303Y-2630395D03*
G54D18*
G01X1204187Y-5461870D03*
G01X1204187Y-5211883D03*
G01X1204187Y-5011883D03*
G01X1204187Y-4761871D03*
G01X1054200Y-4711884D03*
G01X1054200Y-4911883D03*
G01X1054200Y-5111883D03*
G01X1054200Y-5311883D03*
G01X1054200Y-5511882D03*
G54D19*
G01X1204187Y-5768879D03*
G01X1204187Y-4454887D03*
G54D15*
G01X12209200Y-2154400D03*
G01X12209200Y-2408400D03*
G01X12209200Y-2662398D03*
G01X12209200Y-2916398D03*
G01X12209200Y-1900400D03*
G01X12209200Y-1646400D03*
G01X12209200Y-1392400D03*
G01X12209200Y-1138403D03*
G54D11*
G01X210600Y-3338400D03*
G01X210600Y-3846400D03*
G01X210600Y-2213400D03*
G01X210600Y-2721400D03*
G54D20*
G01X9000046Y-499994D03*
G01X500046Y-5499995D03*
G01X6500046Y-499994D03*
G01X9000046Y-5499994D03*
G54D15*
G01X5434000Y-3171800D03*
G01X5434000Y-3425800D03*
G01X5434000Y-3679800D03*
G01X5434000Y-3933800D03*
G01X5434000Y-4187800D03*
G01X5434000Y-4441800D03*
G01X5434000Y-4695800D03*
G54D21*
G01X5434000Y-4949800D03*
G04 Pad End*

G04 Via Start*
G54D22*
G01X2541800Y-2975500D03*
G01X765500Y-3490702D03*
G01X943600Y-3492202D03*
G01X760400Y-4007800D03*
G01X943000Y-4016400D03*
G01X1424900Y-3500902D03*
G01X1596600Y-3498102D03*
G01X1420900Y-4000900D03*
G01X1603800Y-4006700D03*
G01X452500Y-2215400D03*
G01X452500Y-2475494D03*
G01X452500Y-2720281D03*
G01X712600Y-2213200D03*
G01X712600Y-2464566D03*
G01X712600Y-2722467D03*
G01X992339Y-2722467D03*
G01X990200Y-2482100D03*
G01X990200Y-2219778D03*
G01X456866Y-2975400D03*
G01X714767Y-2975400D03*
G01X992300Y-2971600D03*
G01X1224012Y-2971600D03*
G01X1224000Y-2726800D03*
G01X1224000Y-2484236D03*
G01X1224000Y-2211036D03*
G01X449216Y-1959400D03*
G01X713674Y-1959400D03*
G01X991200Y-1964100D03*
G01X1229476Y-1964100D03*
G01X2759000Y-3791064D03*
G01X2665600Y-4161963D03*
G01X2963100Y-3527900D03*
G01X2948200Y-3181100D03*
G01X2030700Y-4583800D03*
G01X3448200Y-3461302D03*
G01X3616600Y-3466102D03*
G01X3448600Y-3320898D03*
G01X3612800Y-3327300D03*
G01X5129000Y-1190998D03*
G01X4951000Y-1184998D03*
G01X4951000Y-1325002D03*
G01X5129000Y-1331002D03*
G01X4576047Y-1141050D03*
G01X4573500Y-983300D03*
G01X4716400Y-985700D03*
G01X4280400Y-1092400D03*
G01X3950700Y-1346798D03*
G01X4128500Y-1351800D03*
G01X3950700Y-1486802D03*
G01X2386300Y-1645700D03*
G01X2386300Y-1780702D03*
G01X2386300Y-2018398D03*
G01X2386300Y-2158402D03*
G01X3021000Y-2006811D03*
G01X3036900Y-2228700D03*
G01X3170290Y-2521600D03*
G01X3463800Y-2527599D03*
G01X3987000Y-2355400D03*
G01X3987000Y-2490402D03*
G01X3992000Y-2000398D03*
G01X3992000Y-2140402D03*
G01X3795998Y-1860500D03*
G01X3936000Y-1863100D03*
G01X3355300Y-1594600D03*
G01X3284100Y-1801600D03*
G01X2648002Y-1286000D03*
G01X2510998Y-1289000D03*
G01X3195202Y-1188200D03*
G01X3201400Y-1041998D03*
G01X3339300Y-2039753D03*
G01X3339300Y-2135595D03*
G01X4375300Y-2750000D03*
G01X4525600Y-2751400D03*
G01X4528800Y-2849700D03*
G01X4376000Y-2852800D03*
G01X4211000Y-3222400D03*
G01X4515800Y-3556300D03*
G01X4360198Y-3681900D03*
G01X3236488Y-2905763D03*
G01X3429972Y-2909582D03*
G01X3251300Y-3090700D03*
G01X2169300Y-4876400D03*
G01X1854236Y-4270300D03*
G01X5293002Y-2171000D03*
G01X5057002Y-1573000D03*
G01X4916998Y-1573000D03*
G01X4601800Y-5069891D03*
G01X2543800Y-5426100D03*
G01X3322353Y-4316093D03*
G01X3013420Y-3960434D03*
G01X4494600Y-4552300D03*
G01X4726336Y-3923300D03*
G01X4730638Y-4080499D03*
G01X2271200Y-3870500D03*
G01X2262600Y-3356497D03*
G01X5152998Y-2171000D03*
G01X1755900Y-2403900D03*
G01X1897069Y-2403900D03*
G01X1897100Y-2514300D03*
G01X1755880Y-2509422D03*
G01X2284200Y-5401000D03*
G01X2412414Y-5401000D03*
G01X624198Y-5143700D03*
G01X763436Y-4777900D03*
G01X755196Y-4949883D03*
G01X2169900Y-5017900D03*
G01X3782513Y-4305787D03*
G01X3762600Y-4628900D03*
G01X3703600Y-4300300D03*
G01X3640600Y-4359300D03*
G01X3863313Y-4307100D03*
G01X3612900Y-2616400D03*
G01X3681050Y-2656013D03*
G01X3741723Y-2608923D03*
G01X3801361Y-2689800D03*
G01X4855900Y-4286400D03*
G01X4911800Y-4201700D03*
G01X4212500Y-3893500D03*
G01X4211100Y-3788800D03*
G01X4577700Y-3497000D03*
G01X4646400Y-3438100D03*
G01X4783500Y-3298000D03*
G01X4849200Y-3236900D03*
G01X4714200Y-3370300D03*
G01X4818900Y-1050720D03*
G01X4078600Y-4310200D03*
G01X3983002Y-4310200D03*
G01X2940198Y-4488800D03*
G01X3226901Y-4728301D03*
G01X2952000Y-5071004D03*
G01X3303200Y-4559300D03*
G01X3638100Y-4182000D03*
G01X3034356Y-3227097D03*
G01X3119259Y-3222697D03*
G01X3042163Y-3365140D03*
G01X3129100Y-3363900D03*
G01X3429200Y-3095800D03*
G01X2813300Y-5779800D03*
G01X3035100Y-5788900D03*
G01X2928300Y-5790200D03*
G01X3142900Y-5786900D03*
G01X3264200Y-5775100D03*
G01X3381200Y-5690200D03*
G01X3466000Y-5591800D03*
G01X3453300Y-3572000D03*
G01X3064000Y-3521000D03*
G01X3635300Y-1861900D03*
G01X4830600Y-3549300D03*
G01X1622700Y-407600D03*
G01X1626500Y-524700D03*
G01X1626500Y-653700D03*
G01X1628000Y-759300D03*
G01X1628500Y-857700D03*
G01X1455400Y-934600D03*
G01X1331600Y-936300D03*
G01X1216900Y-937500D03*
G01X1099700Y-946500D03*
G01X992000Y-983000D03*
G01X878000Y-934600D03*
G01X779900Y-933500D03*
G01X392500Y-929600D03*
G01X529300Y-930400D03*
G01X655200Y-931500D03*
G01X394000Y-1054400D03*
G01X396500Y-1196900D03*
G01X397800Y-1329900D03*
G01X532600Y-1333500D03*
G01X662100Y-1330400D03*
G01X772700Y-1327900D03*
G01X886800Y-1327000D03*
G01X989300Y-1323300D03*
G01X1092000Y-1317300D03*
G01X1190100Y-1313800D03*
G01X1289600Y-1320300D03*
G01X1406400Y-1319000D03*
G01X1516800Y-1323500D03*
G01X1569100Y-934000D03*
G01X1608400Y-1382000D03*
G01X1607900Y-1491200D03*
G01X1611300Y-1592900D03*
G01X1616400Y-1693000D03*
G01X1668900Y-1756300D03*
G01X2000300Y-1457200D03*
G01X1996900Y-1362300D03*
G01X1740200Y-403500D03*
G01X1876200Y-405600D03*
G01X2000300Y-397500D03*
G01X2001800Y-522200D03*
G01X2001800Y-652800D03*
G01X2003500Y-778300D03*
G01X2008600Y-916800D03*
G01X2006400Y-1070700D03*
G01X1999600Y-1211500D03*
G01X1988580Y-1757900D03*
G01X1898100Y-1761400D03*
G01X1778400Y-1767100D03*
G01X4352498Y-4553500D03*
G01X2594800Y-3797098D03*
G01X1675800Y-5072600D03*
G01X1676600Y-4882849D03*
G01X1513300Y-4689300D03*
G01X1514400Y-4574600D03*
G01X1514400Y-4462277D03*
G01X1514400Y-4344695D03*
G01X1561900Y-4274700D03*
G01X1564400Y-4187400D03*
G01X1652900Y-4147200D03*
G01X1749800Y-4141100D03*
G01X1861600Y-4144600D03*
G01X1953300Y-4142000D03*
G01X2123000Y-4312600D03*
G01X2125700Y-4423363D03*
G01X2123100Y-4528605D03*
G01X2125600Y-4625049D03*
G01X2120500Y-4722518D03*
G01X1710021Y-5340891D03*
G01X1835500Y-5346300D03*
G01X2847400Y-4037200D03*
G01X2721455Y-4056800D03*
G01X2616644Y-4056800D03*
G01X2564600Y-4116600D03*
G01X2564600Y-4235930D03*
G01X2566400Y-4350264D03*
G01X2601700Y-4441400D03*
G01X2713748Y-4439700D03*
G01X2786400Y-4554700D03*
G01X2867800Y-4635600D03*
G01X2976106Y-4635600D03*
G01X3105578Y-4635600D03*
G01X3171635Y-4635600D03*
G01X3171635Y-4304416D03*
G01X3169300Y-4505700D03*
G01X3219000Y-3912700D03*
G01X3388300Y-3912700D03*
G01X3177600Y-4204800D03*
G01X3075200Y-4488800D03*
G01X6274700Y-2886300D03*
G01X6274700Y-3327800D03*
G01X6274700Y-3759160D03*
G01X6274700Y-4080198D03*
G01X6274700Y-4431300D03*
G01X6274700Y-4742340D03*
G01X6274700Y-5093476D03*
G01X6274700Y-5484700D03*
G01X6686600Y-2896400D03*
G01X6686600Y-3287600D03*
G01X6686600Y-3739095D03*
G01X6686600Y-4070200D03*
G01X7060298Y-2886300D03*
G01X7060298Y-3327800D03*
G01X7060298Y-3759160D03*
G01X7060298Y-4080198D03*
G01X7060298Y-4431300D03*
G01X7060298Y-4742340D03*
G01X7060298Y-5093476D03*
G01X7060298Y-5484700D03*
G01X7539300Y-2886300D03*
G01X7539300Y-3327800D03*
G01X7539300Y-3759160D03*
G01X7539300Y-4080198D03*
G01X7539300Y-4431300D03*
G01X7539300Y-4742340D03*
G01X7539300Y-5093476D03*
G01X7539300Y-5484700D03*
G01X8073576Y-2866200D03*
G01X8073576Y-3307700D03*
G01X8073576Y-3739060D03*
G01X8073576Y-4060098D03*
G01X8073576Y-4411200D03*
G01X8073576Y-4722240D03*
G01X8073576Y-5073376D03*
G01X8073576Y-5464600D03*
G01X8703100Y-2088700D03*
G01X8703100Y-2530200D03*
G01X8703100Y-2961560D03*
G01X8703100Y-3282598D03*
G01X8703100Y-3633700D03*
G01X8703100Y-3944740D03*
G01X8703100Y-4295876D03*
G01X8693100Y-4687100D03*
G01X5866400Y-2452400D03*
G01X6274700Y-2452400D03*
G01X6686600Y-2452400D03*
G01X7060298Y-2452400D03*
G01X7539300Y-2452400D03*
G01X8073576Y-2452400D03*
G01X4170600Y-1089900D03*
G01X4058100Y-1090000D03*
G01X4051900Y-983600D03*
G01X4165500Y-982100D03*
G01X4277200Y-982100D03*
G01X2310400Y-2483500D03*
G01X2438300Y-2483500D03*
G01X2581883Y-2483500D03*
G01X2580600Y-2644200D03*
G01X2443500Y-2644100D03*
G01X2310400Y-2644200D03*
G01X2310399Y-2794336D03*
G01X2440239Y-2794336D03*
G01X2585818Y-2794336D03*
G01X3899900Y-5280200D03*
G01X3899200Y-5592400D03*
G01X3904400Y-5792500D03*
G01X4049400Y-5278300D03*
G01X4055200Y-5791800D03*
G01X4053200Y-5589400D03*
G01X4223700Y-5592600D03*
G01X4221800Y-5793100D03*
G01X4423800Y-5796800D03*
G01X4421100Y-5594500D03*
G01X4424500Y-5429000D03*
G01X4603400Y-5428500D03*
G01X4611300Y-5599200D03*
G01X4615900Y-5801400D03*
G01X4795600Y-5799500D03*
G01X4798200Y-5600000D03*
G01X4796300Y-5431700D03*
G01X926600Y-5201200D03*
G01X2665975Y-5770778D03*
G54D23*
G01X4167400Y-3369000D03*
G54D22*
G01X3454200Y-3684700D03*
G01X2804500Y-1188205D03*
G01X2899800Y-1303800D03*
G01X4818900Y-793700D03*
G01X2027205Y-4447693D03*
G01X3385700Y-3732000D03*
G01X2078000Y-3498002D03*
G01X2262600Y-3496502D03*
G01X2086400Y-4018702D03*
G01X2268100Y-4011002D03*
G01X3518800Y-4939100D03*
G01X3364600Y-4942500D03*
G01X3652800Y-4936200D03*
G01X3774000Y-4933600D03*
G01X3842100Y-4850100D03*
G01X3933888Y-4755643D03*
G01X4039800Y-4669400D03*
G01X4257363Y-4669400D03*
G01X4173700Y-4759500D03*
G01X4086100Y-4854800D03*
G01X4008800Y-4937200D03*
G01X3652700Y-4760100D03*
G01X3523243Y-4760100D03*
G01X2030304Y-4743482D03*
G01X1974200Y-4789200D03*
G01X1913300Y-4842500D03*
G01X1913300Y-4946522D03*
G01X1913300Y-5035352D03*
G01X3387200Y-4154800D03*
G01X1363500Y-5217100D03*
G04 Via End*

G04 Track Start*
G54D24*
G01X4951000Y-1184998D02*
G01X4915605Y-1149602D01*
G01X3195202Y-1188200D02*
G01X3284387Y-1099016D01*
G01X2386300Y-2158402D02*
G01X2382362Y-2162341D01*
G01X2262600Y-3356497D02*
G01X2127900Y-3221798D01*
G01X2127900Y-2162341D01*
G01X2132300Y-2162341D01*
G01X2382362Y-2162341D02*
G01X2132300Y-2162341D01*
G01X5129000Y-1190998D02*
G01X5057002Y-1262995D01*
G01X5057002Y-1573000D01*
G01X4915605Y-1149602D02*
G01X4582800Y-1149602D01*
G01X5152998Y-2163778D02*
G01X5152998Y-2171000D01*
G01X4582800Y-1149602D02*
G01X4582800Y-1590209D01*
G01X4579429Y-1590209D01*
G01X5152998Y-2163778D01*
G01X3355300Y-1594600D02*
G01X4578900Y-1594600D01*
G01X4578900Y-1589680D01*
G01X4579429Y-1590209D01*
G01X2791389Y-3350311D02*
G01X2271200Y-3870500D01*
G01X2791391Y-1595400D02*
G01X2791391Y-1594600D01*
G01X2648002Y-1286000D02*
G01X2648002Y-1595400D01*
G01X2836200Y-1594600D02*
G01X2835400Y-1595400D01*
G01X2791391Y-1595400D01*
G01X2791391Y-1594600D02*
G01X2836200Y-1594600D01*
G01X3355300Y-1594600D01*
G01X2791391Y-1595400D02*
G01X2648002Y-1595400D01*
G01X2386300Y-1645700D02*
G01X2436600Y-1595400D01*
G01X2648002Y-1595400D01*
G01X2791389Y-2006811D02*
G01X3021000Y-2006811D01*
G01X2791389Y-3350311D02*
G01X2791389Y-2006811D01*
G01X2791391Y-1595400D02*
G01X2791389Y-2006811D01*
G01X2132300Y-2162341D02*
G01X2132300Y-962200D01*
G01X5129000Y-936500D02*
G01X5129000Y-1190998D01*
G01X3284387Y-1099016D02*
G01X3284387Y-888800D01*
G01X2205700Y-888800D02*
G01X2132300Y-962200D01*
G01X5081300Y-888800D02*
G01X5129000Y-936500D01*
G01X3795685Y-888800D02*
G01X3795685Y-1331787D01*
G01X3950700Y-1486802D01*
G01X2205700Y-888800D02*
G01X3795685Y-888800D01*
G01X5081300Y-888800D01*
G04 Track End*

M02*

